Nokyung-R.ufo
<glyph name="exclam" format="1">
  <advance width="659"/>
  <unicode hex="0021"/>
  <outline>
    <contour>
      <point x="150" y="94" type="curve" smooth="yes"/>
      <point x="150" y="162"/>
      <point x="191" y="204"/>
      <point x="258" y="204" type="curve" smooth="yes"/>
      <point x="327" y="204"/>
      <point x="373" y="162"/>
      <point x="373" y="94" type="curve" smooth="yes"/>
      <point x="373" y="26"/>
      <point x="327" y="-20"/>
      <point x="258" y="-20" type="curve" smooth="yes"/>
      <point x="191" y="-20"/>
      <point x="150" y="26"/>
    </contour>
    <contour>
      <point x="291" y="295" type="curve" smooth="yes"/>
      <point x="290" y="285"/>
      <point x="284" y="276"/>
      <point x="274" y="276" type="curve" smooth="yes"/>
      <point x="246" y="276" type="line" smooth="yes"/>
      <point x="237" y="276"/>
      <point x="231" y="285"/>
      <point x="230" y="295" type="curve" smooth="yes"/>
      <point x="230" y="295"/>
      <point x="174" y="667"/>
      <point x="155" y="795" type="curve" smooth="yes"/>
      <point x="146" y="861"/>
      <point x="191" y="907"/>
      <point x="258" y="907" type="curve" smooth="yes"/>
      <point x="327" y="907"/>
      <point x="375" y="861"/>
      <point x="366" y="795" type="curve" smooth="yes"/>
      <point x="347" y="667"/>
      <point x="291" y="295"/>
    </contour>
  </outline>
</glyph>
<glyph name="quotedbl" format="1">
  <advance width="850"/>
  <unicode hex="0022"/>
  <outline>
    <contour>
      <point x="335" y="1252" type="curve" smooth="yes"/>
      <point x="335" y="1231"/>
      <point x="327" y="1173"/>
      <point x="312" y="1079" type="curve" smooth="yes"/>
      <point x="265" y="776" type="line" smooth="yes"/>
      <point x="264" y="769"/>
      <point x="254" y="765"/>
      <point x="238" y="766" type="curve" smooth="yes"/>
      <point x="223" y="766"/>
      <point x="214" y="770"/>
      <point x="213" y="776" type="curve" smooth="yes"/>
      <point x="168" y="1079" type="line" smooth="yes"/>
      <point x="152" y="1188"/>
      <point x="144" y="1242"/>
      <point x="144" y="1237" type="curve"/>
      <point x="144" y="1320"/>
      <point x="176" y="1362"/>
      <point x="240" y="1362" type="curve" smooth="yes"/>
      <point x="303" y="1362"/>
      <point x="335" y="1326"/>
    </contour>
    <contour>
      <point x="699" y="1252" type="curve" smooth="yes"/>
      <point x="699" y="1231"/>
      <point x="692" y="1173"/>
      <point x="677" y="1079" type="curve" smooth="yes"/>
      <point x="629" y="776" type="line" smooth="yes"/>
      <point x="628" y="769"/>
      <point x="619" y="765"/>
      <point x="603" y="766" type="curve" smooth="yes"/>
      <point x="587" y="766"/>
      <point x="579" y="770"/>
      <point x="578" y="776" type="curve" smooth="yes"/>
      <point x="533" y="1079" type="line" smooth="yes"/>
      <point x="517" y="1188"/>
      <point x="509" y="1242"/>
      <point x="509" y="1237" type="curve"/>
      <point x="509" y="1320"/>
      <point x="540" y="1362"/>
      <point x="605" y="1362" type="curve" smooth="yes"/>
      <point x="668" y="1362"/>
      <point x="699" y="1326"/>
    </contour>
  </outline>
</glyph>
<glyph name="dollar" format="1">
  <advance width="1003"/>
  <unicode hex="0024"/>
  <outline>
    <contour>
      <point x="462" y="1338" type="line"/>
      <point x="462" y="-184" type="line"/>
      <point x="571" y="-184" type="line"/>
      <point x="571" y="1338" type="line"/>
    </contour>
    <contour>
      <point x="824" y="1092" type="line"/>
      <point x="724" y="1140"/>
      <point x="639" y="1161"/>
      <point x="521" y="1161" type="curve" smooth="yes"/>
      <point x="265" y="1161"/>
      <point x="159" y="981"/>
      <point x="159" y="850" type="curve" smooth="yes"/>
      <point x="159" y="719"/>
      <point x="212" y="618"/>
      <point x="451" y="546" type="curve" smooth="yes"/>
      <point x="691" y="474"/>
      <point x="728" y="411"/>
      <point x="728" y="331" type="curve" smooth="yes"/>
      <point x="728" y="206"/>
      <point x="614" y="135"/>
      <point x="490" y="135" type="curve" smooth="yes"/>
      <point x="376" y="135"/>
      <point x="264" y="173"/>
      <point x="163" y="262" type="curve"/>
      <point x="128" y="104" type="line"/>
      <point x="206" y="43"/>
      <point x="341" y="0"/>
      <point x="490" y="0" type="curve" smooth="yes"/>
      <point x="700" y="0"/>
      <point x="874" y="140"/>
      <point x="874" y="346" type="curve" smooth="yes"/>
      <point x="874" y="512"/>
      <point x="762" y="606"/>
      <point x="559" y="665" type="curve" smooth="yes"/>
      <point x="339" y="730"/>
      <point x="305" y="777"/>
      <point x="305" y="861" type="curve" smooth="yes"/>
      <point x="305" y="946"/>
      <point x="390" y="1027"/>
      <point x="512" y="1027" type="curve" smooth="yes"/>
      <point x="611" y="1027"/>
      <point x="684" y="1003"/>
      <point x="793" y="942" type="curve"/>
    </contour>
  </outline>
</glyph>
<glyph name="quotesingle" format="1">
  <advance width="412"/>
  <unicode hex="0027"/>
  <outline>
    <contour>
      <point x="288" y="1252" type="curve" smooth="yes"/>
      <point x="288" y="1231"/>
      <point x="281" y="1173"/>
      <point x="266" y="1079" type="curve" smooth="yes"/>
      <point x="218" y="776" type="line" smooth="yes"/>
      <point x="217" y="769"/>
      <point x="208" y="765"/>
      <point x="192" y="766" type="curve" smooth="yes"/>
      <point x="176" y="766"/>
      <point x="167" y="770"/>
      <point x="166" y="776" type="curve" smooth="yes"/>
      <point x="122" y="1079" type="line" smooth="yes"/>
      <point x="106" y="1188"/>
      <point x="97" y="1242"/>
      <point x="97" y="1237" type="curve"/>
      <point x="97" y="1320"/>
      <point x="129" y="1362"/>
      <point x="194" y="1362" type="curve" smooth="yes"/>
      <point x="256" y="1362"/>
      <point x="288" y="1326"/>
    </contour>
  </outline>
</glyph>
<glyph name="parenright" format="1">
  <advance width="705"/>
  <unicode hex="0029"/>
  <outline>
    <contour>
      <point x="509" y="512" type="curve" smooth="yes"/>
      <point x="509" y="9"/>
      <point x="347" y="-333"/>
      <point x="22" y="-514" type="curve" smooth="yes"/>
      <point x="-35" y="-546"/>
      <point x="-75" y="-555"/>
      <point x="-96" y="-543" type="curve" smooth="yes"/>
      <point x="-98" y="-542"/>
      <point x="-99" y="-540"/>
      <point x="-99" y="-539" type="curve" smooth="yes"/>
      <point x="-99" y="-528"/>
      <point x="-76" y="-511"/>
      <point x="-28" y="-485" type="curve" smooth="yes"/>
      <point x="65" y="-437"/>
      <point x="151" y="-336"/>
      <point x="228" y="-181" type="curve" smooth="yes"/>
      <point x="326" y="14"/>
      <point x="375" y="242"/>
      <point x="375" y="503" type="curve" smooth="yes"/>
      <point x="375" y="767"/>
      <point x="327" y="995"/>
      <point x="231" y="1187" type="curve"/>
      <point x="153" y="1345"/>
      <point x="67" y="1442"/>
      <point x="-27" y="1478" type="curve" smooth="yes"/>
      <point x="-76" y="1498"/>
      <point x="-100" y="1513"/>
      <point x="-100" y="1524" type="curve" smooth="yes"/>
      <point x="-100" y="1527"/>
      <point x="-99" y="1529"/>
      <point x="-97" y="1530" type="curve" smooth="yes"/>
      <point x="-76" y="1546"/>
      <point x="-36" y="1542"/>
      <point x="22" y="1517" type="curve" smooth="yes"/>
      <point x="156" y="1460"/>
      <point x="266" y="1354"/>
      <point x="352" y="1201" type="curve" smooth="yes"/>
      <point x="456" y="1017"/>
      <point x="509" y="788"/>
    </contour>
  </outline>
</glyph>
<glyph name="PlusSgn" format="1">
  <advance width="1003"/>
  <unicode hex="002B"/>
  <outline>
    <contour>
      <point x="439" y="986" type="line"/>
      <point x="439" y="238" type="line"/>
      <point x="564" y="238" type="line"/>
      <point x="564" y="986" type="line"/>
    </contour>
    <contour>
      <point x="130" y="552" type="line"/>
      <point x="874" y="552" type="line"/>
      <point x="874" y="677" type="line"/>
      <point x="130" y="677" type="line"/>
    </contour>
  </outline>
</glyph>
<glyph name="plus" format="1">
  <advance width="1003"/>
  <unicode hex="002B"/>
  <outline>
    <contour>
      <point x="439" y="986" type="line"/>
      <point x="439" y="238" type="line"/>
      <point x="564" y="238" type="line"/>
      <point x="564" y="986" type="line"/>
    </contour>
    <contour>
      <point x="130" y="552" type="line"/>
      <point x="874" y="552" type="line"/>
      <point x="874" y="677" type="line"/>
      <point x="130" y="677" type="line"/>
    </contour>
  </outline>
</glyph>
<glyph name="comma" format="1">
  <advance width="766"/>
  <unicode hex="002C"/>
  <outline>
    <contour>
      <point x="150" y="125" type="curve" smooth="yes"/>
      <point x="150" y="210"/>
      <point x="201" y="263"/>
      <point x="286" y="263" type="curve" smooth="yes"/>
      <point x="373" y="263"/>
      <point x="430" y="210"/>
      <point x="430" y="125" type="curve" smooth="yes"/>
      <point x="430" y="-58"/>
      <point x="357" y="-171"/>
      <point x="200" y="-225" type="curve" smooth="yes"/>
      <point x="192" y="-228"/>
      <point x="186" y="-226"/>
      <point x="182" y="-218" type="curve" smooth="yes"/>
      <point x="169" y="-180" type="line"/>
      <point x="167" y="-172"/>
      <point x="166" y="-163"/>
      <point x="176" y="-159" type="curve" smooth="yes"/>
      <point x="261" y="-128"/>
      <point x="326" y="-64"/>
      <point x="342" y="9" type="curve"/>
      <point x="329" y="-6"/>
      <point x="305" y="-18"/>
      <point x="267" y="-18" type="curve" smooth="yes"/>
      <point x="210" y="-18"/>
      <point x="150" y="40"/>
    </contour>
  </outline>
</glyph>
<glyph name="hyphen" format="1">
  <advance width="635"/>
  <unicode hex="002D"/>
  <outline>
    <contour>
      <point x="517" y="551" type="curve" smooth="yes"/>
      <point x="517" y="520"/>
      <point x="508" y="505"/>
      <point x="490" y="505" type="curve" smooth="yes"/>
      <point x="144" y="505" type="line" smooth="yes"/>
      <point x="127" y="505"/>
      <point x="118" y="520"/>
      <point x="118" y="551" type="curve" smooth="yes"/>
      <point x="118" y="580"/>
      <point x="128" y="594"/>
      <point x="147" y="594" type="curve" smooth="yes"/>
      <point x="488" y="594" type="line" smooth="yes"/>
      <point x="507" y="594"/>
      <point x="517" y="580"/>
    </contour>
  </outline>
</glyph>
<glyph name="period" format="1">
  <advance width="766"/>
  <unicode hex="002E"/>
  <outline>
    <contour>
      <point x="150" y="125" type="curve" smooth="yes"/>
      <point x="150" y="210"/>
      <point x="201" y="263"/>
      <point x="286" y="263" type="curve" smooth="yes"/>
      <point x="373" y="263"/>
      <point x="430" y="210"/>
      <point x="430" y="125" type="curve" smooth="yes"/>
      <point x="430" y="40"/>
      <point x="373" y="-18"/>
      <point x="286" y="-18" type="curve" smooth="yes"/>
      <point x="201" y="-18"/>
      <point x="150" y="40"/>
    </contour>
  </outline>
</glyph>
<glyph name="slash" format="1">
  <advance width="592"/>
  <unicode hex="002F"/>
  <outline>
    <contour>
      <point x="611" y="1462" type="curve" smooth="yes"/>
      <point x="114" y="-15" type="line" smooth="yes"/>
      <point x="110" y="-27"/>
      <point x="91" y="-33"/>
      <point x="55" y="-33" type="curve" smooth="yes"/>
      <point x="20" y="-33"/>
      <point x="4" y="-27"/>
      <point x="7" y="-15" type="curve" smooth="yes"/>
      <point x="509" y="1462" type="line" smooth="yes"/>
      <point x="513" y="1474"/>
      <point x="532" y="1481"/>
      <point x="566" y="1481" type="curve" smooth="yes"/>
      <point x="600" y="1481"/>
      <point x="615" y="1474"/>
    </contour>
  </outline>
</glyph>
<glyph name="zero" format="1">
  <advance width="1003"/>
  <unicode hex="0030"/>
  <outline>
    <contour>
      <point x="761" y="598" type="curve" smooth="yes"/>
      <point x="761" y="257"/>
      <point x="662" y="121"/>
      <point x="502" y="121" type="curve" smooth="yes"/>
      <point x="336" y="121"/>
      <point x="242" y="255"/>
      <point x="242" y="623" type="curve" smooth="yes"/>
      <point x="242" y="964"/>
      <point x="340" y="1099"/>
      <point x="502" y="1099" type="curve" smooth="yes"/>
      <point x="670" y="1099"/>
      <point x="761" y="966"/>
    </contour>
    <contour>
      <point x="928" y="619" type="curve" smooth="yes"/>
      <point x="928" y="1075"/>
      <point x="752" y="1241"/>
      <point x="510" y="1241" type="curve" smooth="yes"/>
      <point x="268" y="1241"/>
      <point x="75" y="1073"/>
      <point x="75" y="602" type="curve" smooth="yes"/>
      <point x="75" y="130"/>
      <point x="252" y="-21"/>
      <point x="493" y="-21" type="curve" smooth="yes"/>
      <point x="737" y="-21"/>
      <point x="928" y="126"/>
    </contour>
    <contour>
      <point x="506" y="1279" type="move" name="U"/>
    </contour>
    <contour>
      <point x="506" y="-84" type="move" name="L"/>
    </contour>
  </outline>
</glyph>
<glyph name="one" format="1">
  <advance width="1003"/>
  <unicode hex="0031"/>
  <outline>
    <contour>
      <point x="447" y="142" type="line"/>
      <point x="184" y="142" type="line"/>
      <point x="184" y="0" type="line"/>
      <point x="869" y="0" type="line"/>
      <point x="869" y="142" type="line"/>
      <point x="606" y="142" type="line"/>
      <point x="606" y="1237" type="line"/>
      <point x="464" y="1237" type="line"/>
      <point x="176" y="1060" type="line"/>
      <point x="196" y="910" type="line"/>
      <point x="447" y="1053" type="line"/>
    </contour>
    <contour>
      <point x="502" y="-84" type="move" name="L"/>
    </contour>
    <contour>
      <point x="502" y="1279" type="move" name="U"/>
    </contour>
  </outline>
</glyph>
<glyph name="two" format="1">
  <advance width="1003"/>
  <unicode hex="0032"/>
  <outline>
    <contour>
      <point x="903" y="150" type="line"/>
      <point x="836" y="139"/>
      <point x="704" y="138"/>
      <point x="539" y="138" type="curve" smooth="yes"/>
      <point x="326" y="138" type="line"/>
      <point x="509" y="294"/>
      <point x="844" y="609"/>
      <point x="844" y="890" type="curve" smooth="yes"/>
      <point x="844" y="1106"/>
      <point x="669" y="1241"/>
      <point x="468" y="1241" type="curve" smooth="yes"/>
      <point x="327" y="1241"/>
      <point x="172" y="1172"/>
      <point x="105" y="1078" type="curve"/>
      <point x="142" y="936" type="line"/>
      <point x="217" y="1027"/>
      <point x="336" y="1091"/>
      <point x="439" y="1091" type="curve" smooth="yes"/>
      <point x="558" y="1091"/>
      <point x="677" y="1031"/>
      <point x="677" y="874" type="curve" smooth="yes"/>
      <point x="677" y="642"/>
      <point x="327" y="305"/>
      <point x="100" y="142" type="curve"/>
      <point x="100" y="0" type="line"/>
      <point x="903" y="0" type="line"/>
    </contour>
    <contour>
      <point x="468" y="1279" type="move" name="U"/>
    </contour>
    <contour>
      <point x="502" y="-84" type="move" name="L"/>
    </contour>
  </outline>
</glyph>
<glyph name="four" format="1">
  <advance width="1003"/>
  <unicode hex="0034"/>
  <outline>
    <contour>
      <point x="941" y="330" type="line"/>
      <point x="941" y="460" type="line"/>
      <point x="782" y="460" type="line"/>
      <point x="782" y="1237" type="line"/>
      <point x="623" y="1237" type="line"/>
      <point x="75" y="460" type="line"/>
      <point x="75" y="330" type="line"/>
      <point x="623" y="330" type="line"/>
      <point x="623" y="0" type="line"/>
      <point x="782" y="0" type="line"/>
      <point x="782" y="330" type="line"/>
    </contour>
    <contour>
      <point x="623" y="1028" type="line"/>
      <point x="623" y="460" type="line"/>
      <point x="220" y="460" type="line"/>
    </contour>
    <contour>
      <point x="507" y="1279" type="move" name="U"/>
    </contour>
    <contour>
      <point x="507" y="-84" type="move" name="L"/>
    </contour>
  </outline>
</glyph>
<glyph name="seven" format="1">
  <advance width="1003"/>
  <unicode hex="0037"/>
  <outline>
    <contour>
      <point x="385" y="0" type="line"/>
      <point x="492" y="384"/>
      <point x="664" y="748"/>
      <point x="911" y="1087" type="curve"/>
      <point x="911" y="1221" type="line"/>
      <point x="84" y="1221" type="line"/>
      <point x="84" y="1066" type="line"/>
      <point x="147" y="1079"/>
      <point x="244" y="1083"/>
      <point x="401" y="1083" type="curve" smooth="yes"/>
      <point x="727" y="1083" type="line"/>
      <point x="512" y="762"/>
      <point x="367" y="473"/>
      <point x="230" y="0" type="curve"/>
    </contour>
    <contour>
      <point x="502" y="1279" type="move" name="U"/>
    </contour>
    <contour>
      <point x="502" y="-84" type="move" name="L"/>
    </contour>
  </outline>
</glyph>
<glyph name="eight" format="1">
  <advance width="1003"/>
  <unicode hex="0038"/>
  <outline>
    <contour>
      <point x="502" y="-21" type="curve" smooth="yes"/>
      <point x="716" y="-21"/>
      <point x="928" y="112"/>
      <point x="928" y="339" type="curve" smooth="yes"/>
      <point x="928" y="511"/>
      <point x="807" y="618"/>
      <point x="715" y="665" type="curve"/>
      <point x="780" y="706"/>
      <point x="878" y="772"/>
      <point x="878" y="924" type="curve" smooth="yes"/>
      <point x="878" y="1129"/>
      <point x="702" y="1241"/>
      <point x="510" y="1241" type="curve" smooth="yes"/>
      <point x="319" y="1241"/>
      <point x="125" y="1129"/>
      <point x="125" y="924" type="curve" smooth="yes"/>
      <point x="125" y="772"/>
      <point x="227" y="701"/>
      <point x="293" y="665" type="curve"/>
      <point x="185" y="606"/>
      <point x="75" y="511"/>
      <point x="75" y="339" type="curve" smooth="yes"/>
      <point x="75" y="112"/>
      <point x="288" y="-21"/>
    </contour>
    <contour>
      <point x="719" y="924" type="curve" smooth="yes"/>
      <point x="719" y="793"/>
      <point x="621" y="723"/>
      <point x="502" y="723" type="curve" smooth="yes"/>
      <point x="382" y="723"/>
      <point x="284" y="793"/>
      <point x="284" y="924" type="curve" smooth="yes"/>
      <point x="284" y="1047"/>
      <point x="382" y="1108"/>
      <point x="502" y="1108" type="curve" smooth="yes"/>
      <point x="621" y="1108"/>
      <point x="719" y="1047"/>
    </contour>
    <contour>
      <point x="761" y="355" type="curve" smooth="yes"/>
      <point x="761" y="209"/>
      <point x="650" y="121"/>
      <point x="502" y="121" type="curve" smooth="yes"/>
      <point x="351" y="121"/>
      <point x="242" y="209"/>
      <point x="242" y="355" type="curve" smooth="yes"/>
      <point x="242" y="495"/>
      <point x="351" y="594"/>
      <point x="502" y="594" type="curve" smooth="yes"/>
      <point x="650" y="594"/>
      <point x="761" y="495"/>
    </contour>
    <contour>
      <point x="502" y="1279" type="move" name="U"/>
    </contour>
    <contour>
      <point x="502" y="-84" type="move" name="L"/>
    </contour>
  </outline>
</glyph>
<glyph name="DigitNine" format="1">
  <advance width="1003"/>
  <unicode hex="0039"/>
  <outline>
    <contour>
      <point x="161" y="54" type="line"/>
      <point x="248" y="-4"/>
      <point x="320" y="-21"/>
      <point x="419" y="-21" type="curve" smooth="yes"/>
      <point x="816" y="-21"/>
      <point x="931" y="344"/>
      <point x="931" y="652" type="curve" smooth="yes"/>
      <point x="931" y="1002"/>
      <point x="774" y="1241"/>
      <point x="515" y="1241" type="curve" smooth="yes"/>
      <point x="292" y="1241"/>
      <point x="94" y="1092"/>
      <point x="94" y="838" type="curve" smooth="yes"/>
      <point x="94" y="646"/>
      <point x="235" y="490"/>
      <point x="467" y="490" type="curve" smooth="yes"/>
      <point x="627" y="490"/>
      <point x="771" y="599"/>
      <point x="852" y="734" type="curve"/>
      <point x="793" y="803" type="line"/>
      <point x="731" y="708"/>
      <point x="617" y="635"/>
      <point x="487" y="635" type="curve" smooth="yes"/>
      <point x="354" y="635"/>
      <point x="256" y="719"/>
      <point x="256" y="866" type="curve" smooth="yes"/>
      <point x="256" y="1000"/>
      <point x="351" y="1095"/>
      <point x="498" y="1095" type="curve" smooth="yes"/>
      <point x="700" y="1095"/>
      <point x="768" y="890"/>
      <point x="768" y="680" type="curve" smooth="yes"/>
      <point x="768" y="273"/>
      <point x="625" y="125"/>
      <point x="427" y="125" type="curve" smooth="yes"/>
      <point x="347" y="125"/>
      <point x="270" y="145"/>
      <point x="198" y="217" type="curve"/>
    </contour>
    <contour>
      <point x="502.0" y="1279.0" type="move" name="U"/>
    </contour>
    <contour>
      <point x="502.0" y="-84.0" type="move" name="L"/>
    </contour>
  </outline>
</glyph>
<glyph name="colon" format="1">
  <advance width="699"/>
  <unicode hex="003A"/>
  <outline>
    <contour>
      <point x="150" y="96" type="curve" smooth="yes"/>
      <point x="150" y="164"/>
      <point x="191" y="206"/>
      <point x="258" y="206" type="curve" smooth="yes"/>
      <point x="327" y="206"/>
      <point x="373" y="164"/>
      <point x="373" y="96" type="curve" smooth="yes"/>
      <point x="373" y="28"/>
      <point x="327" y="-18"/>
      <point x="258" y="-18" type="curve" smooth="yes"/>
      <point x="191" y="-18"/>
      <point x="150" y="28"/>
    </contour>
    <contour>
      <point x="150" y="442" type="curve" smooth="yes"/>
      <point x="150" y="510"/>
      <point x="191" y="552"/>
      <point x="258" y="552" type="curve" smooth="yes"/>
      <point x="327" y="552"/>
      <point x="373" y="510"/>
      <point x="373" y="442" type="curve" smooth="yes"/>
      <point x="373" y="374"/>
      <point x="327" y="328"/>
      <point x="258" y="328" type="curve" smooth="yes"/>
      <point x="191" y="328"/>
      <point x="150" y="374"/>
    </contour>
  </outline>
</glyph>
<glyph name="semicolon" format="1">
  <advance width="381"/>
  <unicode hex="003B"/>
  <outline>
    <contour>
      <point x="274" y="663" type="curve" smooth="yes"/>
      <point x="274" y="593"/>
      <point x="236" y="545"/>
      <point x="187" y="545" type="curve" smooth="yes"/>
      <point x="137" y="545"/>
      <point x="101" y="595"/>
      <point x="101" y="663" type="curve" smooth="yes"/>
      <point x="101" y="698"/>
      <point x="110" y="726"/>
      <point x="128" y="748" type="curve" smooth="yes"/>
      <point x="144" y="768"/>
      <point x="164" y="777"/>
      <point x="187" y="777" type="curve" smooth="yes"/>
      <point x="232" y="777"/>
      <point x="274" y="730"/>
    </contour>
    <contour>
      <point x="295" y="3" type="curve" smooth="yes"/>
      <point x="295" y="-93"/>
      <point x="266" y="-183"/>
      <point x="208" y="-268" type="curve" smooth="yes"/>
      <point x="160" y="-338"/>
      <point x="123" y="-374"/>
      <point x="99" y="-374" type="curve"/>
      <point x="95" y="-371" type="line"/>
      <point x="94" y="-368"/>
      <point x="107" y="-352"/>
      <point x="131" y="-319" type="curve" smooth="yes"/>
      <point x="162" y="-279"/>
      <point x="186" y="-239"/>
      <point x="203" y="-203" type="curve" smooth="yes"/>
      <point x="229" y="-147"/>
      <point x="242" y="-90"/>
      <point x="242" y="-33" type="curve" smooth="yes"/>
      <point x="242" y="-4"/>
      <point x="236" y="11"/>
      <point x="223" y="11" type="curve" smooth="yes"/>
      <point x="222" y="11"/>
      <point x="214" y="7"/>
      <point x="201" y="-2" type="curve"/>
      <point x="189" y="-11"/>
      <point x="178" y="-16"/>
      <point x="169" y="-16" type="curve" smooth="yes"/>
      <point x="148" y="-16"/>
      <point x="129" y="-5"/>
      <point x="113" y="19" type="curve" smooth="yes"/>
      <point x="97" y="42"/>
      <point x="90" y="69"/>
      <point x="90" y="100" type="curve" smooth="yes"/>
      <point x="90" y="133"/>
      <point x="100" y="161"/>
      <point x="120" y="182" type="curve" smooth="yes"/>
      <point x="137" y="201"/>
      <point x="158" y="210"/>
      <point x="180" y="210" type="curve" smooth="yes"/>
      <point x="257" y="210"/>
      <point x="295" y="141"/>
    </contour>
  </outline>
</glyph>
<glyph name="equal" format="1">
  <advance width="1003"/>
  <unicode hex="003D"/>
  <outline>
    <contour>
      <point x="100" y="401" type="line"/>
      <point x="903" y="401" type="line"/>
      <point x="903" y="527" type="line"/>
      <point x="100" y="527" type="line"/>
    </contour>
    <contour>
      <point x="100" y="694" type="line"/>
      <point x="903" y="694" type="line"/>
      <point x="903" y="819" type="line"/>
      <point x="100" y="819" type="line"/>
    </contour>
  </outline>
</glyph>
<glyph name="GTSgn" format="1">
  <advance width="1003"/>
  <unicode hex="003E"/>
  <outline>
    <contour>
      <point x="100" y="865" type="line"/>
      <point x="761" y="610" type="line"/>
      <point x="100" y="355" type="line"/>
      <point x="100" y="205" type="line"/>
      <point x="920" y="539" type="line"/>
      <point x="920" y="681" type="line"/>
      <point x="100" y="1016" type="line"/>
    </contour>
  </outline>
</glyph>
<glyph name="question" format="1">
  <advance width="720"/>
  <unicode hex="003F"/>
  <outline>
    <contour>
      <point x="583" y="675" type="curve" smooth="yes"/>
      <point x="583" y="612"/>
      <point x="566" y="559"/>
      <point x="533" y="515" type="curve" smooth="yes"/>
      <point x="510" y="484"/>
      <point x="479" y="458"/>
      <point x="440" y="439" type="curve"/>
      <point x="385" y="412" type="line"/>
      <point x="381" y="408"/>
      <point x="379" y="375"/>
      <point x="378" y="315" type="curve" smooth="yes"/>
      <point x="377" y="262"/>
      <point x="378" y="225"/>
      <point x="380" y="207" type="curve" smooth="yes"/>
      <point x="381" y="199"/>
      <point x="376" y="194"/>
      <point x="367" y="192" type="curve" smooth="yes"/>
      <point x="361" y="191"/>
      <point x="353" y="190"/>
      <point x="343" y="190" type="curve" smooth="yes"/>
      <point x="327" y="190"/>
      <point x="319" y="190"/>
      <point x="316" y="191" type="curve" smooth="yes"/>
      <point x="306" y="193"/>
      <point x="299" y="197"/>
      <point x="297" y="206" type="curve" smooth="yes"/>
      <point x="295" y="218"/>
      <point x="295" y="261"/>
      <point x="298" y="334" type="curve" smooth="yes"/>
      <point x="301" y="408"/>
      <point x="306" y="448"/>
      <point x="310" y="454" type="curve"/>
      <point x="341" y="471"/>
      <point x="371" y="488"/>
      <point x="401" y="506" type="curve"/>
      <point x="458" y="548"/>
      <point x="486" y="603"/>
      <point x="486" y="670" type="curve" smooth="yes"/>
      <point x="486" y="721"/>
      <point x="472" y="763"/>
      <point x="443" y="797" type="curve" smooth="yes"/>
      <point x="417" y="827"/>
      <point x="387" y="842"/>
      <point x="354" y="842" type="curve" smooth="yes"/>
      <point x="277" y="842"/>
      <point x="222" y="795"/>
      <point x="190" y="698" type="curve" smooth="yes"/>
      <point x="185" y="683"/>
      <point x="166" y="685"/>
      <point x="134" y="704" type="curve" smooth="yes"/>
      <point x="99" y="725"/>
      <point x="86" y="741"/>
      <point x="94" y="755" type="curve" smooth="yes"/>
      <point x="161" y="855"/>
      <point x="249" y="905"/>
      <point x="357" y="905" type="curve" smooth="yes"/>
      <point x="418" y="905"/>
      <point x="469" y="885"/>
      <point x="513" y="845" type="curve" smooth="yes"/>
      <point x="561" y="801"/>
      <point x="584" y="745"/>
    </contour>
    <contour>
      <point x="406" y="49" type="curve" smooth="yes"/>
      <point x="406" y="14"/>
      <point x="378" y="-16"/>
      <point x="343" y="-16" type="curve" smooth="yes"/>
      <point x="309" y="-16"/>
      <point x="282" y="14"/>
      <point x="282" y="49" type="curve" smooth="yes"/>
      <point x="282" y="85"/>
      <point x="307" y="120"/>
      <point x="339" y="120" type="curve" smooth="yes"/>
      <point x="383" y="120"/>
      <point x="406" y="96"/>
    </contour>
  </outline>
</glyph>
<glyph name="A" format="1">
  <advance width="1166"/>
  <unicode hex="0041"/>
  <outline>
    <contour>
      <point x="205" y="0" type="line"/>
      <point x="317" y="322" type="line"/>
      <point x="831" y="322" type="line"/>
      <point x="945" y="0" type="line"/>
      <point x="1116" y="0" type="line"/>
      <point x="1087" y="67"/>
      <point x="1055" y="141"/>
      <point x="999" y="297" type="curve" smooth="yes"/>
      <point x="665" y="1221" type="line"/>
      <point x="485" y="1221" type="line"/>
      <point x="150" y="297" type="line" smooth="yes"/>
      <point x="94" y="140"/>
      <point x="64" y="68"/>
      <point x="33" y="0" type="curve"/>
    </contour>
    <contour>
      <point x="786" y="451" type="line"/>
      <point x="362" y="451" type="line"/>
      <point x="573" y="1058" type="line"/>
    </contour>
    <contour>
      <point x="1212" y="0" type="move" name="O"/>
    </contour>
    <contour>
      <point x="591" y="0" type="move" name="H"/>
    </contour>
    <contour>
      <point x="574" y="1279" type="move" name="U"/>
    </contour>
    <contour>
      <point x="574" y="-84" type="move" name="L"/>
    </contour>
  </outline>
</glyph>
<glyph name="D" format="1">
  <advance width="1200"/>
  <unicode hex="0044"/>
  <outline>
    <contour>
      <point x="146" y="380" type="line"/>
      <point x="145" y="215"/>
      <point x="146" y="67"/>
      <point x="134" y="0" type="curve"/>
      <point x="134" y="0"/>
      <point x="390" y="-8"/>
      <point x="497" y="-8" type="curve" smooth="yes"/>
      <point x="742" y="-8"/>
      <point x="1099" y="121"/>
      <point x="1099" y="619" type="curve" smooth="yes"/>
      <point x="1099" y="1165"/>
      <point x="693" y="1229"/>
      <point x="514" y="1229" type="curve" smooth="yes"/>
      <point x="401" y="1229"/>
      <point x="205" y="1226"/>
      <point x="134" y="1221" type="curve"/>
      <point x="146" y="1154"/>
      <point x="146" y="1000"/>
      <point x="146" y="836" type="curve" smooth="yes"/>
    </contour>
    <contour>
      <point x="305" y="1091" type="line"/>
      <point x="347" y="1093"/>
      <point x="438" y="1095"/>
      <point x="493" y="1095" type="curve" smooth="yes"/>
      <point x="734" y="1095"/>
      <point x="936" y="976"/>
      <point x="936" y="602" type="curve" smooth="yes"/>
      <point x="936" y="257"/>
      <point x="713" y="130"/>
      <point x="489" y="130" type="curve" smooth="yes"/>
      <point x="410" y="130"/>
      <point x="344" y="135"/>
      <point x="305" y="138" type="curve"/>
    </contour>
    <contour>
      <point x="598" y="1279" type="move" name="U"/>
    </contour>
    <contour>
      <point x="598" y="-84" type="move" name="L"/>
    </contour>
  </outline>
</glyph>
<glyph name="E" format="1">
  <advance width="970"/>
  <unicode hex="0045"/>
  <outline>
    <contour>
      <point x="305" y="706" type="line"/>
      <point x="305" y="1083" type="line"/>
      <point x="844" y="1083" type="line"/>
      <point x="844" y="1221" type="line"/>
      <point x="134" y="1221" type="line"/>
      <point x="146" y="1154"/>
      <point x="146" y="1022"/>
      <point x="146" y="857" type="curve" smooth="yes"/>
      <point x="146" y="364" type="line" smooth="yes"/>
      <point x="146" y="199"/>
      <point x="146" y="67"/>
      <point x="134" y="0" type="curve"/>
      <point x="869" y="0" type="line"/>
      <point x="869" y="150" type="line"/>
      <point x="803" y="139"/>
      <point x="691" y="138"/>
      <point x="526" y="138" type="curve" smooth="yes"/>
      <point x="305" y="138" type="line"/>
      <point x="305" y="573" type="line"/>
      <point x="782" y="573" type="line"/>
      <point x="782" y="706" type="line"/>
    </contour>
    <contour>
      <point x="767" y="0" type="move" name="O"/>
    </contour>
    <contour>
      <point x="502" y="0" type="move" name="H"/>
    </contour>
    <contour>
      <point x="970" y="1003" type="move" name="R"/>
    </contour>
    <contour>
      <point x="502" y="1279" type="move" name="U"/>
    </contour>
    <contour>
      <point x="502" y="-84" type="move" name="L"/>
    </contour>
  </outline>
</glyph>
<glyph name="LtnCapF" format="1">
  <advance width="961"/>
  <unicode hex="0046"/>
  <outline>
    <contour>
      <point x="305" y="698" type="line"/>
      <point x="305" y="1083" type="line"/>
      <point x="861" y="1083" type="line"/>
      <point x="861" y="1221" type="line"/>
      <point x="134" y="1221" type="line"/>
      <point x="146" y="1154"/>
      <point x="146" y="1017"/>
      <point x="146" y="853" type="curve" smooth="yes"/>
      <point x="146" y="364" type="line" smooth="yes"/>
      <point x="146" y="199"/>
      <point x="146" y="67"/>
      <point x="134" y="0" type="curve"/>
      <point x="318" y="0" type="line"/>
      <point x="305" y="65"/>
      <point x="305" y="198"/>
      <point x="305" y="364" type="curve" smooth="yes"/>
      <point x="305" y="564" type="line"/>
      <point x="790" y="564" type="line"/>
      <point x="790" y="698" type="line"/>
    </contour>
    <contour>
      <point x="497.0" y="1279.0" type="move" name="U"/>
    </contour>
    <contour>
      <point x="497.0" y="-84.0" type="move" name="L"/>
    </contour>
  </outline>
</glyph>
<glyph name="G" format="1">
  <advance width="1187"/>
  <unicode hex="0047"/>
  <outline>
    <contour>
      <point x="1066" y="623" type="line"/>
      <point x="614" y="623" type="line"/>
      <point x="614" y="485" type="line"/>
      <point x="907" y="485" type="line"/>
      <point x="907" y="205" type="line"/>
      <point x="805" y="143"/>
      <point x="732" y="125"/>
      <point x="633" y="125" type="curve" smooth="yes"/>
      <point x="394" y="125"/>
      <point x="242" y="315"/>
      <point x="242" y="623" type="curve" smooth="yes"/>
      <point x="242" y="915"/>
      <point x="401" y="1099"/>
      <point x="656" y="1099" type="curve" smooth="yes"/>
      <point x="767" y="1099"/>
      <point x="874" y="1075"/>
      <point x="999" y="974" type="curve"/>
      <point x="1053" y="1124" type="line"/>
      <point x="907" y="1222"/>
      <point x="792" y="1241"/>
      <point x="656" y="1241" type="curve" smooth="yes"/>
      <point x="336" y="1241"/>
      <point x="79" y="1002"/>
      <point x="79" y="602" type="curve" smooth="yes"/>
      <point x="79" y="201"/>
      <point x="307" y="-21"/>
      <point x="623" y="-21" type="curve" smooth="yes"/>
      <point x="767" y="-21"/>
      <point x="895" y="9"/>
      <point x="1066" y="130" type="curve"/>
    </contour>
    <contour>
      <point x="623" y="1279" type="move" name="U"/>
    </contour>
    <contour>
      <point x="623" y="-84" type="move" name="L"/>
    </contour>
    <contour>
      <point x="623" y="0" type="move" name="H"/>
    </contour>
  </outline>
</glyph>
<glyph name="I" format="1">
  <advance width="815"/>
  <unicode hex="0049"/>
  <outline>
    <contour>
      <point x="117" y="1221" type="line"/>
      <point x="117" y="1099" type="line"/>
      <point x="318" y="1099" type="line"/>
      <point x="318" y="121" type="line"/>
      <point x="117" y="121" type="line"/>
      <point x="117" y="0" type="line"/>
      <point x="681" y="0" type="line"/>
      <point x="681" y="121" type="line"/>
      <point x="477" y="121" type="line"/>
      <point x="477" y="1099" type="line"/>
      <point x="681" y="1099" type="line"/>
      <point x="681" y="1221" type="line"/>
    </contour>
    <contour>
      <point x="563" y="0" type="move" name="O"/>
    </contour>
    <contour>
      <point x="399" y="0" type="move" name="H"/>
    </contour>
    <contour>
      <point x="815" y="1003" type="move" name="R"/>
    </contour>
    <contour>
      <point x="399" y="1279" type="move" name="U"/>
    </contour>
    <contour>
      <point x="399" y="-84" type="move" name="L"/>
    </contour>
  </outline>
</glyph>
<glyph name="LtnCapI" format="1">
  <advance width="815"/>
  <unicode hex="0049"/>
  <outline>
    <contour>
      <point x="117" y="1221" type="line"/>
      <point x="117" y="1099" type="line"/>
      <point x="318" y="1099" type="line"/>
      <point x="318" y="121" type="line"/>
      <point x="117" y="121" type="line"/>
      <point x="117" y="0" type="line"/>
      <point x="681" y="0" type="line"/>
      <point x="681" y="121" type="line"/>
      <point x="477" y="121" type="line"/>
      <point x="477" y="1099" type="line"/>
      <point x="681" y="1099" type="line"/>
      <point x="681" y="1221" type="line"/>
    </contour>
    <contour>
      <point x="399.0" y="1279.0" type="move" name="U"/>
    </contour>
    <contour>
      <point x="399.0" y="-84.0" type="move" name="L"/>
    </contour>
    <contour>
      <point x="563.0" y="0.0" type="move" name="O"/>
    </contour>
    <contour>
      <point x="399.0" y="0.0" type="move" name="H"/>
    </contour>
    <contour>
      <point x="815.0" y="1003.0" type="move" name="R"/>
    </contour>
  </outline>
</glyph>
<glyph name="K" format="1">
  <advance width="1095"/>
  <unicode hex="004B"/>
  <outline>
    <contour>
      <point x="773" y="1221" type="line"/>
      <point x="247" y="588" type="line"/>
      <point x="355" y="623" type="line"/>
      <point x="443" y="619" type="line"/>
      <point x="974" y="1221" type="line"/>
    </contour>
    <contour>
      <point x="293" y="614" type="line"/>
      <point x="823" y="0" type="line"/>
      <point x="1028" y="0" type="line"/>
      <point x="405" y="719" type="line"/>
    </contour>
    <contour>
      <point x="305" y="1221" type="line"/>
      <point x="134" y="1221" type="line"/>
      <point x="146" y="1154"/>
      <point x="146" y="1022"/>
      <point x="146" y="857" type="curve" smooth="yes"/>
      <point x="146" y="364" type="line" smooth="yes"/>
      <point x="146" y="199"/>
      <point x="146" y="67"/>
      <point x="134" y="0" type="curve"/>
      <point x="305" y="0" type="line"/>
    </contour>
    <contour>
      <point x="543" y="1279" type="move" name="U"/>
    </contour>
    <contour>
      <point x="581" y="-84" type="move" name="L"/>
    </contour>
    <contour>
      <point x="226" y="0" type="move" name="H"/>
    </contour>
  </outline>
</glyph>
<glyph name="L" format="1">
  <advance width="903"/>
  <unicode hex="004C"/>
  <outline>
    <contour>
      <point x="305" y="138" type="line"/>
      <point x="305" y="1221" type="line"/>
      <point x="134" y="1221" type="line"/>
      <point x="146" y="1154"/>
      <point x="146" y="1022"/>
      <point x="146" y="857" type="curve" smooth="yes"/>
      <point x="146" y="364" type="line" smooth="yes"/>
      <point x="146" y="199"/>
      <point x="146" y="67"/>
      <point x="134" y="0" type="curve"/>
      <point x="857" y="0" type="line"/>
      <point x="857" y="150" type="line"/>
      <point x="790" y="139"/>
      <point x="657" y="138"/>
      <point x="492" y="138" type="curve" smooth="yes"/>
    </contour>
    <contour>
      <point x="495" y="0" type="move" name="H"/>
    </contour>
    <contour>
      <point x="451" y="1003" type="move" name="R"/>
    </contour>
    <contour>
      <point x="495" y="1279" type="move" name="U"/>
    </contour>
    <contour>
      <point x="495" y="-84" type="move" name="L"/>
    </contour>
  </outline>
</glyph>
<glyph name="LtnCapL" format="1">
  <advance width="903"/>
  <unicode hex="004C"/>
  <outline>
    <contour>
      <point x="305" y="138" type="line"/>
      <point x="305" y="1221" type="line"/>
      <point x="134" y="1221" type="line"/>
      <point x="146" y="1154"/>
      <point x="146" y="1022"/>
      <point x="146" y="857" type="curve" smooth="yes"/>
      <point x="146" y="364" type="line" smooth="yes"/>
      <point x="146" y="199"/>
      <point x="146" y="67"/>
      <point x="134" y="0" type="curve"/>
      <point x="857" y="0" type="line"/>
      <point x="857" y="150" type="line"/>
      <point x="790" y="139"/>
      <point x="657" y="138"/>
      <point x="492" y="138" type="curve" smooth="yes"/>
    </contour>
    <contour>
      <point x="495.0" y="1279.0" type="move" name="U"/>
    </contour>
    <contour>
      <point x="495.0" y="-84.0" type="move" name="L"/>
    </contour>
    <contour>
      <point x="451.0" y="1003.0" type="move" name="R"/>
    </contour>
    <contour>
      <point x="495.0" y="0.0" type="move" name="H"/>
    </contour>
  </outline>
</glyph>
<glyph name="M" format="1">
  <advance width="1501"/>
  <unicode hex="004D"/>
  <outline>
    <contour>
      <point x="740" y="171" type="line"/>
      <point x="380" y="1221" type="line"/>
      <point x="238" y="1221" type="line"/>
      <point x="660" y="0" type="line"/>
      <point x="823" y="0" type="line"/>
      <point x="1243" y="1221" type="line"/>
      <point x="1104" y="1221" type="line"/>
    </contour>
    <contour>
      <point x="192" y="1221" type="line"/>
      <point x="192" y="1221"/>
      <point x="155" y="166"/>
      <point x="134" y="0" type="curve"/>
      <point x="288" y="0" type="line"/>
      <point x="315" y="1007" type="line"/>
      <point x="339" y="1221" type="line"/>
    </contour>
    <contour>
      <point x="1346" y="0" type="line"/>
      <point x="1322" y="166"/>
      <point x="1287" y="1221"/>
      <point x="1287" y="1221" type="curve"/>
      <point x="1141" y="1221" type="line"/>
      <point x="1168" y="1007" type="line"/>
      <point x="1191" y="0" type="line"/>
    </contour>
    <contour>
      <point x="740" y="1279" type="move" name="U"/>
    </contour>
    <contour>
      <point x="740" y="-84" type="move" name="L"/>
    </contour>
    <contour>
      <point x="1272" y="0" type="move" name="H"/>
    </contour>
  </outline>
</glyph>
<glyph name="LtnCapN" format="1">
  <advance width="1254.0"/>
  <unicode hex="004E"/>
  <outline>
    <contour>
      <point x="167" y="1133" type="line"/>
      <point x="949" y="0" type="line"/>
      <point x="1066" y="84" type="line"/>
      <point x="284" y="1221" type="line"/>
    </contour>
    <contour>
      <point x="949" y="0" type="line"/>
      <point x="1087" y="0" type="line"/>
      <point x="1087" y="857" type="line" smooth="yes"/>
      <point x="1087" y="1022"/>
      <point x="1088" y="1154"/>
      <point x="1099" y="1221" type="curve"/>
      <point x="949" y="1221" type="line"/>
    </contour>
    <contour>
      <point x="284" y="1221" type="line"/>
      <point x="134" y="1221" type="line"/>
      <point x="146" y="1154"/>
      <point x="146" y="1022"/>
      <point x="146" y="857" type="curve" smooth="yes"/>
      <point x="146" y="364" type="line" smooth="yes"/>
      <point x="146" y="199"/>
      <point x="146" y="67"/>
      <point x="134" y="0" type="curve"/>
      <point x="284" y="0" type="line"/>
    </contour>
    <contour>
      <point x="616.0" y="1279.0" type="move" name="U"/>
    </contour>
    <contour>
      <point x="616.0" y="-84.0" type="move" name="L"/>
    </contour>
    <contour>
      <point x="1028.0" y="0.0" type="move" name="H"/>
    </contour>
  </outline>
</glyph>
<glyph name="O" format="1">
  <advance width="1221"/>
  <unicode hex="004F"/>
  <outline>
    <contour>
      <point x="957" y="598" type="curve" smooth="yes"/>
      <point x="957" y="301"/>
      <point x="807" y="125"/>
      <point x="602" y="125" type="curve" smooth="yes"/>
      <point x="385" y="125"/>
      <point x="242" y="318"/>
      <point x="242" y="623" type="curve" smooth="yes"/>
      <point x="242" y="912"/>
      <point x="390" y="1095"/>
      <point x="602" y="1095" type="curve" smooth="yes"/>
      <point x="814" y="1095"/>
      <point x="957" y="906"/>
    </contour>
    <contour>
      <point x="1120" y="619" type="curve" smooth="yes"/>
      <point x="1120" y="1019"/>
      <point x="876" y="1241"/>
      <point x="610" y="1241" type="curve" smooth="yes"/>
      <point x="340" y="1241"/>
      <point x="79" y="1002"/>
      <point x="79" y="602" type="curve" smooth="yes"/>
      <point x="79" y="201"/>
      <point x="324" y="-21"/>
      <point x="594" y="-21" type="curve" smooth="yes"/>
      <point x="860" y="-21"/>
      <point x="1120" y="217"/>
    </contour>
    <contour>
      <point x="831" y="0" type="move" name="O"/>
    </contour>
    <contour>
      <point x="599" y="0" type="move" name="H"/>
    </contour>
    <contour>
      <point x="1221" y="1003" type="move" name="R"/>
    </contour>
    <contour>
      <point x="599" y="1279" type="move" name="U"/>
    </contour>
    <contour>
      <point x="599" y="-84" type="move" name="L"/>
    </contour>
  </outline>
</glyph>
<glyph name="LtnCapQ" format="1">
  <advance width="1233"/>
  <unicode hex="0051"/>
  <outline>
    <contour>
      <point x="1120" y="619" type="curve" smooth="yes"/>
      <point x="1120" y="1019"/>
      <point x="880" y="1241"/>
      <point x="610" y="1241" type="curve" smooth="yes"/>
      <point x="340" y="1241"/>
      <point x="79" y="1002"/>
      <point x="79" y="602" type="curve" smooth="yes"/>
      <point x="79" y="201"/>
      <point x="320" y="-21"/>
      <point x="589" y="-21" type="curve" smooth="yes"/>
      <point x="641" y="-21"/>
      <point x="684" y="-15"/>
      <point x="732" y="0" type="curve"/>
      <point x="789" y="0"/>
      <point x="1033" y="-159"/>
      <point x="1104" y="-159" type="curve" smooth="yes"/>
      <point x="1149" y="-159"/>
      <point x="1196" y="-68"/>
      <point x="1216" y="-38" type="curve"/>
      <point x="1104" y="-23"/>
      <point x="1007" y="23"/>
      <point x="903" y="88" type="curve"/>
      <point x="1050" y="197"/>
      <point x="1120" y="400"/>
    </contour>
    <contour>
      <point x="957" y="598" type="curve" smooth="yes"/>
      <point x="957" y="301"/>
      <point x="807" y="125"/>
      <point x="602" y="125" type="curve" smooth="yes"/>
      <point x="385" y="125"/>
      <point x="242" y="318"/>
      <point x="242" y="623" type="curve" smooth="yes"/>
      <point x="242" y="912"/>
      <point x="390" y="1095"/>
      <point x="602" y="1095" type="curve" smooth="yes"/>
      <point x="814" y="1095"/>
      <point x="957" y="906"/>
    </contour>
    <contour>
      <point x="599.0" y="1279.0" type="move" name="U"/>
    </contour>
    <contour>
      <point x="599.0" y="-226.0" type="move" name="L"/>
    </contour>
  </outline>
</glyph>
<glyph name="R" format="1">
  <advance width="1091"/>
  <unicode hex="0052"/>
  <outline>
    <contour>
      <point x="305" y="523" type="line"/>
      <point x="518" y="523" type="line"/>
      <point x="673" y="523"/>
      <point x="911" y="621"/>
      <point x="911" y="886" type="curve" smooth="yes"/>
      <point x="911" y="1128"/>
      <point x="732" y="1229"/>
      <point x="472" y="1229" type="curve" smooth="yes"/>
      <point x="277" y="1229"/>
      <point x="134" y="1221"/>
      <point x="134" y="1221" type="curve"/>
      <point x="146" y="1154"/>
      <point x="146" y="1000"/>
      <point x="146" y="836" type="curve" smooth="yes"/>
      <point x="146" y="364" type="line"/>
      <point x="146" y="199"/>
      <point x="146" y="67"/>
      <point x="134" y="0" type="curve"/>
      <point x="318" y="0" type="line"/>
      <point x="306" y="65"/>
      <point x="305" y="199"/>
      <point x="305" y="364" type="curve"/>
    </contour>
    <contour>
      <point x="305" y="1091" type="line"/>
      <point x="349" y="1093"/>
      <point x="405" y="1095"/>
      <point x="464" y="1095" type="curve" smooth="yes"/>
      <point x="669" y="1095"/>
      <point x="752" y="1017"/>
      <point x="752" y="874" type="curve" smooth="yes"/>
      <point x="752" y="735"/>
      <point x="652" y="652"/>
      <point x="464" y="652" type="curve"/>
      <point x="305" y="652" type="line"/>
    </contour>
    <contour>
      <point x="469" y="531" type="line"/>
      <point x="828" y="0" type="line"/>
      <point x="1041" y="0" type="line"/>
      <point x="985" y="61"/>
      <point x="598" y="594"/>
      <point x="598" y="594" type="curve"/>
    </contour>
    <contour>
      <point x="510" y="1279" type="move" name="U"/>
    </contour>
    <contour>
      <point x="510" y="-84" type="move" name="L"/>
    </contour>
    <contour>
      <point x="238" y="0" type="move" name="H"/>
    </contour>
  </outline>
</glyph>
<glyph name="LtnCapT" format="1">
  <advance width="1058"/>
  <unicode hex="0054"/>
  <outline>
    <contour>
      <point x="38" y="1221" type="line"/>
      <point x="38" y="1066" type="line"/>
      <point x="105" y="1080"/>
      <point x="168" y="1083"/>
      <point x="242" y="1083" type="curve" smooth="yes"/>
      <point x="439" y="1083" type="line"/>
      <point x="439" y="364" type="line" smooth="yes"/>
      <point x="439" y="199"/>
      <point x="436" y="67"/>
      <point x="422" y="0" type="curve"/>
      <point x="614" y="0" type="line"/>
      <point x="600" y="67"/>
      <point x="598" y="199"/>
      <point x="598" y="364" type="curve" smooth="yes"/>
      <point x="598" y="1083" type="line"/>
      <point x="798" y="1083" type="line" smooth="yes"/>
      <point x="874" y="1083"/>
      <point x="936" y="1080"/>
      <point x="1003" y="1066" type="curve"/>
      <point x="1003" y="1221" type="line"/>
    </contour>
    <contour>
      <point x="520.0" y="1279.0" type="move" name="U"/>
    </contour>
    <contour>
      <point x="520.0" y="-84.0" type="move" name="L"/>
    </contour>
    <contour>
      <point x="520.0" y="0.0" type="move" name="H"/>
    </contour>
  </outline>
</glyph>
<glyph name="LtnCapU" format="1">
  <advance width="1204"/>
  <unicode hex="0055"/>
  <outline>
    <contour>
      <point x="878" y="1221" type="line"/>
      <point x="878" y="468" type="line" smooth="yes"/>
      <point x="878" y="250"/>
      <point x="809" y="113"/>
      <point x="594" y="113" type="curve" smooth="yes"/>
      <point x="374" y="113"/>
      <point x="305" y="250"/>
      <point x="305" y="468" type="curve" smooth="yes"/>
      <point x="305" y="1221" type="line"/>
      <point x="134" y="1221" type="line"/>
      <point x="145" y="1154"/>
      <point x="146" y="1022"/>
      <point x="146" y="857" type="curve" smooth="yes"/>
      <point x="146" y="431" type="line"/>
      <point x="146" y="159"/>
      <point x="288" y="-21"/>
      <point x="594" y="-21" type="curve" smooth="yes"/>
      <point x="895" y="-21"/>
      <point x="1037" y="159"/>
      <point x="1037" y="431" type="curve"/>
      <point x="1037" y="857" type="line" smooth="yes"/>
      <point x="1037" y="1030"/>
      <point x="1038" y="1154"/>
      <point x="1049" y="1221" type="curve"/>
    </contour>
    <contour>
      <point x="591.0" y="1279.0" type="move" name="U"/>
    </contour>
    <contour>
      <point x="591.0" y="-84.0" type="move" name="L"/>
    </contour>
    <contour>
      <point x="1170.0" y="1003.0" type="move" name="R"/>
    </contour>
    <contour>
      <point x="858.0" y="0.0" type="move" name="O"/>
    </contour>
    <contour>
      <point x="591.0" y="0.0" type="move" name="H"/>
    </contour>
  </outline>
</glyph>
<glyph name="U" format="1">
  <advance width="1204"/>
  <unicode hex="0055"/>
  <outline>
    <contour>
      <point x="878" y="1221" type="line"/>
      <point x="878" y="468" type="line" smooth="yes"/>
      <point x="878" y="250"/>
      <point x="809" y="113"/>
      <point x="594" y="113" type="curve" smooth="yes"/>
      <point x="374" y="113"/>
      <point x="305" y="250"/>
      <point x="305" y="468" type="curve" smooth="yes"/>
      <point x="305" y="1221" type="line"/>
      <point x="134" y="1221" type="line"/>
      <point x="145" y="1154"/>
      <point x="146" y="1022"/>
      <point x="146" y="857" type="curve" smooth="yes"/>
      <point x="146" y="431" type="line"/>
      <point x="146" y="159"/>
      <point x="288" y="-21"/>
      <point x="594" y="-21" type="curve" smooth="yes"/>
      <point x="895" y="-21"/>
      <point x="1037" y="159"/>
      <point x="1037" y="431" type="curve"/>
      <point x="1037" y="857" type="line" smooth="yes"/>
      <point x="1037" y="1030"/>
      <point x="1038" y="1154"/>
      <point x="1049" y="1221" type="curve"/>
    </contour>
    <contour>
      <point x="858" y="0" type="move" name="O"/>
    </contour>
    <contour>
      <point x="591" y="0" type="move" name="H"/>
    </contour>
    <contour>
      <point x="1170" y="1003" type="move" name="R"/>
    </contour>
    <contour>
      <point x="591" y="1279" type="move" name="U"/>
    </contour>
    <contour>
      <point x="591" y="-84" type="move" name="L"/>
    </contour>
  </outline>
</glyph>
<glyph name="V" format="1">
  <advance width="1141"/>
  <unicode hex="0056"/>
  <outline>
    <contour>
      <point x="915" y="1221" type="line"/>
      <point x="562" y="163" type="line"/>
      <point x="209" y="1221" type="line"/>
      <point x="29" y="1221" type="line"/>
      <point x="57" y="1152"/>
      <point x="84" y="1077"/>
      <point x="142" y="915" type="curve" smooth="yes"/>
      <point x="468" y="0" type="line"/>
      <point x="656" y="0" type="line"/>
      <point x="978" y="915" type="line" smooth="yes"/>
      <point x="1035" y="1078"/>
      <point x="1065" y="1152"/>
      <point x="1095" y="1221" type="curve"/>
    </contour>
    <contour>
      <point x="736" y="0" type="move" name="O"/>
    </contour>
    <contour>
      <point x="568" y="0" type="move" name="H"/>
    </contour>
    <contour>
      <point x="562" y="1279" type="move" name="U"/>
    </contour>
    <contour>
      <point x="562" y="-84" type="move" name="L"/>
    </contour>
  </outline>
</glyph>
<glyph name="W" format="1">
  <advance width="1739"/>
  <unicode hex="0057"/>
  <outline>
    <contour>
      <point x="1237" y="0" type="line"/>
      <point x="1333" y="0" type="line"/>
      <point x="1588" y="915" type="line" smooth="yes"/>
      <point x="1634" y="1078"/>
      <point x="1658" y="1152"/>
      <point x="1685" y="1221" type="curve"/>
      <point x="1501" y="1221" type="line"/>
      <point x="1229" y="109" type="line"/>
    </contour>
    <contour>
      <point x="936" y="1221" type="line"/>
      <point x="782" y="1221" type="line"/>
      <point x="828" y="1091" type="line"/>
      <point x="1145" y="0" type="line"/>
      <point x="1237" y="0" type="line"/>
      <point x="1254" y="109" type="line"/>
    </contour>
    <contour>
      <point x="485" y="0" type="line"/>
      <point x="573" y="0" type="line"/>
      <point x="890" y="1091" type="line"/>
      <point x="936" y="1221" type="line"/>
      <point x="782" y="1221" type="line"/>
      <point x="468" y="109" type="line"/>
    </contour>
    <contour>
      <point x="217" y="1221" type="line"/>
      <point x="33" y="1221" type="line"/>
      <point x="59" y="1155"/>
      <point x="85" y="1075"/>
      <point x="130" y="915" type="curve" smooth="yes"/>
      <point x="385" y="0" type="line"/>
      <point x="485" y="0" type="line"/>
      <point x="493" y="109" type="line"/>
    </contour>
    <contour>
      <point x="859" y="1279" type="move" name="U"/>
    </contour>
    <contour>
      <point x="859" y="-84" type="move" name="L"/>
    </contour>
  </outline>
</glyph>
<glyph name="X" format="1">
  <advance width="1108"/>
  <unicode hex="0058"/>
  <outline>
    <contour>
      <point x="449" y="653" type="line"/>
      <point x="222" y="284" type="line" smooth="yes"/>
      <point x="114" y="110"/>
      <point x="86" y="72"/>
      <point x="33" y="0" type="curve"/>
      <point x="226" y="0" type="line"/>
      <point x="537" y="513" type="line"/>
      <point x="861" y="0" type="line"/>
      <point x="1053" y="0" type="line"/>
      <point x="1002" y="69"/>
      <point x="974" y="106"/>
      <point x="864" y="281" type="curve" smooth="yes"/>
      <point x="636" y="641" type="line"/>
      <point x="813" y="928" type="line" smooth="yes"/>
      <point x="917" y="1098"/>
      <point x="960" y="1156"/>
      <point x="1012" y="1221" type="curve"/>
      <point x="815" y="1221" type="line"/>
      <point x="548" y="781" type="line"/>
      <point x="272" y="1221" type="line"/>
      <point x="75" y="1221" type="line"/>
      <point x="129" y="1150"/>
      <point x="168" y="1099"/>
      <point x="276" y="928" type="curve"/>
    </contour>
    <contour>
      <point x="543" y="1279" type="move" name="U"/>
    </contour>
    <contour>
      <point x="543" y="-84" type="move" name="L"/>
    </contour>
  </outline>
</glyph>
<glyph name="Y" format="1">
  <advance width="1104"/>
  <unicode hex="0059"/>
  <outline>
    <contour>
      <point x="29" y="1221" type="line"/>
      <point x="123" y="1096"/>
      <point x="178" y="1001"/>
      <point x="242" y="890" type="curve" smooth="yes"/>
      <point x="464" y="511" type="line"/>
      <point x="464" y="364" type="line" smooth="yes"/>
      <point x="464" y="199"/>
      <point x="464" y="67"/>
      <point x="451" y="0" type="curve"/>
      <point x="635" y="0" type="line"/>
      <point x="623" y="67"/>
      <point x="623" y="199"/>
      <point x="623" y="364" type="curve" smooth="yes"/>
      <point x="623" y="504" type="line"/>
      <point x="849" y="890" type="line" smooth="yes"/>
      <point x="912" y="999"/>
      <point x="959" y="1079"/>
      <point x="1058" y="1221" type="curve"/>
      <point x="865" y="1221" type="line"/>
      <point x="552" y="668" type="line"/>
      <point x="222" y="1221" type="line"/>
    </contour>
    <contour>
      <point x="543" y="1279" type="move" name="U"/>
    </contour>
    <contour>
      <point x="543" y="-84" type="move" name="L"/>
    </contour>
  </outline>
</glyph>
<glyph name="bracketleft" format="1">
  <advance width="677"/>
  <unicode hex="005B"/>
  <outline>
    <contour>
      <point x="613" y="-355" type="line"/>
      <point x="613" y="-441" type="line"/>
      <point x="245" y="-441" type="line"/>
      <point x="245" y="1533" type="line"/>
      <point x="613" y="1533" type="line"/>
      <point x="613" y="1448" type="line"/>
      <point x="370" y="1448" type="line"/>
      <point x="370" y="-355" type="line"/>
    </contour>
  </outline>
</glyph>
<glyph name="backslash" format="1">
  <advance width="556"/>
  <unicode hex="005C"/>
  <outline>
    <contour>
      <point x="184" y="1453" type="curve" smooth="yes"/>
      <point x="554" y="-5" type="line" smooth="yes"/>
      <point x="557" y="-17"/>
      <point x="542" y="-23"/>
      <point x="509" y="-23" type="curve" smooth="yes"/>
      <point x="476" y="-23"/>
      <point x="458" y="-17"/>
      <point x="455" y="-5" type="curve" smooth="yes"/>
      <point x="81" y="1453" type="line" smooth="yes"/>
      <point x="79" y="1465"/>
      <point x="94" y="1472"/>
      <point x="131" y="1472" type="curve" smooth="yes"/>
      <point x="164" y="1472"/>
      <point x="181" y="1465"/>
    </contour>
  </outline>
</glyph>
<glyph name="bracketright" format="1">
  <advance width="633"/>
  <unicode hex="005D"/>
  <outline>
    <contour>
      <point x="402" y="1433" type="line"/>
      <point x="402" y="-415" type="line"/>
      <point x="60" y="-415" type="line"/>
      <point x="60" y="-332" type="line"/>
      <point x="285" y="-332" type="line"/>
      <point x="285" y="1354" type="line"/>
      <point x="60" y="1354" type="line"/>
      <point x="60" y="1433" type="line"/>
    </contour>
  </outline>
</glyph>
<glyph name="asciicircum" format="1">
  <advance width="1842"/>
  <unicode hex="005E"/>
  <outline>
    <contour>
      <point x="978" y="1124" type="line"/>
      <point x="1402" y="19" type="line"/>
      <point x="1287" y="19" type="line"/>
      <point x="921" y="1006" type="line"/>
      <point x="554" y="19" type="line"/>
      <point x="440" y="19" type="line"/>
      <point x="864" y="1124" type="line"/>
    </contour>
  </outline>
</glyph>
<glyph name="underscore" format="1">
  <advance width="921"/>
  <unicode hex="005F"/>
  <outline>
    <contour>
      <point x="921" y="-148" type="line"/>
      <point x="921" y="-216" type="line"/>
      <point x="0" y="-216" type="line"/>
      <point x="0" y="-148" type="line"/>
    </contour>
  </outline>
</glyph>
<glyph name="a" format="1">
  <advance width="936"/>
  <unicode hex="0061"/>
  <outline>
    <contour>
      <point x="794" y="635" type="line"/>
      <point x="794" y="768"/>
      <point x="669" y="869"/>
      <point x="477" y="869" type="curve" smooth="yes"/>
      <point x="349" y="869"/>
      <point x="262" y="831"/>
      <point x="176" y="794" type="curve"/>
      <point x="171" y="758"/>
      <point x="168" y="668"/>
      <point x="167" y="631" type="curve"/>
      <point x="265" y="700"/>
      <point x="350" y="736"/>
      <point x="439" y="736" type="curve" smooth="yes"/>
      <point x="564" y="736"/>
      <point x="640" y="695"/>
      <point x="640" y="594" type="curve" smooth="yes"/>
      <point x="640" y="531" type="line"/>
      <point x="605" y="528"/>
      <point x="472" y="516"/>
      <point x="414" y="510" type="curve" smooth="yes"/>
      <point x="155" y="485"/>
      <point x="79" y="340"/>
      <point x="79" y="213" type="curve" smooth="yes"/>
      <point x="79" y="89"/>
      <point x="194" y="-21"/>
      <point x="351" y="-21" type="curve" smooth="yes"/>
      <point x="455" y="-21"/>
      <point x="566" y="24"/>
      <point x="665" y="130" type="curve"/>
      <point x="676" y="76"/>
      <point x="696" y="27"/>
      <point x="706" y="0" type="curve"/>
      <point x="857" y="0" type="line"/>
      <point x="820" y="94"/>
      <point x="794" y="189"/>
      <point x="794" y="309" type="curve"/>
    </contour>
    <contour>
      <point x="640" y="272" type="line"/>
      <point x="538" y="137"/>
      <point x="461" y="117"/>
      <point x="376" y="117" type="curve" smooth="yes"/>
      <point x="284" y="117"/>
      <point x="230" y="160"/>
      <point x="230" y="234" type="curve" smooth="yes"/>
      <point x="230" y="311"/>
      <point x="280" y="376"/>
      <point x="422" y="393" type="curve" smooth="yes"/>
      <point x="475" y="400"/>
      <point x="598" y="412"/>
      <point x="640" y="414" type="curve"/>
    </contour>
    <contour>
      <point x="941" y="0" type="move" name="O"/>
    </contour>
    <contour>
      <point x="451" y="0" type="move" name="H"/>
    </contour>
    <contour>
      <point x="936" y="836" type="move" name="R"/>
    </contour>
    <contour>
      <point x="451" y="920" type="move" name="U"/>
    </contour>
    <contour>
      <point x="451" y="-84" type="move" name="L"/>
    </contour>
  </outline>
</glyph>
<glyph name="c" format="1">
  <advance width="853"/>
  <unicode hex="0063"/>
  <outline>
    <contour>
      <point x="757" y="217" type="line"/>
      <point x="684" y="153"/>
      <point x="602" y="117"/>
      <point x="502" y="117" type="curve" smooth="yes"/>
      <point x="339" y="117"/>
      <point x="238" y="238"/>
      <point x="238" y="418" type="curve" smooth="yes"/>
      <point x="238" y="615"/>
      <point x="353" y="732"/>
      <point x="502" y="732" type="curve" smooth="yes"/>
      <point x="588" y="732"/>
      <point x="660" y="703"/>
      <point x="736" y="648" type="curve"/>
      <point x="765" y="798" type="line"/>
      <point x="704" y="840"/>
      <point x="625" y="869"/>
      <point x="514" y="869" type="curve" smooth="yes"/>
      <point x="248" y="869"/>
      <point x="79" y="662"/>
      <point x="79" y="410" type="curve" smooth="yes"/>
      <point x="79" y="143"/>
      <point x="261" y="-21"/>
      <point x="485" y="-21" type="curve" smooth="yes"/>
      <point x="610" y="-21"/>
      <point x="689" y="8"/>
      <point x="773" y="71" type="curve"/>
    </contour>
    <contour>
      <point x="485" y="0" type="move" name="H"/>
    </contour>
    <contour>
      <point x="853" y="836" type="move" name="R"/>
    </contour>
    <contour>
      <point x="477" y="920" type="move" name="U"/>
    </contour>
    <contour>
      <point x="485" y="-84" type="move" name="L"/>
    </contour>
  </outline>
</glyph>
<glyph name="d" format="1">
  <advance width="995"/>
  <unicode hex="0064"/>
  <outline>
    <contour>
      <point x="861" y="1338" type="line"/>
      <point x="686" y="1338" type="line"/>
      <point x="701" y="1267"/>
      <point x="706" y="1166"/>
      <point x="706" y="1032" type="curve"/>
      <point x="706" y="798" type="line"/>
      <point x="641" y="835"/>
      <point x="556" y="869"/>
      <point x="485" y="869" type="curve" smooth="yes"/>
      <point x="261" y="869"/>
      <point x="88" y="681"/>
      <point x="88" y="385" type="curve" smooth="yes"/>
      <point x="88" y="140"/>
      <point x="218" y="-21"/>
      <point x="422" y="-21" type="curve" smooth="yes"/>
      <point x="545" y="-21"/>
      <point x="648" y="42"/>
      <point x="727" y="155" type="curve"/>
      <point x="742" y="93"/>
      <point x="761" y="28"/>
      <point x="773" y="0" type="curve"/>
      <point x="924" y="0" type="line"/>
      <point x="888" y="94"/>
      <point x="861" y="232"/>
      <point x="861" y="443" type="curve"/>
    </contour>
    <contour>
      <point x="706" y="334" type="line"/>
      <point x="660" y="224"/>
      <point x="553" y="113"/>
      <point x="451" y="113" type="curve" smooth="yes"/>
      <point x="306" y="113"/>
      <point x="242" y="216"/>
      <point x="242" y="410" type="curve" smooth="yes"/>
      <point x="242" y="608"/>
      <point x="359" y="727"/>
      <point x="485" y="727" type="curve" smooth="yes"/>
      <point x="569" y="727"/>
      <point x="624" y="709"/>
      <point x="706" y="665" type="curve"/>
    </contour>
    <contour>
      <point x="506" y="0" type="move" name="H"/>
    </contour>
    <contour>
      <point x="995" y="836" type="move" name="R"/>
    </contour>
    <contour>
      <point x="506" y="1367" type="move" name="U"/>
    </contour>
    <contour>
      <point x="506" y="-84" type="move" name="L"/>
    </contour>
  </outline>
</glyph>
<glyph name="LtnSmE" format="1">
  <advance width="915"/>
  <unicode hex="0065"/>
  <outline>
    <contour>
      <point x="827" y="405" type="line"/>
      <point x="828" y="421"/>
      <point x="828" y="456"/>
      <point x="828" y="471" type="curve" smooth="yes"/>
      <point x="828" y="659"/>
      <point x="757" y="869"/>
      <point x="481" y="869" type="curve" smooth="yes"/>
      <point x="233" y="869"/>
      <point x="79" y="691"/>
      <point x="79" y="414" type="curve" smooth="yes"/>
      <point x="79" y="130"/>
      <point x="268" y="-21"/>
      <point x="481" y="-21" type="curve" smooth="yes"/>
      <point x="609" y="-21"/>
      <point x="713" y="2"/>
      <point x="832" y="63" type="curve"/>
      <point x="815" y="201" type="line"/>
      <point x="713" y="139"/>
      <point x="609" y="117"/>
      <point x="502" y="117" type="curve" smooth="yes"/>
      <point x="346" y="117"/>
      <point x="234" y="216"/>
      <point x="234" y="422" type="curve" smooth="yes"/>
      <point x="234" y="644"/>
      <point x="322" y="744"/>
      <point x="468" y="744" type="curve" smooth="yes"/>
      <point x="589" y="744"/>
      <point x="677" y="666"/>
      <point x="677" y="523" type="curve"/>
      <point x="205" y="523" type="line"/>
      <point x="205" y="405" type="line"/>
    </contour>
    <contour>
      <point x="476.0" y="920.0" type="move" name="U"/>
    </contour>
    <contour>
      <point x="476.0" y="-84.0" type="move" name="L"/>
    </contour>
    <contour>
      <point x="915.0" y="836.0" type="move" name="R"/>
    </contour>
    <contour>
      <point x="773.0" y="0.0" type="move" name="O"/>
    </contour>
    <contour>
      <point x="456.0" y="0.0" type="move" name="H"/>
    </contour>
  </outline>
</glyph>
<glyph name="f" format="1">
  <advance width="627"/>
  <unicode hex="0066"/>
  <outline>
    <contour>
      <point x="33" y="711" type="line"/>
      <point x="201" y="711" type="line"/>
      <point x="201" y="0" type="line"/>
      <point x="380" y="0" type="line"/>
      <point x="362" y="88"/>
      <point x="355" y="251"/>
      <point x="355" y="413" type="curve" smooth="yes"/>
      <point x="355" y="711" type="line"/>
      <point x="581" y="711" type="line"/>
      <point x="581" y="832" type="line"/>
      <point x="355" y="832" type="line"/>
      <point x="355" y="1012" type="line" smooth="yes"/>
      <point x="355" y="1155"/>
      <point x="402" y="1212"/>
      <point x="489" y="1212" type="curve" smooth="yes"/>
      <point x="538" y="1212"/>
      <point x="594" y="1193"/>
      <point x="635" y="1162" type="curve"/>
      <point x="673" y="1296" type="line"/>
      <point x="621" y="1333"/>
      <point x="554" y="1354"/>
      <point x="489" y="1354" type="curve" smooth="yes"/>
      <point x="308" y="1354"/>
      <point x="201" y="1229"/>
      <point x="201" y="978" type="curve" smooth="yes"/>
      <point x="201" y="832" type="line"/>
      <point x="33" y="832" type="line"/>
    </contour>
    <contour>
      <point x="468" y="1367" type="move" name="U"/>
    </contour>
    <contour>
      <point x="280" y="-84" type="move" name="L"/>
    </contour>
    <contour>
      <point x="309" y="0" type="move" name="H"/>
    </contour>
  </outline>
</glyph>
<glyph name="LtnSmH" format="1">
  <advance width="982"/>
  <unicode hex="0068"/>
  <outline>
    <contour>
      <point x="869" y="0" type="line"/>
      <point x="869" y="0"/>
      <point x="869" y="384"/>
      <point x="869" y="523" type="curve" smooth="yes"/>
      <point x="869" y="752"/>
      <point x="772" y="869"/>
      <point x="594" y="869" type="curve" smooth="yes"/>
      <point x="477" y="869"/>
      <point x="358" y="810"/>
      <point x="276" y="694" type="curve"/>
      <point x="276" y="733"/>
      <point x="276" y="1338"/>
      <point x="276" y="1338" type="curve"/>
      <point x="109" y="1338" type="line"/>
      <point x="121" y="1266"/>
      <point x="121" y="1124"/>
      <point x="121" y="945" type="curve" smooth="yes"/>
      <point x="121" y="782"/>
      <point x="121" y="0"/>
      <point x="121" y="0" type="curve"/>
      <point x="276" y="0" type="line"/>
      <point x="276" y="485" type="line"/>
      <point x="313" y="599"/>
      <point x="427" y="723"/>
      <point x="548" y="723" type="curve" smooth="yes"/>
      <point x="660" y="723"/>
      <point x="715" y="669"/>
      <point x="715" y="460" type="curve" smooth="yes"/>
      <point x="715" y="345"/>
      <point x="715" y="0"/>
      <point x="715" y="0" type="curve"/>
    </contour>
    <contour>
      <point x="489.0" y="1367.0" type="move" name="U"/>
    </contour>
    <contour>
      <point x="489.0" y="-84.0" type="move" name="L"/>
    </contour>
    <contour>
      <point x="209.0" y="0.0" type="move" name="H"/>
    </contour>
  </outline>
</glyph>
<glyph name="h" format="1">
  <advance width="982"/>
  <unicode hex="0068"/>
  <outline>
    <contour>
      <point x="869" y="0" type="line"/>
      <point x="869" y="0"/>
      <point x="869" y="384"/>
      <point x="869" y="523" type="curve" smooth="yes"/>
      <point x="869" y="752"/>
      <point x="772" y="869"/>
      <point x="594" y="869" type="curve" smooth="yes"/>
      <point x="477" y="869"/>
      <point x="358" y="810"/>
      <point x="276" y="694" type="curve"/>
      <point x="276" y="733"/>
      <point x="276" y="1338"/>
      <point x="276" y="1338" type="curve"/>
      <point x="109" y="1338" type="line"/>
      <point x="121" y="1266"/>
      <point x="121" y="1124"/>
      <point x="121" y="945" type="curve" smooth="yes"/>
      <point x="121" y="782"/>
      <point x="121" y="0"/>
      <point x="121" y="0" type="curve"/>
      <point x="276" y="0" type="line"/>
      <point x="276" y="485" type="line"/>
      <point x="313" y="599"/>
      <point x="427" y="723"/>
      <point x="548" y="723" type="curve" smooth="yes"/>
      <point x="660" y="723"/>
      <point x="715" y="669"/>
      <point x="715" y="460" type="curve" smooth="yes"/>
      <point x="715" y="345"/>
      <point x="715" y="0"/>
      <point x="715" y="0" type="curve"/>
    </contour>
    <contour>
      <point x="489" y="1367" type="move" name="U"/>
    </contour>
    <contour>
      <point x="489" y="-84" type="move" name="L"/>
    </contour>
    <contour>
      <point x="209" y="0" type="move" name="H"/>
    </contour>
  </outline>
</glyph>
<glyph name="LtnSmI" format="1">
  <advance width="472"/>
  <unicode hex="0069"/>
  <outline>
    <contour>
      <point x="314" y="853" type="line"/>
      <point x="146" y="853" type="line"/>
      <point x="157" y="765"/>
      <point x="159" y="606"/>
      <point x="159" y="443" type="curve" smooth="yes"/>
      <point x="159" y="281"/>
      <point x="159" y="0"/>
      <point x="159" y="0" type="curve"/>
      <point x="330" y="0" type="line"/>
      <point x="319" y="89"/>
      <point x="314" y="289"/>
      <point x="314" y="397" type="curve" smooth="yes"/>
    </contour>
    <contour>
      <point x="130" y="1124" type="curve" smooth="yes"/>
      <point x="130" y="1063"/>
      <point x="172" y="1012"/>
      <point x="234" y="1012" type="curve" smooth="yes"/>
      <point x="297" y="1012"/>
      <point x="343" y="1063"/>
      <point x="343" y="1124" type="curve" smooth="yes"/>
      <point x="343" y="1186"/>
      <point x="297" y="1237"/>
      <point x="234" y="1237" type="curve" smooth="yes"/>
      <point x="172" y="1237"/>
      <point x="130" y="1186"/>
    </contour>
    <contour>
      <point x="236.0" y="920.0" type="move" name="U"/>
    </contour>
    <contour>
      <point x="238.0" y="-84.0" type="move" name="L"/>
    </contour>
    <contour>
      <point x="464.0" y="836.0" type="move" name="R"/>
    </contour>
    <contour>
      <point x="418.0" y="0.0" type="move" name="O"/>
    </contour>
    <contour>
      <point x="236.0" y="0.0" type="move" name="H"/>
    </contour>
  </outline>
</glyph>
<glyph name="j" format="1">
  <advance width="497"/>
  <unicode hex="006A"/>
  <outline>
    <contour>
      <point x="339" y="853" type="line"/>
      <point x="171" y="853" type="line"/>
      <point x="182" y="765"/>
      <point x="184" y="606"/>
      <point x="184" y="443" type="curve"/>
      <point x="184" y="-21" type="line"/>
      <point x="184" y="-186"/>
      <point x="123" y="-251"/>
      <point x="33" y="-251" type="curve" smooth="yes"/>
      <point x="-13" y="-251"/>
      <point x="-93" y="-228"/>
      <point x="-130" y="-201" type="curve"/>
      <point x="-159" y="-339" type="line"/>
      <point x="-109" y="-373"/>
      <point x="-22" y="-393"/>
      <point x="25" y="-393" type="curve" smooth="yes"/>
      <point x="216" y="-393"/>
      <point x="339" y="-291"/>
      <point x="339" y="21" type="curve" smooth="yes"/>
    </contour>
    <contour>
      <point x="155" y="1124" type="curve" smooth="yes"/>
      <point x="155" y="1063"/>
      <point x="197" y="1012"/>
      <point x="259" y="1012" type="curve" smooth="yes"/>
      <point x="322" y="1012"/>
      <point x="368" y="1063"/>
      <point x="368" y="1124" type="curve" smooth="yes"/>
      <point x="368" y="1186"/>
      <point x="322" y="1237"/>
      <point x="259" y="1237" type="curve" smooth="yes"/>
      <point x="197" y="1237"/>
      <point x="155" y="1186"/>
    </contour>
    <contour>
      <point x="105" y="-418" type="move" name="L"/>
    </contour>
    <contour>
      <point x="262" y="920" type="move" name="U"/>
    </contour>
  </outline>
</glyph>
<glyph name="LtnSmK" format="1">
  <advance width="865"/>
  <unicode hex="006B"/>
  <outline>
    <contour>
      <point x="276" y="0" type="line"/>
      <point x="276" y="1338" type="line"/>
      <point x="109" y="1338" type="line"/>
      <point x="121" y="1266"/>
      <point x="121" y="1124"/>
      <point x="121" y="945" type="curve" smooth="yes"/>
      <point x="121" y="781"/>
      <point x="121" y="0"/>
      <point x="121" y="0" type="curve"/>
    </contour>
    <contour>
      <point x="614" y="853" type="line"/>
      <point x="234" y="460" type="line"/>
      <point x="364" y="438" type="line"/>
      <point x="823" y="853" type="line"/>
    </contour>
    <contour>
      <point x="255" y="460" type="line"/>
      <point x="644" y="0" type="line"/>
      <point x="849" y="0" type="line"/>
      <point x="343" y="552" type="line"/>
    </contour>
    <contour>
      <point x="478.0" y="1367.0" type="move" name="U"/>
    </contour>
    <contour>
      <point x="478.0" y="-84.0" type="move" name="L"/>
    </contour>
    <contour>
      <point x="865.0" y="836.0" type="move" name="R"/>
    </contour>
    <contour>
      <point x="203.0" y="0.0" type="move" name="H"/>
    </contour>
  </outline>
</glyph>
<glyph name="k" format="1">
  <advance width="865"/>
  <unicode hex="006B"/>
  <outline>
    <contour>
      <point x="276" y="0" type="line"/>
      <point x="276" y="1338" type="line"/>
      <point x="109" y="1338" type="line"/>
      <point x="121" y="1266"/>
      <point x="121" y="1124"/>
      <point x="121" y="945" type="curve" smooth="yes"/>
      <point x="121" y="781"/>
      <point x="121" y="0"/>
      <point x="121" y="0" type="curve"/>
    </contour>
    <contour>
      <point x="614" y="853" type="line"/>
      <point x="234" y="460" type="line"/>
      <point x="364" y="438" type="line"/>
      <point x="823" y="853" type="line"/>
    </contour>
    <contour>
      <point x="255" y="460" type="line"/>
      <point x="644" y="0" type="line"/>
      <point x="849" y="0" type="line"/>
      <point x="343" y="552" type="line"/>
    </contour>
    <contour>
      <point x="203" y="0" type="move" name="H"/>
    </contour>
    <contour>
      <point x="865" y="836" type="move" name="R"/>
    </contour>
    <contour>
      <point x="478" y="1367" type="move" name="U"/>
    </contour>
    <contour>
      <point x="478" y="-84" type="move" name="L"/>
    </contour>
  </outline>
</glyph>
<glyph name="LtnSmL" format="1">
  <advance width="472"/>
  <unicode hex="006C"/>
  <outline>
    <contour>
      <point x="314" y="1338" type="line"/>
      <point x="142" y="1338" type="line"/>
      <point x="153" y="1241"/>
      <point x="159" y="1107"/>
      <point x="159" y="945" type="curve"/>
      <point x="159" y="0" type="line"/>
      <point x="330" y="0" type="line"/>
      <point x="319" y="91"/>
      <point x="314" y="289"/>
      <point x="314" y="397" type="curve" smooth="yes"/>
    </contour>
    <contour>
      <point x="236.0" y="1367.0" type="move" name="U"/>
    </contour>
    <contour>
      <point x="242.0" y="-84.0" type="move" name="L"/>
    </contour>
    <contour>
      <point x="460.0" y="836.0" type="move" name="R"/>
    </contour>
    <contour>
      <point x="242.0" y="0.0" type="move" name="H"/>
    </contour>
  </outline>
</glyph>
<glyph name="LtnSmM" format="1">
  <advance width="1409"/>
  <unicode hex="006D"/>
  <outline>
    <contour>
      <point x="790" y="552" type="line"/>
      <point x="839" y="656"/>
      <point x="921" y="723"/>
      <point x="1003" y="723" type="curve" smooth="yes"/>
      <point x="1097" y="723"/>
      <point x="1124" y="675"/>
      <point x="1124" y="460" type="curve" smooth="yes"/>
      <point x="1124" y="0" type="line"/>
      <point x="1279" y="0" type="line"/>
      <point x="1279" y="552" type="line" smooth="yes"/>
      <point x="1279" y="758"/>
      <point x="1223" y="869"/>
      <point x="1053" y="869" type="curve" smooth="yes"/>
      <point x="966" y="869"/>
      <point x="874" y="842"/>
      <point x="770" y="729" type="curve"/>
      <point x="742" y="803"/>
      <point x="674" y="869"/>
      <point x="564" y="869" type="curve" smooth="yes"/>
      <point x="468" y="869"/>
      <point x="384" y="841"/>
      <point x="282" y="723" type="curve"/>
      <point x="276" y="763"/>
      <point x="268" y="818"/>
      <point x="255" y="853" type="curve"/>
      <point x="105" y="853" type="line"/>
      <point x="122" y="795"/>
      <point x="146" y="678"/>
      <point x="146" y="514" type="curve" smooth="yes"/>
      <point x="146" y="0" type="line"/>
      <point x="301" y="0" type="line"/>
      <point x="301" y="552" type="line"/>
      <point x="345" y="652"/>
      <point x="432" y="723"/>
      <point x="514" y="723" type="curve" smooth="yes"/>
      <point x="608" y="723"/>
      <point x="635" y="684"/>
      <point x="635" y="477" type="curve" smooth="yes"/>
      <point x="635" y="0" type="line"/>
      <point x="790" y="0" type="line"/>
    </contour>
    <contour>
      <point x="723.0" y="920.0" type="move" name="U"/>
    </contour>
    <contour>
      <point x="723.0" y="-84.0" type="move" name="L"/>
    </contour>
    <contour>
      <point x="1212.0" y="0.0" type="move" name="H"/>
    </contour>
  </outline>
</glyph>
<glyph name="LtnSmN" format="1">
  <advance width="991"/>
  <unicode hex="006E"/>
  <outline>
    <contour>
      <point x="878" y="0" type="line"/>
      <point x="878" y="0"/>
      <point x="878" y="384"/>
      <point x="878" y="523" type="curve" smooth="yes"/>
      <point x="878" y="752"/>
      <point x="780" y="869"/>
      <point x="602" y="869" type="curve" smooth="yes"/>
      <point x="484" y="869"/>
      <point x="378" y="817"/>
      <point x="272" y="690" type="curve"/>
      <point x="266" y="730"/>
      <point x="251" y="818"/>
      <point x="238" y="853" type="curve"/>
      <point x="88" y="853" type="line"/>
      <point x="106" y="795"/>
      <point x="130" y="678"/>
      <point x="130" y="514" type="curve" smooth="yes"/>
      <point x="130" y="351"/>
      <point x="130" y="0"/>
      <point x="130" y="0" type="curve"/>
      <point x="284" y="0" type="line"/>
      <point x="284" y="485" type="line"/>
      <point x="321" y="599"/>
      <point x="436" y="723"/>
      <point x="556" y="723" type="curve" smooth="yes"/>
      <point x="669" y="723"/>
      <point x="723" y="669"/>
      <point x="723" y="460" type="curve" smooth="yes"/>
      <point x="723" y="345"/>
      <point x="723" y="0"/>
      <point x="723" y="0" type="curve"/>
    </contour>
    <contour>
      <point x="502.0" y="920.0" type="move" name="U"/>
    </contour>
    <contour>
      <point x="502.0" y="-84.0" type="move" name="L"/>
    </contour>
    <contour>
      <point x="811.0" y="0.0" type="move" name="H"/>
    </contour>
  </outline>
</glyph>
<glyph name="LtnSmP" format="1">
  <advance width="978"/>
  <unicode hex="0070"/>
  <outline>
    <contour>
      <point x="88" y="853" type="line"/>
      <point x="125" y="758"/>
      <point x="130" y="614"/>
      <point x="130" y="405" type="curve" smooth="yes"/>
      <point x="130" y="243"/>
      <point x="130" y="-410"/>
      <point x="130" y="-410" type="curve"/>
      <point x="305" y="-410" type="line"/>
      <point x="291" y="-339"/>
      <point x="284" y="-259"/>
      <point x="284" y="-125" type="curve"/>
      <point x="284" y="71" type="line"/>
      <point x="364" y="15"/>
      <point x="429" y="-21"/>
      <point x="518" y="-21" type="curve" smooth="yes"/>
      <point x="728" y="-21"/>
      <point x="899" y="161"/>
      <point x="899" y="447" type="curve" smooth="yes"/>
      <point x="899" y="692"/>
      <point x="772" y="869"/>
      <point x="581" y="869" type="curve" smooth="yes"/>
      <point x="457" y="869"/>
      <point x="350" y="798"/>
      <point x="272" y="694" type="curve"/>
      <point x="264" y="771"/>
      <point x="251" y="824"/>
      <point x="238" y="853" type="curve"/>
    </contour>
    <contour>
      <point x="284" y="481" type="line"/>
      <point x="346" y="642"/>
      <point x="456" y="727"/>
      <point x="552" y="727" type="curve" smooth="yes"/>
      <point x="672" y="727"/>
      <point x="744" y="608"/>
      <point x="744" y="422" type="curve" smooth="yes"/>
      <point x="744" y="233"/>
      <point x="636" y="117"/>
      <point x="518" y="117" type="curve" smooth="yes"/>
      <point x="441" y="117"/>
      <point x="399" y="137"/>
      <point x="284" y="217" type="curve"/>
    </contour>
    <contour>
      <point x="493.0" y="920.0" type="move" name="U"/>
    </contour>
    <contour>
      <point x="493.0" y="-418.0" type="move" name="L"/>
    </contour>
    <contour>
      <point x="978.0" y="836.0" type="move" name="R"/>
    </contour>
    <contour>
      <point x="222.0" y="-364.0" type="move" name="H"/>
    </contour>
  </outline>
</glyph>
<glyph name="LtnSmQ" format="1">
  <advance width="945"/>
  <unicode hex="0071"/>
  <outline>
    <contour>
      <point x="665" y="-410" type="line"/>
      <point x="840" y="-410" type="line"/>
      <point x="826" y="-339"/>
      <point x="819" y="-259"/>
      <point x="819" y="-125" type="curve" smooth="yes"/>
      <point x="819" y="-22"/>
      <point x="819" y="807"/>
      <point x="819" y="807" type="curve"/>
      <point x="729" y="837"/>
      <point x="624" y="869"/>
      <point x="523" y="869" type="curve" smooth="yes"/>
      <point x="217" y="869"/>
      <point x="88" y="620"/>
      <point x="88" y="364" type="curve" smooth="yes"/>
      <point x="88" y="98"/>
      <point x="268" y="-21"/>
      <point x="422" y="-21" type="curve" smooth="yes"/>
      <point x="500" y="-21"/>
      <point x="578" y="16"/>
      <point x="665" y="117" type="curve"/>
    </contour>
    <contour>
      <point x="665" y="305" type="line"/>
      <point x="596" y="183"/>
      <point x="512" y="121"/>
      <point x="435" y="121" type="curve" smooth="yes"/>
      <point x="344" y="121"/>
      <point x="242" y="198"/>
      <point x="242" y="405" type="curve" smooth="yes"/>
      <point x="242" y="563"/>
      <point x="314" y="727"/>
      <point x="497" y="727" type="curve" smooth="yes"/>
      <point x="548" y="727"/>
      <point x="614" y="713"/>
      <point x="665" y="694" type="curve"/>
    </contour>
    <contour>
      <point x="464.0" y="920.0" type="move" name="U"/>
    </contour>
    <contour>
      <point x="464.0" y="-418.0" type="move" name="L"/>
    </contour>
    <contour>
      <point x="945.0" y="836.0" type="move" name="R"/>
    </contour>
  </outline>
</glyph>
<glyph name="q" format="1">
  <advance width="945"/>
  <unicode hex="0071"/>
  <outline>
    <contour>
      <point x="665" y="-410" type="line"/>
      <point x="840" y="-410" type="line"/>
      <point x="826" y="-339"/>
      <point x="819" y="-259"/>
      <point x="819" y="-125" type="curve" smooth="yes"/>
      <point x="819" y="-22"/>
      <point x="819" y="807"/>
      <point x="819" y="807" type="curve"/>
      <point x="729" y="837"/>
      <point x="624" y="869"/>
      <point x="523" y="869" type="curve" smooth="yes"/>
      <point x="217" y="869"/>
      <point x="88" y="620"/>
      <point x="88" y="364" type="curve" smooth="yes"/>
      <point x="88" y="98"/>
      <point x="268" y="-21"/>
      <point x="422" y="-21" type="curve" smooth="yes"/>
      <point x="500" y="-21"/>
      <point x="578" y="16"/>
      <point x="665" y="117" type="curve"/>
    </contour>
    <contour>
      <point x="665" y="305" type="line"/>
      <point x="596" y="183"/>
      <point x="512" y="121"/>
      <point x="435" y="121" type="curve" smooth="yes"/>
      <point x="344" y="121"/>
      <point x="242" y="198"/>
      <point x="242" y="405" type="curve" smooth="yes"/>
      <point x="242" y="563"/>
      <point x="314" y="727"/>
      <point x="497" y="727" type="curve" smooth="yes"/>
      <point x="548" y="727"/>
      <point x="614" y="713"/>
      <point x="665" y="694" type="curve"/>
    </contour>
    <contour>
      <point x="464" y="920" type="move" name="U"/>
    </contour>
    <contour>
      <point x="464" y="-418" type="move" name="L"/>
    </contour>
    <contour>
      <point x="945" y="836" type="move" name="R"/>
    </contour>
  </outline>
</glyph>
<glyph name="LtnSmR" format="1">
  <advance width="744"/>
  <unicode hex="0072"/>
  <outline>
    <contour>
      <point x="284" y="0" type="line"/>
      <point x="284" y="485" type="line"/>
      <point x="321" y="599"/>
      <point x="436" y="719"/>
      <point x="506" y="719" type="curve" smooth="yes"/>
      <point x="572" y="719"/>
      <point x="602" y="644"/>
      <point x="602" y="560" type="curve"/>
      <point x="736" y="589" type="line"/>
      <point x="736" y="736"/>
      <point x="683" y="869"/>
      <point x="543" y="869" type="curve" smooth="yes"/>
      <point x="467" y="869"/>
      <point x="353" y="806"/>
      <point x="272" y="690" type="curve"/>
      <point x="266" y="730"/>
      <point x="251" y="818"/>
      <point x="238" y="853" type="curve"/>
      <point x="88" y="853" type="line"/>
      <point x="106" y="795"/>
      <point x="130" y="678"/>
      <point x="130" y="514" type="curve" smooth="yes"/>
      <point x="130" y="0" type="line"/>
    </contour>
    <contour>
      <point x="380.0" y="920.0" type="move" name="U"/>
    </contour>
    <contour>
      <point x="213.0" y="-84.0" type="move" name="L"/>
    </contour>
    <contour>
      <point x="226.0" y="0.0" type="move" name="H"/>
    </contour>
  </outline>
</glyph>
<glyph name="t" format="1">
  <advance width="698"/>
  <unicode hex="0074"/>
  <outline>
    <contour>
      <point x="635" y="180" type="line"/>
      <point x="562" y="139"/>
      <point x="502" y="117"/>
      <point x="454" y="117" type="curve" smooth="yes"/>
      <point x="379" y="117"/>
      <point x="347" y="154"/>
      <point x="347" y="326" type="curve" smooth="yes"/>
      <point x="347" y="441"/>
      <point x="347" y="1104"/>
      <point x="347" y="1104" type="curve"/>
      <point x="192" y="1104" type="line"/>
      <point x="192" y="1104"/>
      <point x="192" y="364"/>
      <point x="192" y="226" type="curve" smooth="yes"/>
      <point x="192" y="33"/>
      <point x="298" y="-21"/>
      <point x="428" y="-21" type="curve" smooth="yes"/>
      <point x="487" y="-21"/>
      <point x="558" y="-3"/>
      <point x="635" y="46" type="curve"/>
    </contour>
    <contour>
      <point x="25" y="711" type="line"/>
      <point x="619" y="711" type="line"/>
      <point x="619" y="832" type="line"/>
      <point x="25" y="832" type="line"/>
    </contour>
    <contour>
      <point x="397" y="0" type="move" name="H"/>
    </contour>
    <contour>
      <point x="698" y="836" type="move" name="R"/>
    </contour>
    <contour>
      <point x="272" y="1137" type="move" name="U"/>
    </contour>
    <contour>
      <point x="397" y="-84" type="move" name="L"/>
    </contour>
  </outline>
</glyph>
<glyph name="LtnSmU" format="1">
  <advance width="991"/>
  <unicode hex="0075"/>
  <outline>
    <contour>
      <point x="911" y="0" type="line"/>
      <point x="876" y="94"/>
      <point x="857" y="214"/>
      <point x="857" y="376" type="curve" smooth="yes"/>
      <point x="857" y="540"/>
      <point x="857" y="853"/>
      <point x="857" y="853" type="curve"/>
      <point x="686" y="853" type="line"/>
      <point x="701" y="751"/>
      <point x="702" y="696"/>
      <point x="702" y="585" type="curve" smooth="yes"/>
      <point x="702" y="351" type="line"/>
      <point x="658" y="249"/>
      <point x="525" y="117"/>
      <point x="426" y="117" type="curve" smooth="yes"/>
      <point x="320" y="117"/>
      <point x="284" y="199"/>
      <point x="284" y="389" type="curve" smooth="yes"/>
      <point x="284" y="504"/>
      <point x="284" y="853"/>
      <point x="284" y="853" type="curve"/>
      <point x="113" y="853" type="line"/>
      <point x="128" y="752"/>
      <point x="130" y="691"/>
      <point x="130" y="585" type="curve" smooth="yes"/>
      <point x="130" y="569"/>
      <point x="130" y="354"/>
      <point x="130" y="339" type="curve" smooth="yes"/>
      <point x="130" y="100"/>
      <point x="219" y="-21"/>
      <point x="397" y="-21" type="curve" smooth="yes"/>
      <point x="514" y="-21"/>
      <point x="622" y="44"/>
      <point x="723" y="167" type="curve"/>
      <point x="732" y="105"/>
      <point x="753" y="38"/>
      <point x="769" y="0" type="curve"/>
    </contour>
    <contour>
      <point x="492.0" y="920.0" type="move" name="U"/>
    </contour>
    <contour>
      <point x="492.0" y="-84.0" type="move" name="L"/>
    </contour>
    <contour>
      <point x="991.0" y="836.0" type="move" name="R"/>
    </contour>
    <contour>
      <point x="997.0" y="0.0" type="move" name="O"/>
    </contour>
    <contour>
      <point x="492.0" y="0.0" type="move" name="H"/>
    </contour>
  </outline>
</glyph>
<glyph name="LtnSmV" format="1">
  <advance width="895"/>
  <unicode hex="0076"/>
  <outline>
    <contour>
      <point x="702" y="853" type="line"/>
      <point x="447" y="167" type="line"/>
      <point x="192" y="853" type="line"/>
      <point x="17" y="853" type="line"/>
      <point x="63" y="757"/>
      <point x="120" y="624"/>
      <point x="146" y="556" type="curve" smooth="yes"/>
      <point x="198" y="426"/>
      <point x="368" y="0"/>
      <point x="368" y="0" type="curve"/>
      <point x="527" y="0" type="line"/>
      <point x="527" y="0"/>
      <point x="704" y="448"/>
      <point x="748" y="556" type="curve" smooth="yes"/>
      <point x="776" y="622"/>
      <point x="830" y="757"/>
      <point x="878" y="853" type="curve"/>
    </contour>
    <contour>
      <point x="447.0" y="920.0" type="move" name="U"/>
    </contour>
    <contour>
      <point x="447.0" y="-84.0" type="move" name="L"/>
    </contour>
    <contour>
      <point x="606.0" y="0.0" type="move" name="O"/>
    </contour>
    <contour>
      <point x="459.0" y="0.0" type="move" name="H"/>
    </contour>
  </outline>
</glyph>
<glyph name="v" format="1">
  <advance width="895"/>
  <unicode hex="0076"/>
  <outline>
    <contour>
      <point x="702" y="853" type="line"/>
      <point x="447" y="167" type="line"/>
      <point x="192" y="853" type="line"/>
      <point x="17" y="853" type="line"/>
      <point x="63" y="757"/>
      <point x="120" y="624"/>
      <point x="146" y="556" type="curve" smooth="yes"/>
      <point x="198" y="426"/>
      <point x="368" y="0"/>
      <point x="368" y="0" type="curve"/>
      <point x="527" y="0" type="line"/>
      <point x="527" y="0"/>
      <point x="704" y="448"/>
      <point x="748" y="556" type="curve" smooth="yes"/>
      <point x="776" y="622"/>
      <point x="830" y="757"/>
      <point x="878" y="853" type="curve"/>
    </contour>
    <contour>
      <point x="606" y="0" type="move" name="O"/>
    </contour>
    <contour>
      <point x="459" y="0" type="move" name="H"/>
    </contour>
    <contour>
      <point x="447" y="920" type="move" name="U"/>
    </contour>
    <contour>
      <point x="447" y="-84" type="move" name="L"/>
    </contour>
  </outline>
</glyph>
<glyph name="w" format="1">
  <advance width="1296"/>
  <unicode hex="0077"/>
  <outline>
    <contour>
      <point x="585" y="853" type="line"/>
      <point x="368" y="180" type="line"/>
      <point x="192" y="853" type="line"/>
      <point x="38" y="853" type="line"/>
      <point x="77" y="725"/>
      <point x="100" y="645"/>
      <point x="125" y="556" type="curve" smooth="yes"/>
      <point x="280" y="0" type="line"/>
      <point x="439" y="0" type="line"/>
      <point x="648" y="656" type="line"/>
      <point x="857" y="0" type="line"/>
      <point x="1016" y="0" type="line"/>
      <point x="1170" y="556" type="line" smooth="yes"/>
      <point x="1199" y="656"/>
      <point x="1219" y="726"/>
      <point x="1258" y="853" type="curve"/>
      <point x="1104" y="853" type="line"/>
      <point x="928" y="180" type="line"/>
      <point x="711" y="853" type="line"/>
    </contour>
    <contour>
      <point x="648" y="920" type="move" name="U"/>
    </contour>
    <contour>
      <point x="648" y="-84" type="move" name="L"/>
    </contour>
  </outline>
</glyph>
<glyph name="x" format="1">
  <advance width="907"/>
  <unicode hex="0078"/>
  <outline>
    <contour>
      <point x="673" y="0" type="line"/>
      <point x="865" y="0" type="line"/>
      <point x="775" y="119"/>
      <point x="754" y="142"/>
      <point x="694" y="226" type="curve" smooth="yes"/>
      <point x="242" y="853" type="line"/>
      <point x="50" y="853" type="line"/>
      <point x="140" y="742"/>
      <point x="170" y="705"/>
      <point x="226" y="627" type="curve"/>
    </contour>
    <contour>
      <point x="409" y="515" type="line"/>
      <point x="209" y="226" type="line" smooth="yes"/>
      <point x="158" y="152"/>
      <point x="134" y="120"/>
      <point x="42" y="0" type="curve"/>
      <point x="230" y="0" type="line"/>
      <point x="465" y="338" type="line"/>
    </contour>
    <contour>
      <point x="489" y="339" type="line"/>
      <point x="686" y="627" type="line" smooth="yes"/>
      <point x="738" y="704"/>
      <point x="767" y="741"/>
      <point x="853" y="853" type="curve"/>
      <point x="665" y="853" type="line"/>
      <point x="435" y="514" type="line"/>
    </contour>
    <contour>
      <point x="453" y="920" type="move" name="U"/>
    </contour>
    <contour>
      <point x="453" y="-84" type="move" name="L"/>
    </contour>
    <contour>
      <point x="752" y="0" type="move" name="H"/>
    </contour>
  </outline>
</glyph>
<glyph name="y" format="1">
  <advance width="886"/>
  <unicode hex="0079"/>
  <outline>
    <contour>
      <point x="510" y="50" type="line"/>
      <point x="192" y="853" type="line"/>
      <point x="25" y="853" type="line"/>
      <point x="89" y="722"/>
      <point x="128" y="632"/>
      <point x="159" y="556" type="curve" smooth="yes"/>
      <point x="439" y="-138" type="line"/>
    </contour>
    <contour>
      <point x="748" y="556" type="line"/>
      <point x="776" y="634"/>
      <point x="812" y="723"/>
      <point x="869" y="853" type="curve"/>
      <point x="702" y="853" type="line"/>
      <point x="702" y="853"/>
      <point x="472" y="192"/>
      <point x="418" y="46" type="curve" smooth="yes"/>
      <point x="327" y="-207"/>
      <point x="263" y="-251"/>
      <point x="188" y="-251" type="curve" smooth="yes"/>
      <point x="133" y="-251"/>
      <point x="69" y="-217"/>
      <point x="33" y="-188" type="curve"/>
      <point x="-17" y="-322" type="line"/>
      <point x="44" y="-367"/>
      <point x="112" y="-393"/>
      <point x="188" y="-393" type="curve" smooth="yes"/>
      <point x="330" y="-393"/>
      <point x="431" y="-320"/>
      <point x="548" y="0" type="curve"/>
    </contour>
    <contour>
      <point x="447" y="920" type="move" name="U"/>
    </contour>
    <contour>
      <point x="936" y="836" type="move" name="R"/>
    </contour>
    <contour>
      <point x="665" y="-84" type="move" name="L"/>
    </contour>
  </outline>
</glyph>
<glyph name="z" format="1">
  <advance width="869"/>
  <unicode hex="007A"/>
  <outline>
    <contour>
      <point x="113" y="853" type="line"/>
      <point x="113" y="715" type="line"/>
      <point x="144" y="727"/>
      <point x="193" y="727"/>
      <point x="242" y="727" type="curve" smooth="yes"/>
      <point x="568" y="727" type="line"/>
      <point x="88" y="92" type="line"/>
      <point x="88" y="0" type="line"/>
      <point x="790" y="0" type="line"/>
      <point x="790" y="138" type="line"/>
      <point x="740" y="125"/>
      <point x="688" y="125"/>
      <point x="640" y="125" type="curve" smooth="yes"/>
      <point x="280" y="125" type="line"/>
      <point x="777" y="773" type="line"/>
      <point x="777" y="853" type="line"/>
    </contour>
    <contour>
      <point x="439" y="920" type="move" name="U"/>
    </contour>
    <contour>
      <point x="439" y="-84" type="move" name="L"/>
    </contour>
    <contour>
      <point x="439" y="0" type="move" name="H"/>
    </contour>
  </outline>
</glyph>
<glyph name="bar" format="1">
  <advance width="426"/>
  <unicode hex="007C"/>
  <outline>
    <contour>
      <point x="257" y="1479" type="line"/>
      <point x="257" y="-461" type="line"/>
      <point x="169" y="-461" type="line"/>
      <point x="169" y="1479" type="line"/>
    </contour>
  </outline>
</glyph>
<glyph name="braceright" format="1">
  <advance width="1089"/>
  <unicode hex="007D"/>
  <outline>
    <contour>
      <point x="784" y="537" type="curve"/>
      <point x="784" y="483" type="line"/>
      <point x="727" y="477"/>
      <point x="675" y="453"/>
      <point x="628" y="415" type="curve" smooth="yes"/>
      <point x="574" y="370"/>
      <point x="547" y="317"/>
      <point x="547" y="256" type="curve" smooth="yes"/>
      <point x="547" y="227"/>
      <point x="554" y="178"/>
      <point x="570" y="106" type="curve" smooth="yes"/>
      <point x="586" y="34"/>
      <point x="595" y="-22"/>
      <point x="595" y="-60" type="curve" smooth="yes"/>
      <point x="595" y="-163"/>
      <point x="558" y="-252"/>
      <point x="486" y="-328" type="curve" smooth="yes"/>
      <point x="414" y="-405"/>
      <point x="328" y="-449"/>
      <point x="227" y="-459" type="curve"/>
      <point x="227" y="-422" type="line"/>
      <point x="388" y="-381"/>
      <point x="468" y="-290"/>
      <point x="468" y="-148" type="curve" smooth="yes"/>
      <point x="468" y="-115"/>
      <point x="461" y="-68"/>
      <point x="446" y="-6" type="curve" smooth="yes"/>
      <point x="431" y="57"/>
      <point x="424" y="105"/>
      <point x="424" y="137" type="curve" smooth="yes"/>
      <point x="424" y="324"/>
      <point x="509" y="449"/>
      <point x="678" y="511" type="curve"/>
      <point x="509" y="572"/>
      <point x="424" y="695"/>
      <point x="424" y="879" type="curve" smooth="yes"/>
      <point x="424" y="913"/>
      <point x="431" y="961"/>
      <point x="446" y="1024" type="curve" smooth="yes"/>
      <point x="461" y="1086"/>
      <point x="468" y="1135"/>
      <point x="468" y="1168" type="curve" smooth="yes"/>
      <point x="468" y="1311"/>
      <point x="388" y="1403"/>
      <point x="227" y="1443" type="curve"/>
      <point x="227" y="1479" type="line"/>
      <point x="325" y="1469"/>
      <point x="411" y="1427"/>
      <point x="483" y="1355" type="curve"/>
      <point x="557" y="1279"/>
      <point x="595" y="1192"/>
      <point x="595" y="1094" type="curve" smooth="yes"/>
      <point x="595" y="1054"/>
      <point x="586" y="995"/>
      <point x="570" y="919" type="curve" smooth="yes"/>
      <point x="554" y="843"/>
      <point x="547" y="790"/>
      <point x="547" y="760" type="curve" smooth="yes"/>
      <point x="547" y="700"/>
      <point x="574" y="648"/>
      <point x="629" y="604" type="curve" smooth="yes"/>
      <point x="676" y="566"/>
      <point x="727" y="543"/>
    </contour>
  </outline>
</glyph>
<glyph name="asciitilde" format="1">
  <advance width="1115"/>
  <unicode hex="007E"/>
  <outline>
    <contour>
      <point x="1019" y="705" type="curve"/>
      <point x="1076" y="630" type="line"/>
      <point x="999" y="485"/>
      <point x="905" y="412"/>
      <point x="794" y="412" type="curve" smooth="yes"/>
      <point x="740" y="412"/>
      <point x="658" y="437"/>
      <point x="548" y="486" type="curve" smooth="yes"/>
      <point x="438" y="535"/>
      <point x="360" y="560"/>
      <point x="313" y="560" type="curve" smooth="yes"/>
      <point x="265" y="560"/>
      <point x="221" y="539"/>
      <point x="181" y="496" type="curve" smooth="yes"/>
      <point x="160" y="473"/>
      <point x="131" y="431"/>
      <point x="95" y="370" type="curve"/>
      <point x="39" y="443" type="line"/>
      <point x="80" y="518"/>
      <point x="117" y="571"/>
      <point x="150" y="604" type="curve" smooth="yes"/>
      <point x="201" y="655"/>
      <point x="258" y="680"/>
      <point x="323" y="680" type="curve" smooth="yes"/>
      <point x="373" y="680"/>
      <point x="457" y="655"/>
      <point x="575" y="604" type="curve" smooth="yes"/>
      <point x="694" y="553"/>
      <point x="770" y="528"/>
      <point x="804" y="528" type="curve" smooth="yes"/>
      <point x="888" y="528"/>
      <point x="960" y="587"/>
    </contour>
  </outline>
</glyph>
<glyph name="InvExclamationMrk" format="1">
  <advance width="639"/>
  <unicode hex="00A1"/>
  <outline>
    <contour>
      <point x="232" y="552" type="line"/>
      <point x="227" y="309"/>
      <point x="227" y="20"/>
      <point x="195" y="-343" type="curve"/>
      <point x="408" y="-343" type="line"/>
      <point x="375" y="20"/>
      <point x="375" y="309"/>
      <point x="370" y="552" type="curve"/>
    </contour>
    <contour>
      <point x="190" y="818" type="curve" smooth="yes"/>
      <point x="190" y="756"/>
      <point x="240" y="706"/>
      <point x="302" y="706" type="curve" smooth="yes"/>
      <point x="364" y="706"/>
      <point x="414" y="756"/>
      <point x="414" y="818" type="curve" smooth="yes"/>
      <point x="414" y="879"/>
      <point x="364" y="930"/>
      <point x="302" y="930" type="curve" smooth="yes"/>
      <point x="240" y="930"/>
      <point x="190" y="879"/>
    </contour>
  </outline>
</glyph>
<glyph name="sterling" format="1">
  <advance width="1003"/>
  <unicode hex="00A3"/>
  <outline>
    <contour>
      <point x="314" y="138" type="line"/>
      <point x="379" y="203"/>
      <point x="400" y="285"/>
      <point x="400" y="389" type="curve" smooth="yes"/>
      <point x="400" y="531"/>
      <point x="372" y="751"/>
      <point x="372" y="899" type="curve" smooth="yes"/>
      <point x="372" y="1050"/>
      <point x="444" y="1108"/>
      <point x="548" y="1108" type="curve" smooth="yes"/>
      <point x="596" y="1108"/>
      <point x="675" y="1088"/>
      <point x="716" y="1058" type="curve"/>
      <point x="755" y="1183" type="line"/>
      <point x="703" y="1220"/>
      <point x="613" y="1241"/>
      <point x="548" y="1241" type="curve" smooth="yes"/>
      <point x="350" y="1241"/>
      <point x="217" y="1116"/>
      <point x="217" y="865" type="curve" smooth="yes"/>
      <point x="217" y="710"/>
      <point x="246" y="500"/>
      <point x="246" y="328" type="curve" smooth="yes"/>
      <point x="246" y="234"/>
      <point x="188" y="157"/>
      <point x="121" y="109" type="curve"/>
      <point x="121" y="0" type="line"/>
      <point x="849" y="0" type="line"/>
      <point x="849" y="150" type="line"/>
      <point x="782" y="139"/>
      <point x="649" y="138"/>
      <point x="484" y="138" type="curve" smooth="yes"/>
    </contour>
    <contour>
      <point x="130" y="577" type="line"/>
      <point x="640" y="577" type="line"/>
      <point x="640" y="698" type="line"/>
      <point x="130" y="698" type="line"/>
    </contour>
  </outline>
</glyph>
<glyph name="CurrSgn" format="1">
  <advance width="1003"/>
  <unicode hex="00A4"/>
  <outline>
    <contour>
      <point x="972" y="344" type="line"/>
      <point x="796" y="520" type="line"/>
      <point x="843" y="582"/>
      <point x="867" y="652"/>
      <point x="867" y="733" type="curve" smooth="yes"/>
      <point x="867" y="813"/>
      <point x="838" y="890"/>
      <point x="794" y="951" type="curve"/>
      <point x="972" y="1129" type="line"/>
      <point x="894" y="1207" type="line"/>
      <point x="712" y="1026" type="line"/>
      <point x="654" y="1071"/>
      <point x="584" y="1099"/>
      <point x="505" y="1099" type="curve" smooth="yes"/>
      <point x="425" y="1099"/>
      <point x="350" y="1073"/>
      <point x="289" y="1027" type="curve"/>
      <point x="110" y="1207" type="line"/>
      <point x="31" y="1129" type="line"/>
      <point x="211" y="949" type="line"/>
      <point x="160" y="889"/>
      <point x="136" y="810"/>
      <point x="136" y="731" type="curve" smooth="yes"/>
      <point x="136" y="650"/>
      <point x="161" y="582"/>
      <point x="207" y="520" type="curve"/>
      <point x="31" y="344" type="line"/>
      <point x="110" y="266" type="line"/>
      <point x="286" y="442" type="line"/>
      <point x="349" y="391"/>
      <point x="420" y="365"/>
      <point x="505" y="365" type="curve" smooth="yes"/>
      <point x="584" y="365"/>
      <point x="655" y="393"/>
      <point x="717" y="442" type="curve"/>
      <point x="894" y="266" type="line"/>
    </contour>
    <contour>
      <point x="757" y="733" type="curve" smooth="yes"/>
      <point x="757" y="589"/>
      <point x="650" y="476"/>
      <point x="505" y="476" type="curve" smooth="yes"/>
      <point x="358" y="476"/>
      <point x="246" y="584"/>
      <point x="246" y="731" type="curve" smooth="yes"/>
      <point x="246" y="880"/>
      <point x="356" y="988"/>
      <point x="505" y="988" type="curve" smooth="yes"/>
      <point x="649" y="988"/>
      <point x="757" y="875"/>
    </contour>
  </outline>
</glyph>
<glyph name="yen" format="1">
  <advance width="1003"/>
  <unicode hex="00A5"/>
  <outline>
    <contour>
      <point x="460" y="468" type="line"/>
      <point x="585" y="564" type="line"/>
      <point x="192" y="1221" type="line"/>
      <point x="0" y="1221" type="line"/>
      <point x="94" y="1096"/>
      <point x="149" y="1001"/>
      <point x="213" y="890" type="curve" smooth="yes"/>
    </contour>
    <contour>
      <point x="548" y="468" type="line"/>
      <point x="794" y="890" type="line" smooth="yes"/>
      <point x="858" y="999"/>
      <point x="905" y="1079"/>
      <point x="1003" y="1221" type="curve"/>
      <point x="811" y="1221" type="line"/>
      <point x="439" y="564" type="line"/>
    </contour>
    <contour>
      <point x="422" y="581" type="line"/>
      <point x="422" y="364" type="line" smooth="yes"/>
      <point x="422" y="199"/>
      <point x="422" y="67"/>
      <point x="410" y="0" type="curve"/>
      <point x="594" y="0" type="line"/>
      <point x="581" y="67"/>
      <point x="581" y="199"/>
      <point x="581" y="364" type="curve" smooth="yes"/>
      <point x="581" y="581" type="line"/>
    </contour>
    <contour>
      <point x="167" y="523" type="line"/>
      <point x="843" y="523" type="line"/>
      <point x="843" y="644" type="line"/>
      <point x="167" y="644" type="line"/>
    </contour>
    <contour>
      <point x="167" y="314" type="line"/>
      <point x="843" y="314" type="line"/>
      <point x="843" y="435" type="line"/>
      <point x="167" y="435" type="line"/>
    </contour>
  </outline>
</glyph>
<glyph name="brokenbar" format="1">
  <advance width="856"/>
  <unicode hex="00A6"/>
  <outline>
    <contour>
      <point x="368" y="372" type="line"/>
      <point x="368" y="-326" type="line"/>
      <point x="493" y="-326" type="line"/>
      <point x="493" y="372" type="line"/>
    </contour>
    <contour>
      <point x="493" y="648" type="line"/>
      <point x="493" y="1338" type="line"/>
      <point x="368" y="1338" type="line"/>
      <point x="368" y="648" type="line"/>
    </contour>
  </outline>
</glyph>
<glyph name="SectionSgn" format="1">
  <advance width="856"/>
  <unicode hex="00A7"/>
  <outline>
    <contour>
      <point x="414" y="125" type="line"/>
      <point x="602" y="125"/>
      <point x="736" y="252"/>
      <point x="736" y="428" type="curve" smooth="yes"/>
      <point x="736" y="553"/>
      <point x="656" y="631"/>
      <point x="506" y="740" type="curve" smooth="yes"/>
      <point x="358" y="847"/>
      <point x="259" y="907"/>
      <point x="259" y="992" type="curve" smooth="yes"/>
      <point x="259" y="1049"/>
      <point x="308" y="1108"/>
      <point x="422" y="1108" type="curve" smooth="yes"/>
      <point x="526" y="1108"/>
      <point x="613" y="1061"/>
      <point x="669" y="1028" type="curve"/>
      <point x="698" y="1175" type="line"/>
      <point x="640" y="1206"/>
      <point x="552" y="1241"/>
      <point x="431" y="1241" type="curve" smooth="yes"/>
      <point x="193" y="1241"/>
      <point x="109" y="1093"/>
      <point x="109" y="957" type="curve" smooth="yes"/>
      <point x="109" y="854"/>
      <point x="189" y="760"/>
      <point x="366" y="649" type="curve" smooth="yes"/>
      <point x="537" y="542"/>
      <point x="585" y="472"/>
      <point x="585" y="401" type="curve" smooth="yes"/>
      <point x="585" y="324"/>
      <point x="516" y="259"/>
      <point x="418" y="259" type="curve"/>
    </contour>
    <contour>
      <point x="431" y="748" type="line"/>
      <point x="251" y="748"/>
      <point x="109" y="648"/>
      <point x="109" y="477" type="curve" smooth="yes"/>
      <point x="109" y="330"/>
      <point x="188" y="247"/>
      <point x="339" y="142" type="curve" smooth="yes"/>
      <point x="487" y="39"/>
      <point x="585" y="-31"/>
      <point x="585" y="-138" type="curve" smooth="yes"/>
      <point x="585" y="-196"/>
      <point x="516" y="-259"/>
      <point x="418" y="-259" type="curve" smooth="yes"/>
      <point x="329" y="-259"/>
      <point x="209" y="-214"/>
      <point x="134" y="-146" type="curve"/>
      <point x="92" y="-297" type="line"/>
      <point x="158" y="-349"/>
      <point x="278" y="-393"/>
      <point x="414" y="-393" type="curve" smooth="yes"/>
      <point x="594" y="-393"/>
      <point x="736" y="-268"/>
      <point x="736" y="-117" type="curve" smooth="yes"/>
      <point x="736" y="9"/>
      <point x="655" y="122"/>
      <point x="478" y="233" type="curve" smooth="yes"/>
      <point x="308" y="340"/>
      <point x="259" y="406"/>
      <point x="259" y="481" type="curve" smooth="yes"/>
      <point x="259" y="563"/>
      <point x="329" y="614"/>
      <point x="426" y="614" type="curve"/>
    </contour>
  </outline>
</glyph>
<glyph name="CopyrightSgn" format="1">
  <advance width="1267"/>
  <unicode hex="00A9"/>
  <outline>
    <contour>
      <point x="631" y="1141" type="curve" smooth="yes"/>
      <point x="881" y="1141"/>
      <point x="1120" y="957"/>
      <point x="1120" y="610" type="curve" smooth="yes"/>
      <point x="1120" y="263"/>
      <point x="881" y="79"/>
      <point x="631" y="79" type="curve" smooth="yes"/>
      <point x="381" y="79"/>
      <point x="146" y="263"/>
      <point x="146" y="610" type="curve" smooth="yes"/>
      <point x="146" y="957"/>
      <point x="381" y="1141"/>
    </contour>
    <contour>
      <point x="631" y="1241" type="curve" smooth="yes"/>
      <point x="332" y="1241"/>
      <point x="42" y="1028"/>
      <point x="42" y="610" type="curve" smooth="yes"/>
      <point x="42" y="184"/>
      <point x="332" y="-21"/>
      <point x="631" y="-21" type="curve" smooth="yes"/>
      <point x="922" y="-21"/>
      <point x="1225" y="184"/>
      <point x="1225" y="610" type="curve" smooth="yes"/>
      <point x="1225" y="1028"/>
      <point x="922" y="1241"/>
    </contour>
    <contour>
      <point x="844" y="422" type="line"/>
      <point x="786" y="363"/>
      <point x="713" y="322"/>
      <point x="635" y="322" type="curve" smooth="yes"/>
      <point x="493" y="322"/>
      <point x="401" y="466"/>
      <point x="401" y="614" type="curve" smooth="yes"/>
      <point x="401" y="803"/>
      <point x="510" y="907"/>
      <point x="640" y="907" type="curve" smooth="yes"/>
      <point x="704" y="907"/>
      <point x="761" y="884"/>
      <point x="828" y="823" type="curve"/>
      <point x="861" y="924" type="line"/>
      <point x="785" y="981"/>
      <point x="716" y="999"/>
      <point x="640" y="999" type="curve" smooth="yes"/>
      <point x="469" y="999"/>
      <point x="297" y="859"/>
      <point x="297" y="602" type="curve" smooth="yes"/>
      <point x="297" y="378"/>
      <point x="429" y="226"/>
      <point x="627" y="226" type="curve" smooth="yes"/>
      <point x="708" y="226"/>
      <point x="803" y="256"/>
      <point x="865" y="314" type="curve"/>
    </contour>
  </outline>
</glyph>
<glyph name="guillemetleft" format="1">
  <advance width="1087"/>
  <unicode hex="00AB"/>
  <outline>
    <contour>
      <point x="581" y="0" type="line"/>
      <point x="255" y="428" type="line"/>
      <point x="581" y="853" type="line"/>
      <point x="426" y="853" type="line"/>
      <point x="63" y="428" type="line"/>
      <point x="429" y="0" type="line"/>
    </contour>
    <contour>
      <point x="991" y="0" type="line"/>
      <point x="665" y="428" type="line"/>
      <point x="991" y="853" type="line"/>
      <point x="836" y="853" type="line"/>
      <point x="472" y="428" type="line"/>
      <point x="839" y="0" type="line"/>
    </contour>
  </outline>
</glyph>
<glyph name="macron" format="1">
  <advance width="594"/>
  <unicode hex="00AF"/>
  <outline>
    <contour>
      <point x="0" y="1037" type="line"/>
      <point x="594" y="1037" type="line"/>
      <point x="594" y="1162" type="line"/>
      <point x="0" y="1162" type="line"/>
    </contour>
  </outline>
</glyph>
<glyph name="DegreeSgn" format="1">
  <advance width="535"/>
  <unicode hex="00B0"/>
  <outline>
    <contour>
      <point x="380" y="1032" type="curve"/>
      <point x="380" y="970"/>
      <point x="330" y="920"/>
      <point x="268" y="920" type="curve" smooth="yes"/>
      <point x="205" y="920"/>
      <point x="155" y="970"/>
      <point x="155" y="1032" type="curve" smooth="yes"/>
      <point x="155" y="1095"/>
      <point x="205" y="1145"/>
      <point x="268" y="1145" type="curve" smooth="yes"/>
      <point x="330" y="1145"/>
      <point x="380" y="1095"/>
    </contour>
    <contour>
      <point x="59" y="1032" type="curve"/>
      <point x="59" y="915"/>
      <point x="150" y="823"/>
      <point x="268" y="823" type="curve" smooth="yes"/>
      <point x="385" y="823"/>
      <point x="477" y="915"/>
      <point x="477" y="1032" type="curve" smooth="yes"/>
      <point x="477" y="1150"/>
      <point x="385" y="1241"/>
      <point x="268" y="1241" type="curve" smooth="yes"/>
      <point x="150" y="1241"/>
      <point x="59" y="1150"/>
    </contour>
  </outline>
</glyph>
<glyph name="plusminus" format="1">
  <advance width="1003"/>
  <unicode hex="00B1"/>
  <outline>
    <contour>
      <point x="130" y="698" type="line"/>
      <point x="439" y="698" type="line"/>
      <point x="439" y="393" type="line"/>
      <point x="564" y="393" type="line"/>
      <point x="564" y="698" type="line"/>
      <point x="874" y="698" type="line"/>
      <point x="874" y="823" type="line"/>
      <point x="564" y="823" type="line"/>
      <point x="564" y="1141" type="line"/>
      <point x="439" y="1141" type="line"/>
      <point x="439" y="823" type="line"/>
      <point x="130" y="823" type="line"/>
    </contour>
    <contour>
      <point x="130" y="167" type="line"/>
      <point x="874" y="167" type="line"/>
      <point x="874" y="293" type="line"/>
      <point x="130" y="293" type="line"/>
    </contour>
  </outline>
</glyph>
<glyph name="paragraph" format="1">
  <advance width="857"/>
  <unicode hex="00B6"/>
  <outline>
    <contour>
      <point x="807" y="1124" type="line"/>
      <point x="807" y="1221" type="line"/>
      <point x="368" y="1221" type="line" smooth="yes"/>
      <point x="236" y="1221"/>
      <point x="42" y="1155"/>
      <point x="42" y="930" type="curve" smooth="yes"/>
      <point x="42" y="706"/>
      <point x="237" y="640"/>
      <point x="351" y="640" type="curve"/>
      <point x="351" y="0" type="line"/>
      <point x="464" y="0" type="line"/>
      <point x="464" y="1124" type="line"/>
      <point x="598" y="1124" type="line"/>
      <point x="598" y="0" type="line"/>
      <point x="711" y="0" type="line"/>
      <point x="711" y="1124" type="line"/>
    </contour>
  </outline>
</glyph>
<glyph name="periodcentered" format="1">
  <advance width="353"/>
  <unicode hex="00B7"/>
  <outline>
    <contour>
      <point x="263" y="699" type="curve" smooth="yes"/>
      <point x="263" y="629"/>
      <point x="224" y="582"/>
      <point x="176" y="582" type="curve" smooth="yes"/>
      <point x="126" y="582"/>
      <point x="90" y="631"/>
      <point x="90" y="699" type="curve" smooth="yes"/>
      <point x="90" y="735"/>
      <point x="99" y="763"/>
      <point x="117" y="784" type="curve" smooth="yes"/>
      <point x="133" y="804"/>
      <point x="152" y="813"/>
      <point x="176" y="813" type="curve" smooth="yes"/>
      <point x="221" y="813"/>
      <point x="263" y="767"/>
    </contour>
  </outline>
</glyph>
<glyph name="ordmasculine" format="1">
  <advance width="667"/>
  <unicode hex="00BA"/>
  <outline>
    <contour>
      <point x="59" y="843" type="curve" smooth="yes"/>
      <point x="59" y="656"/>
      <point x="171" y="555"/>
      <point x="332" y="555" type="curve" smooth="yes"/>
      <point x="486" y="555"/>
      <point x="615" y="656"/>
      <point x="615" y="843" type="curve" smooth="yes"/>
      <point x="615" y="1030"/>
      <point x="504" y="1134"/>
      <point x="344" y="1134" type="curve" smooth="yes"/>
      <point x="190" y="1134"/>
      <point x="59" y="1030"/>
    </contour>
    <contour>
      <point x="168" y="843" type="curve" smooth="yes"/>
      <point x="168" y="970"/>
      <point x="243" y="1047"/>
      <point x="338" y="1047" type="curve" smooth="yes"/>
      <point x="438" y="1047"/>
      <point x="507" y="970"/>
      <point x="507" y="843" type="curve" smooth="yes"/>
      <point x="507" y="716"/>
      <point x="432" y="642"/>
      <point x="338" y="642" type="curve" smooth="yes"/>
      <point x="237" y="642"/>
      <point x="168" y="716"/>
    </contour>
    <contour>
      <point x="59" y="418" type="line"/>
      <point x="615" y="418" type="line"/>
      <point x="615" y="502" type="line"/>
      <point x="59" y="502" type="line"/>
    </contour>
  </outline>
</glyph>
<glyph name="guillemetright" format="1">
  <advance width="1087"/>
  <unicode hex="00BB"/>
  <outline>
    <contour>
      <point x="658" y="0" type="line"/>
      <point x="1024" y="428" type="line"/>
      <point x="660" y="853" type="line"/>
      <point x="506" y="853" type="line"/>
      <point x="832" y="428" type="line"/>
      <point x="506" y="0" type="line"/>
    </contour>
    <contour>
      <point x="248" y="0" type="line"/>
      <point x="614" y="428" type="line"/>
      <point x="251" y="853" type="line"/>
      <point x="96" y="853" type="line"/>
      <point x="422" y="428" type="line"/>
      <point x="96" y="0" type="line"/>
    </contour>
  </outline>
</glyph>
<glyph name="VulgFracOneHalf" format="1">
  <advance width="1338"/>
  <unicode hex="00BD"/>
  <outline>
    <contour>
      <point x="1067" y="1338" type="line"/>
      <point x="171" y="-42" type="line"/>
      <point x="280" y="-42" type="line"/>
      <point x="1176" y="1338" type="line"/>
    </contour>
    <contour>
      <point x="222" y="681" type="line"/>
      <point x="67" y="681" type="line"/>
      <point x="67" y="594" type="line"/>
      <point x="481" y="594" type="line"/>
      <point x="481" y="681" type="line"/>
      <point x="330" y="681" type="line"/>
      <point x="330" y="1338" type="line"/>
      <point x="234" y="1338" type="line"/>
      <point x="59" y="1233" type="line"/>
      <point x="75" y="1141" type="line"/>
      <point x="222" y="1229" type="line"/>
    </contour>
    <contour>
      <point x="1296" y="96" type="line"/>
      <point x="1256" y="89"/>
      <point x="1177" y="88"/>
      <point x="1078" y="88" type="curve" smooth="yes"/>
      <point x="957" y="88" type="line"/>
      <point x="1067" y="173"/>
      <point x="1262" y="366"/>
      <point x="1262" y="535" type="curve" smooth="yes"/>
      <point x="1262" y="665"/>
      <point x="1156" y="748"/>
      <point x="1036" y="748" type="curve" smooth="yes"/>
      <point x="951" y="748"/>
      <point x="856" y="704"/>
      <point x="815" y="648" type="curve"/>
      <point x="840" y="556" type="line"/>
      <point x="884" y="610"/>
      <point x="958" y="648"/>
      <point x="1020" y="648" type="curve" smooth="yes"/>
      <point x="1092" y="648"/>
      <point x="1154" y="621"/>
      <point x="1154" y="527" type="curve" smooth="yes"/>
      <point x="1154" y="388"/>
      <point x="951" y="190"/>
      <point x="815" y="92" type="curve"/>
      <point x="815" y="0" type="line"/>
      <point x="1296" y="0" type="line"/>
    </contour>
  </outline>
</glyph>
<glyph name="questiondown" format="1">
  <advance width="878"/>
  <unicode hex="00BF"/>
  <outline>
    <contour>
      <point x="656" y="-101" type="line"/>
      <point x="593" y="-167"/>
      <point x="517" y="-196"/>
      <point x="450" y="-196" type="curve" smooth="yes"/>
      <point x="327" y="-196"/>
      <point x="288" y="-133"/>
      <point x="288" y="-84" type="curve" smooth="yes"/>
      <point x="288" y="-34"/>
      <point x="299" y="13"/>
      <point x="405" y="125" type="curve" smooth="yes"/>
      <point x="496" y="222"/>
      <point x="510" y="302"/>
      <point x="510" y="577" type="curve"/>
      <point x="364" y="577" type="line"/>
      <point x="364" y="319"/>
      <point x="349" y="278"/>
      <point x="247" y="159" type="curve" smooth="yes"/>
      <point x="151" y="47"/>
      <point x="117" y="-6"/>
      <point x="117" y="-92" type="curve" smooth="yes"/>
      <point x="117" y="-261"/>
      <point x="249" y="-343"/>
      <point x="426" y="-343" type="curve" smooth="yes"/>
      <point x="531" y="-343"/>
      <point x="639" y="-303"/>
      <point x="694" y="-251" type="curve"/>
    </contour>
    <contour>
      <point x="553" y="818" type="curve" smooth="yes"/>
      <point x="553" y="880"/>
      <point x="503" y="930"/>
      <point x="441" y="930" type="curve" smooth="yes"/>
      <point x="380" y="930"/>
      <point x="329" y="880"/>
      <point x="329" y="818" type="curve" smooth="yes"/>
      <point x="329" y="757"/>
      <point x="380" y="706"/>
      <point x="441" y="706" type="curve" smooth="yes"/>
      <point x="503" y="706"/>
      <point x="553" y="757"/>
    </contour>
  </outline>
</glyph>
<glyph name="LtnCapAe" format="1">
  <advance width="1509"/>
  <unicode hex="00C6"/>
  <outline>
    <contour>
      <point x="884" y="322" type="line"/>
      <point x="833" y="451" type="line"/>
      <point x="384" y="451" type="line"/>
      <point x="334" y="322" type="line"/>
    </contour>
    <contour>
      <point x="1321" y="573" type="line"/>
      <point x="1321" y="706" type="line"/>
      <point x="928" y="706" type="line"/>
      <point x="928" y="1083" type="line"/>
      <point x="1384" y="1083" type="line"/>
      <point x="1384" y="1221" type="line"/>
      <point x="677" y="1221" type="line"/>
      <point x="247" y="334" type="line" smooth="yes"/>
      <point x="189" y="215"/>
      <point x="142" y="124"/>
      <point x="67" y="0" type="curve"/>
      <point x="234" y="0" type="line"/>
      <point x="769" y="1083" type="line"/>
      <point x="769" y="203"/>
      <point x="769" y="67"/>
      <point x="757" y="0" type="curve"/>
      <point x="1409" y="0" type="line"/>
      <point x="1409" y="150" type="line"/>
      <point x="1342" y="139"/>
      <point x="1230" y="138"/>
      <point x="1065" y="138" type="curve" smooth="yes"/>
      <point x="928" y="138" type="line"/>
      <point x="928" y="573" type="line"/>
    </contour>
    <contour>
      <point x="849.0" y="1279.0" type="move" name="U"/>
    </contour>
    <contour>
      <point x="849.0" y="-84.0" type="move" name="L"/>
    </contour>
  </outline>
</glyph>
<glyph name="MultSgn" format="1">
  <advance width="1003"/>
  <unicode hex="00D7"/>
  <outline>
    <contour>
      <point x="166" y="854" type="line"/>
      <point x="415" y="604" type="line"/>
      <point x="170" y="359" type="line"/>
      <point x="258" y="270" type="line"/>
      <point x="503" y="515" type="line"/>
      <point x="745" y="274" type="line"/>
      <point x="833" y="363" type="line"/>
      <point x="592" y="604" type="line"/>
      <point x="838" y="849" type="line"/>
      <point x="749" y="938" type="line"/>
      <point x="503" y="692" type="line"/>
      <point x="254" y="942" type="line"/>
    </contour>
  </outline>
</glyph>
<glyph name="Oslash" format="1">
  <advance width="1221"/>
  <unicode hex="00D8"/>
  <outline>
    <contour>
      <point x="957" y="598" type="curve" smooth="yes"/>
      <point x="957" y="301"/>
      <point x="807" y="125"/>
      <point x="602" y="125" type="curve" smooth="yes"/>
      <point x="385" y="125"/>
      <point x="242" y="318"/>
      <point x="242" y="623" type="curve" smooth="yes"/>
      <point x="242" y="912"/>
      <point x="390" y="1095"/>
      <point x="602" y="1095" type="curve" smooth="yes"/>
      <point x="814" y="1095"/>
      <point x="957" y="906"/>
    </contour>
    <contour>
      <point x="1120" y="619" type="curve" smooth="yes"/>
      <point x="1120" y="1019"/>
      <point x="876" y="1241"/>
      <point x="610" y="1241" type="curve" smooth="yes"/>
      <point x="340" y="1241"/>
      <point x="79" y="1002"/>
      <point x="79" y="602" type="curve" smooth="yes"/>
      <point x="79" y="201"/>
      <point x="324" y="-21"/>
      <point x="594" y="-21" type="curve" smooth="yes"/>
      <point x="860" y="-21"/>
      <point x="1120" y="217"/>
    </contour>
    <contour>
      <point x="886" y="1279" type="line"/>
      <point x="163" y="-63" type="line"/>
      <point x="287" y="-63" type="line"/>
      <point x="1008" y="1279" type="line"/>
    </contour>
    <contour>
      <point x="599" y="1279" type="move" name="U"/>
    </contour>
    <contour>
      <point x="599" y="-84" type="move" name="L"/>
    </contour>
  </outline>
</glyph>
<glyph name="Thorn" format="1">
  <advance width="1000"/>
  <unicode hex="00DE"/>
  <outline>
    <contour>
      <point x="305" y="247" type="curve"/>
      <point x="359" y="241"/>
      <point x="429" y="238"/>
      <point x="490" y="238" type="curve" smooth="yes"/>
      <point x="765" y="238"/>
      <point x="933" y="390"/>
      <point x="933" y="635" type="curve" smooth="yes"/>
      <point x="933" y="879"/>
      <point x="760" y="1003"/>
      <point x="490" y="1003" type="curve" smooth="yes"/>
      <point x="424" y="1003"/>
      <point x="362" y="1002"/>
      <point x="305" y="1001" type="curve"/>
      <point x="305" y="1221" type="line"/>
      <point x="134" y="1221" type="line"/>
      <point x="146" y="1154"/>
      <point x="146" y="1000"/>
      <point x="146" y="836" type="curve" smooth="yes"/>
      <point x="146" y="364" type="line" smooth="yes"/>
      <point x="146" y="199"/>
      <point x="146" y="67"/>
      <point x="134" y="0" type="curve"/>
      <point x="318" y="0" type="line"/>
      <point x="306" y="65"/>
      <point x="305" y="247"/>
    </contour>
    <contour>
      <point x="305" y="865" type="line"/>
      <point x="362" y="868"/>
      <point x="402" y="869"/>
      <point x="481" y="869" type="curve" smooth="yes"/>
      <point x="703" y="869"/>
      <point x="773" y="752"/>
      <point x="773" y="619" type="curve" smooth="yes"/>
      <point x="773" y="484"/>
      <point x="711" y="368"/>
      <point x="477" y="368" type="curve" smooth="yes"/>
      <point x="414" y="368"/>
      <point x="358" y="370"/>
      <point x="305" y="376" type="curve"/>
    </contour>
    <contour>
      <point x="533" y="1279" type="move" name="U"/>
    </contour>
    <contour>
      <point x="533" y="-84" type="move" name="L"/>
    </contour>
  </outline>
</glyph>
<glyph name="germandbls" format="1">
  <advance width="1035"/>
  <unicode hex="00DF"/>
  <outline>
    <contour>
      <point x="444" y="40" type="line"/>
      <point x="487" y="10"/>
      <point x="583" y="-21"/>
      <point x="663" y="-21" type="curve" smooth="yes"/>
      <point x="853" y="-21"/>
      <point x="989" y="89"/>
      <point x="989" y="274" type="curve" smooth="yes"/>
      <point x="989" y="421"/>
      <point x="881" y="498"/>
      <point x="796" y="548" type="curve" smooth="yes"/>
      <point x="722" y="592"/>
      <point x="637" y="620"/>
      <point x="637" y="706" type="curve" smooth="yes"/>
      <point x="637" y="854"/>
      <point x="905" y="806"/>
      <point x="905" y="1073" type="curve" smooth="yes"/>
      <point x="905" y="1216"/>
      <point x="776" y="1354"/>
      <point x="518" y="1354" type="curve" smooth="yes"/>
      <point x="324" y="1354"/>
      <point x="134" y="1237"/>
      <point x="134" y="936" type="curve" smooth="yes"/>
      <point x="134" y="413" type="line" smooth="yes"/>
      <point x="134" y="251"/>
      <point x="127" y="88"/>
      <point x="109" y="0" type="curve"/>
      <point x="288" y="0" type="line"/>
      <point x="288" y="953" type="line" smooth="yes"/>
      <point x="288" y="1125"/>
      <point x="407" y="1221"/>
      <point x="548" y="1221" type="curve" smooth="yes"/>
      <point x="640" y="1221"/>
      <point x="752" y="1153"/>
      <point x="752" y="1057" type="curve" smooth="yes"/>
      <point x="752" y="892"/>
      <point x="487" y="915"/>
      <point x="487" y="706" type="curve" smooth="yes"/>
      <point x="487" y="563"/>
      <point x="599" y="487"/>
      <point x="696" y="439" type="curve" smooth="yes"/>
      <point x="774" y="400"/>
      <point x="842" y="342"/>
      <point x="842" y="267" type="curve" smooth="yes"/>
      <point x="842" y="169"/>
      <point x="766" y="113"/>
      <point x="663" y="113" type="curve" smooth="yes"/>
      <point x="599" y="113"/>
      <point x="525" y="150"/>
      <point x="486" y="191" type="curve"/>
    </contour>
    <contour>
      <point x="518" y="1367" type="move" name="U"/>
    </contour>
    <contour>
      <point x="493" y="-84" type="move" name="L"/>
    </contour>
  </outline>
</glyph>
<glyph name="eth" format="1">
  <advance width="970"/>
  <unicode hex="00F0"/>
  <outline>
    <contour>
      <point x="440" y="836" type="curve" smooth="yes"/>
      <point x="276" y="836"/>
      <point x="79" y="678"/>
      <point x="79" y="407" type="curve" smooth="yes"/>
      <point x="79" y="128"/>
      <point x="239" y="-21"/>
      <point x="468" y="-21" type="curve" smooth="yes"/>
      <point x="725" y="-21"/>
      <point x="878" y="155"/>
      <point x="878" y="507" type="curve" smooth="yes"/>
      <point x="878" y="861"/>
      <point x="643" y="1214"/>
      <point x="412" y="1354" type="curve"/>
      <point x="267" y="1281" type="line"/>
      <point x="452" y="1193"/>
      <point x="645" y="951"/>
      <point x="712" y="726" type="curve"/>
      <point x="635" y="798"/>
      <point x="574" y="836"/>
    </contour>
    <contour>
      <point x="234" y="407" type="curve" smooth="yes"/>
      <point x="234" y="586"/>
      <point x="324" y="702"/>
      <point x="477" y="702" type="curve" smooth="yes"/>
      <point x="620" y="702"/>
      <point x="719" y="594"/>
      <point x="719" y="407" type="curve" smooth="yes"/>
      <point x="719" y="229"/>
      <point x="628" y="113"/>
      <point x="477" y="113" type="curve" smooth="yes"/>
      <point x="333" y="113"/>
      <point x="234" y="221"/>
    </contour>
    <contour>
      <point x="833" y="1242" type="line"/>
      <point x="762" y="1330" type="line"/>
      <point x="268" y="1025" type="line"/>
      <point x="338" y="935" type="line"/>
    </contour>
    <contour>
      <point x="478" y="1367" type="move" name="U"/>
    </contour>
    <contour>
      <point x="478" y="-84" type="move" name="L"/>
    </contour>
  </outline>
</glyph>
<glyph name="LtnCapLigOe" format="1">
  <advance width="1630"/>
  <unicode hex="0152"/>
  <outline>
    <contour>
      <point x="1530" y="0" type="line"/>
      <point x="1530" y="150" type="line"/>
      <point x="1463" y="139"/>
      <point x="1351" y="138"/>
      <point x="1186" y="138" type="curve" smooth="yes"/>
      <point x="1049" y="138" type="line"/>
      <point x="1049" y="573" type="line"/>
      <point x="1442" y="573" type="line"/>
      <point x="1442" y="706" type="line"/>
      <point x="1049" y="706" type="line"/>
      <point x="1049" y="1083" type="line"/>
      <point x="1505" y="1083" type="line"/>
      <point x="1505" y="1221" type="line"/>
      <point x="890" y="1221" type="line"/>
      <point x="890" y="1083" type="line"/>
      <point x="816" y="1176"/>
      <point x="713" y="1241"/>
      <point x="577" y="1241" type="curve" smooth="yes"/>
      <point x="315" y="1241"/>
      <point x="79" y="1002"/>
      <point x="79" y="602" type="curve" smooth="yes"/>
      <point x="79" y="201"/>
      <point x="299" y="-21"/>
      <point x="560" y="-21" type="curve" smooth="yes"/>
      <point x="685" y="-21"/>
      <point x="803" y="42"/>
      <point x="890" y="138" type="curve"/>
      <point x="890" y="0" type="line"/>
    </contour>
    <contour>
      <point x="899" y="598" type="curve" smooth="yes"/>
      <point x="899" y="301"/>
      <point x="773" y="125"/>
      <point x="568" y="125" type="curve" smooth="yes"/>
      <point x="368" y="125"/>
      <point x="242" y="318"/>
      <point x="242" y="623" type="curve" smooth="yes"/>
      <point x="242" y="912"/>
      <point x="374" y="1095"/>
      <point x="568" y="1095" type="curve" smooth="yes"/>
      <point x="781" y="1095"/>
      <point x="899" y="906"/>
    </contour>
    <contour>
      <point x="804.0" y="1279.0" type="move" name="U"/>
    </contour>
    <contour>
      <point x="804.0" y="-84.0" type="move" name="L"/>
    </contour>
  </outline>
</glyph>
<glyph name="florin" format="1">
  <advance width="610"/>
  <unicode hex="0192"/>
  <outline>
    <contour>
      <point x="17" y="711" type="line"/>
      <point x="564" y="711" type="line"/>
      <point x="564" y="832" type="line"/>
      <point x="17" y="832" type="line"/>
    </contour>
    <contour>
      <point x="656" y="1296" type="line"/>
      <point x="604" y="1333"/>
      <point x="538" y="1354"/>
      <point x="472" y="1354" type="curve" smooth="yes"/>
      <point x="292" y="1354"/>
      <point x="184" y="1229"/>
      <point x="184" y="978" type="curve" smooth="yes"/>
      <point x="184" y="909"/>
      <point x="184" y="65"/>
      <point x="184" y="-21" type="curve" smooth="yes"/>
      <point x="184" y="-186"/>
      <point x="121" y="-251"/>
      <point x="32" y="-251" type="curve" smooth="yes"/>
      <point x="-15" y="-251"/>
      <point x="-93" y="-228"/>
      <point x="-130" y="-201" type="curve"/>
      <point x="-159" y="-339" type="line"/>
      <point x="-109" y="-373"/>
      <point x="-23" y="-393"/>
      <point x="24" y="-393" type="curve" smooth="yes"/>
      <point x="215" y="-393"/>
      <point x="339" y="-291"/>
      <point x="339" y="21" type="curve" smooth="yes"/>
      <point x="339" y="613"/>
      <point x="339" y="812"/>
      <point x="339" y="1012" type="curve" smooth="yes"/>
      <point x="339" y="1163"/>
      <point x="385" y="1221"/>
      <point x="472" y="1221" type="curve" smooth="yes"/>
      <point x="521" y="1221"/>
      <point x="576" y="1201"/>
      <point x="618" y="1170" type="curve"/>
    </contour>
    <contour>
      <point x="451" y="1367" type="move" name="U"/>
    </contour>
    <contour>
      <point x="248" y="-418" type="move" name="L"/>
    </contour>
  </outline>
</glyph>
<glyph name="LtnCapEsh" format="1">
  <advance width="1028"/>
  <unicode hex="01A9"/>
  <outline>
    <contour>
      <point x="594" y="628" type="line"/>
      <point x="284" y="1083" type="line"/>
      <point x="568" y="1083" type="line" smooth="yes"/>
      <point x="733" y="1083"/>
      <point x="832" y="1080"/>
      <point x="899" y="1066" type="curve"/>
      <point x="899" y="1221" type="line"/>
      <point x="88" y="1221" type="line"/>
      <point x="88" y="1112" type="line"/>
      <point x="419" y="627" type="line"/>
      <point x="63" y="109" type="line"/>
      <point x="63" y="0" type="line"/>
      <point x="949" y="0" type="line"/>
      <point x="949" y="155" type="line"/>
      <point x="882" y="143"/>
      <point x="726" y="138"/>
      <point x="585" y="138" type="curve"/>
      <point x="234" y="138" type="line"/>
    </contour>
    <contour>
      <point x="506.0" y="1279.0" type="move" name="U"/>
    </contour>
    <contour>
      <point x="506.0" y="-84.0" type="move" name="L"/>
    </contour>
  </outline>
</glyph>
<glyph name="ModCircumAccent" format="1">
  <advance width="727"/>
  <unicode hex="02C6"/>
  <outline>
    <contour>
      <point x="134" y="978" type="line"/>
      <point x="364" y="1212" type="line"/>
      <point x="594" y="978" type="line"/>
      <point x="719" y="978" type="line"/>
      <point x="435" y="1338" type="line"/>
      <point x="293" y="1338" type="line"/>
      <point x="8" y="978" type="line"/>
    </contour>
  </outline>
</glyph>
<glyph name="caron" format="1">
  <advance width="711"/>
  <unicode hex="02C7"/>
  <outline>
    <contour>
      <point x="0" y="1338" type="line"/>
      <point x="284" y="978" type="line"/>
      <point x="426" y="978" type="line"/>
      <point x="711" y="1338" type="line"/>
      <point x="585" y="1338" type="line"/>
      <point x="355" y="1104" type="line"/>
      <point x="125" y="1338" type="line"/>
    </contour>
    <contour>
      <point x="355" y="1367" type="move" name="U"/>
    </contour>
  </outline>
</glyph>
<glyph name="DotAbv" format="1">
  <advance width="226"/>
  <unicode hex="02D9"/>
  <outline>
    <contour>
      <point x="0" y="1124" type="curve" smooth="yes"/>
      <point x="0" y="1063"/>
      <point x="51" y="1012"/>
      <point x="113" y="1012" type="curve" smooth="yes"/>
      <point x="175" y="1012"/>
      <point x="226" y="1063"/>
      <point x="226" y="1124" type="curve" smooth="yes"/>
      <point x="226" y="1186"/>
      <point x="175" y="1237"/>
      <point x="113" y="1237" type="curve" smooth="yes"/>
      <point x="51" y="1237"/>
      <point x="0" y="1186"/>
    </contour>
  </outline>
</glyph>
<glyph name="Ogonek" format="1">
  <advance width="372"/>
  <unicode hex="02DB"/>
  <outline>
    <contour>
      <point x="171" y="0" type="line"/>
      <point x="84" y="-42"/>
      <point x="38" y="-101"/>
      <point x="38" y="-188" type="curve" smooth="yes"/>
      <point x="38" y="-288"/>
      <point x="136" y="-359"/>
      <point x="238" y="-359" type="curve" smooth="yes"/>
      <point x="300" y="-359"/>
      <point x="361" y="-333"/>
      <point x="410" y="-284" type="curve"/>
      <point x="385" y="-201" type="line"/>
      <point x="354" y="-237"/>
      <point x="291" y="-263"/>
      <point x="255" y="-263" type="curve" smooth="yes"/>
      <point x="193" y="-263"/>
      <point x="155" y="-226"/>
      <point x="155" y="-163" type="curve" smooth="yes"/>
      <point x="155" y="-105"/>
      <point x="202" y="-54"/>
      <point x="288" y="0" type="curve"/>
    </contour>
    <contour>
      <point x="297.0" y="-334.0" type="move" name="L"/>
    </contour>
  </outline>
</glyph>
<glyph name="tilde" format="1">
  <advance width="594"/>
  <unicode hex="02DC"/>
  <outline>
    <contour>
      <point x="88" y="1007" type="line"/>
      <point x="92" y="1048"/>
      <point x="118" y="1078"/>
      <point x="159" y="1078" type="curve" smooth="yes"/>
      <point x="190" y="1078"/>
      <point x="224" y="1065"/>
      <point x="288" y="1035" type="curve" smooth="yes"/>
      <point x="339" y="1012"/>
      <point x="384" y="995"/>
      <point x="428" y="995" type="curve" smooth="yes"/>
      <point x="531" y="995"/>
      <point x="594" y="1097"/>
      <point x="594" y="1204" type="curve"/>
      <point x="506" y="1204" type="line"/>
      <point x="500" y="1165"/>
      <point x="474" y="1133"/>
      <point x="435" y="1133" type="curve" smooth="yes"/>
      <point x="400" y="1133"/>
      <point x="365" y="1149"/>
      <point x="305" y="1173" type="curve" smooth="yes"/>
      <point x="247" y="1196"/>
      <point x="207" y="1216"/>
      <point x="161" y="1216" type="curve" smooth="yes"/>
      <point x="61" y="1216"/>
      <point x="0" y="1109"/>
      <point x="0" y="1007" type="curve"/>
    </contour>
  </outline>
</glyph>
<glyph name="hungarumlaut" format="1">
  <advance width="660"/>
  <unicode hex="02DD"/>
  <outline>
    <contour>
      <point x="485" y="1338" type="line"/>
      <point x="284" y="961" type="line"/>
      <point x="401" y="961" type="line"/>
      <point x="660" y="1338" type="line"/>
    </contour>
    <contour>
      <point x="201" y="1338" type="line"/>
      <point x="0" y="961" type="line"/>
      <point x="117" y="961" type="line"/>
      <point x="376" y="1338" type="line"/>
    </contour>
  </outline>
</glyph>
<glyph name="gravecomb" format="1">
  <advance width="0"/>
  <unicode hex="0300"/>
  <outline>
    <contour>
      <point x="-786" y="1338" type="line"/>
      <point x="-435" y="978" type="line"/>
      <point x="-301" y="978" type="line"/>
      <point x="-594" y="1338" type="line"/>
    </contour>
    <contour>
      <point x="-460" y="1367" type="move" name="U"/>
    </contour>
    <contour>
      <point x="-460" y="920" type="move" name="_U"/>
    </contour>
  </outline>
</glyph>
<glyph name="CombCircum" format="1">
  <advance width="0"/>
  <unicode hex="0302"/>
  <outline>
    <contour>
      <point x="-706" y="978" type="line"/>
      <point x="-477" y="1212" type="line"/>
      <point x="-247" y="978" type="line"/>
      <point x="-121" y="978" type="line"/>
      <point x="-405" y="1338" type="line"/>
      <point x="-548" y="1338" type="line"/>
      <point x="-832" y="978" type="line"/>
    </contour>
    <contour>
      <point x="-477.0" y="1367.0" type="move" name="U"/>
    </contour>
    <contour>
      <point x="-477.0" y="920.0" type="move" name="_U"/>
    </contour>
  </outline>
</glyph>
<glyph name="circumflexcomb" format="1">
  <advance width="0"/>
  <unicode hex="0302"/>
  <outline>
    <contour>
      <point x="-706" y="978" type="line"/>
      <point x="-477" y="1212" type="line"/>
      <point x="-247" y="978" type="line"/>
      <point x="-121" y="978" type="line"/>
      <point x="-405" y="1338" type="line"/>
      <point x="-548" y="1338" type="line"/>
      <point x="-832" y="978" type="line"/>
    </contour>
    <contour>
      <point x="-477" y="1367" type="move" name="U"/>
    </contour>
    <contour>
      <point x="-477" y="920" type="move" name="_U"/>
    </contour>
  </outline>
</glyph>
<glyph name="CombDiaer" format="1">
  <advance width="0"/>
  <unicode hex="0308"/>
  <outline>
    <contour>
      <point x="-410" y="1124" type="curve" smooth="yes"/>
      <point x="-410" y="1063"/>
      <point x="-363" y="1012"/>
      <point x="-301" y="1012" type="curve" smooth="yes"/>
      <point x="-238" y="1012"/>
      <point x="-192" y="1063"/>
      <point x="-192" y="1124" type="curve" smooth="yes"/>
      <point x="-192" y="1186"/>
      <point x="-238" y="1237"/>
      <point x="-301" y="1237" type="curve" smooth="yes"/>
      <point x="-363" y="1237"/>
      <point x="-410" y="1186"/>
    </contour>
    <contour>
      <point x="-761" y="1124" type="curve" smooth="yes"/>
      <point x="-761" y="1063"/>
      <point x="-714" y="1012"/>
      <point x="-652" y="1012" type="curve" smooth="yes"/>
      <point x="-589" y="1012"/>
      <point x="-543" y="1063"/>
      <point x="-543" y="1124" type="curve" smooth="yes"/>
      <point x="-543" y="1186"/>
      <point x="-589" y="1237"/>
      <point x="-652" y="1237" type="curve" smooth="yes"/>
      <point x="-714" y="1237"/>
      <point x="-761" y="1186"/>
    </contour>
    <contour>
      <point x="-477.0" y="1258.0" type="move" name="U"/>
    </contour>
    <contour>
      <point x="-477.0" y="920.0" type="move" name="_U"/>
    </contour>
  </outline>
</glyph>
<glyph name="dieresiscomb" format="1">
  <advance width="0"/>
  <unicode hex="0308"/>
  <outline>
    <contour>
      <point x="-410" y="1124" type="curve" smooth="yes"/>
      <point x="-410" y="1063"/>
      <point x="-363" y="1012"/>
      <point x="-301" y="1012" type="curve" smooth="yes"/>
      <point x="-238" y="1012"/>
      <point x="-192" y="1063"/>
      <point x="-192" y="1124" type="curve" smooth="yes"/>
      <point x="-192" y="1186"/>
      <point x="-238" y="1237"/>
      <point x="-301" y="1237" type="curve" smooth="yes"/>
      <point x="-363" y="1237"/>
      <point x="-410" y="1186"/>
    </contour>
    <contour>
      <point x="-761" y="1124" type="curve" smooth="yes"/>
      <point x="-761" y="1063"/>
      <point x="-714" y="1012"/>
      <point x="-652" y="1012" type="curve" smooth="yes"/>
      <point x="-589" y="1012"/>
      <point x="-543" y="1063"/>
      <point x="-543" y="1124" type="curve" smooth="yes"/>
      <point x="-543" y="1186"/>
      <point x="-589" y="1237"/>
      <point x="-652" y="1237" type="curve" smooth="yes"/>
      <point x="-714" y="1237"/>
      <point x="-761" y="1186"/>
    </contour>
    <contour>
      <point x="-477" y="1258" type="move" name="U"/>
    </contour>
    <contour>
      <point x="-477" y="920" type="move" name="_U"/>
    </contour>
  </outline>
</glyph>
<glyph name="Omega" format="1">
  <advance width="1348"/>
  <unicode hex="03A9"/>
  <outline>
    <contour>
      <point x="915" y="99" type="line"/>
      <point x="1048" y="206"/>
      <point x="1237" y="378"/>
      <point x="1237" y="677" type="curve" smooth="yes"/>
      <point x="1237" y="1043"/>
      <point x="967" y="1241"/>
      <point x="673" y="1241" type="curve" smooth="yes"/>
      <point x="381" y="1241"/>
      <point x="113" y="1028"/>
      <point x="113" y="648" type="curve" smooth="yes"/>
      <point x="113" y="381"/>
      <point x="282" y="201"/>
      <point x="405" y="97" type="curve"/>
      <point x="506" y="138" type="line"/>
      <point x="395" y="263"/>
      <point x="276" y="430"/>
      <point x="276" y="669" type="curve" smooth="yes"/>
      <point x="276" y="928"/>
      <point x="443" y="1095"/>
      <point x="665" y="1095" type="curve" smooth="yes"/>
      <point x="899" y="1095"/>
      <point x="1074" y="943"/>
      <point x="1074" y="648" type="curve" smooth="yes"/>
      <point x="1074" y="414"/>
      <point x="926" y="239"/>
      <point x="822" y="138" type="curve"/>
    </contour>
    <contour>
      <point x="822" y="0" type="line"/>
      <point x="1269" y="0" type="line"/>
      <point x="1269" y="150" type="line"/>
      <point x="1202" y="139"/>
      <point x="986" y="138"/>
      <point x="822" y="138" type="curve"/>
    </contour>
    <contour>
      <point x="506" y="138" type="line"/>
      <point x="341" y="138"/>
      <point x="125" y="139"/>
      <point x="59" y="150" type="curve"/>
      <point x="59" y="0" type="line"/>
      <point x="506" y="0" type="line"/>
    </contour>
  </outline>
</glyph>
<glyph name="uni1981" format="1">
  <advance width="1785"/>
  <unicode hex="1981"/>
  <outline>
    <contour>
      <point x="500" y="-20" type="curve" smooth="yes"/>
      <point x="353" y="-20"/>
      <point x="227" y="38"/>
      <point x="120" y="175" type="curve" smooth="yes"/>
      <point x="112" y="185"/>
      <point x="116" y="199"/>
      <point x="126" y="207" type="curve" smooth="yes"/>
      <point x="195" y="261" type="line" smooth="yes"/>
      <point x="205" y="269"/>
      <point x="218" y="265"/>
      <point x="225" y="255" type="curve" smooth="yes"/>
      <point x="306" y="148"/>
      <point x="389" y="105"/>
      <point x="500" y="105" type="curve" smooth="yes"/>
      <point x="657" y="105"/>
      <point x="815" y="199"/>
      <point x="815" y="451" type="curve" smooth="yes"/>
      <point x="815" y="690"/>
      <point x="662" y="805"/>
      <point x="490" y="805" type="curve" smooth="yes"/>
      <point x="379" y="805"/>
      <point x="296" y="762"/>
      <point x="215" y="655" type="curve" smooth="yes"/>
      <point x="208" y="645"/>
      <point x="196" y="642"/>
      <point x="185" y="649" type="curve"/>
      <point x="116" y="703" type="line"/>
      <point x="105" y="710"/>
      <point x="102" y="725"/>
      <point x="110" y="735" type="curve" smooth="yes"/>
      <point x="217" y="872"/>
      <point x="343" y="930"/>
      <point x="490" y="930" type="curve" smooth="yes"/>
      <point x="755" y="930"/>
      <point x="940" y="739"/>
      <point x="940" y="451" type="curve" smooth="yes"/>
      <point x="940" y="147"/>
      <point x="756" y="-20"/>
    </contour>
    <contour>
      <point x="880.24" y="643" type="curve" smooth="yes"/>
      <point x="872.24" y="634"/>
      <point x="860.24" y="629"/>
      <point x="850.24" y="637" type="curve" smooth="yes"/>
      <point x="791.24" y="691" type="line" smooth="yes"/>
      <point x="781.793" y="699.646"/>
      <point x="777.24" y="713"/>
      <point x="785.24" y="723" type="curve"/>
      <point x="871.24" y="814"/>
      <point x="1004" y="930"/>
      <point x="1210" y="930" type="curve" smooth="yes"/>
      <point x="1487" y="930"/>
      <point x="1675" y="772"/>
      <point x="1675" y="480" type="curve" smooth="yes"/>
      <point x="1675" y="238"/>
      <point x="1512" y="41"/>
      <point x="1157" y="40" type="curve" smooth="yes"/>
      <point x="1147" y="40"/>
      <point x="1137" y="48"/>
      <point x="1137" y="57" type="curve" smooth="yes"/>
      <point x="1137" y="107" type="line" smooth="yes"/>
      <point x="1137" y="118"/>
      <point x="1147" y="125"/>
      <point x="1157" y="125" type="curve" smooth="yes"/>
      <point x="1397" y="125"/>
      <point x="1550" y="300"/>
      <point x="1550" y="480" type="curve" smooth="yes"/>
      <point x="1550" y="700"/>
      <point x="1386" y="805"/>
      <point x="1210" y="805" type="curve" smooth="yes"/>
      <point x="1077" y="805"/>
      <point x="963.24" y="730"/>
    </contour>
    <contour>
      <point x="1680" y="-295" type="curve" smooth="yes"/>
      <point x="1680" y="-598"/>
      <point x="1416" y="-740"/>
      <point x="1159" y="-740" type="curve" smooth="yes"/>
      <point x="931" y="-740"/>
      <point x="753" y="-574"/>
      <point x="703" y="-442" type="curve" smooth="yes"/>
      <point x="699" y="-432"/>
      <point x="707" y="-420"/>
      <point x="717" y="-416" type="curve" smooth="yes"/>
      <point x="749" y="-405" type="line" smooth="yes"/>
      <point x="757" y="-402"/>
      <point x="769" y="-410"/>
      <point x="774" y="-420" type="curve" smooth="yes"/>
      <point x="829" y="-530"/>
      <point x="963" y="-635"/>
      <point x="1159" y="-635" type="curve" smooth="yes"/>
      <point x="1336" y="-635"/>
      <point x="1555" y="-545"/>
      <point x="1555" y="-295" type="curve" smooth="yes"/>
      <point x="1555" y="-58"/>
      <point x="1344" y="40"/>
      <point x="1160" y="40" type="curve"/>
      <point x="1160" y="125" type="line"/>
      <point x="1510" y="125"/>
      <point x="1680" y="-32"/>
    </contour>
    <contour>
      <point x="565.5" y="1110" type="curve" smooth="yes"/>
      <point x="555.5" y="1110"/>
      <point x="545.5" y="1117"/>
      <point x="545.5" y="1128" type="curve" smooth="yes"/>
      <point x="545.5" y="1198" type="line" smooth="yes"/>
      <point x="545.5" y="1207"/>
      <point x="555.5" y="1215"/>
      <point x="565.5" y="1215" type="curve" smooth="yes"/>
      <point x="672.5" y="1215"/>
      <point x="860.5" y="1334"/>
      <point x="860.5" y="1505" type="curve" smooth="yes"/>
      <point x="860.5" y="1515"/>
      <point x="868.5" y="1525"/>
      <point x="877.5" y="1525" type="curve" smooth="yes"/>
      <point x="927.5" y="1525" type="line" smooth="yes"/>
      <point x="938.5" y="1525"/>
      <point x="945.5" y="1515"/>
      <point x="945.5" y="1505" type="curve" smooth="yes"/>
      <point x="945.5" y="1310"/>
      <point x="741.5" y="1110"/>
    </contour>
    <contour>
      <point x="1240.5" y="1110" type="curve" smooth="yes"/>
      <point x="1064.5" y="1110"/>
      <point x="860.5" y="1310"/>
      <point x="860.5" y="1505" type="curve" smooth="yes"/>
      <point x="860.5" y="1515"/>
      <point x="867.5" y="1525"/>
      <point x="878.5" y="1525" type="curve" smooth="yes"/>
      <point x="928.5" y="1525" type="line" smooth="yes"/>
      <point x="937.5" y="1525"/>
      <point x="945.5" y="1515"/>
      <point x="945.5" y="1505" type="curve" smooth="yes"/>
      <point x="945.5" y="1334"/>
      <point x="1133.5" y="1215"/>
      <point x="1240.5" y="1215" type="curve" smooth="yes"/>
      <point x="1250.5" y="1215"/>
      <point x="1260.5" y="1207"/>
      <point x="1260.5" y="1198" type="curve" smooth="yes"/>
      <point x="1260.5" y="1128" type="line" smooth="yes"/>
      <point x="1260.5" y="1117"/>
      <point x="1250.5" y="1110"/>
    </contour>
  </outline>
</glyph>
<glyph name="uni1982" format="1">
  <advance width="1805"/>
  <unicode hex="1982"/>
  <outline>
    <contour>
      <point x="945" y="530" type="curve" smooth="yes"/>
      <point x="945" y="520"/>
      <point x="937" y="510"/>
      <point x="928" y="510" type="curve" smooth="yes"/>
      <point x="878" y="510" type="line" smooth="yes"/>
      <point x="867" y="510"/>
      <point x="860" y="520"/>
      <point x="860" y="530" type="curve" smooth="yes"/>
      <point x="860" y="579"/>
      <point x="871" y="635"/>
      <point x="881" y="672" type="curve" smooth="yes"/>
      <point x="922" y="826"/>
      <point x="1083" y="930"/>
      <point x="1260" y="930" type="curve" smooth="yes"/>
      <point x="1527" y="930"/>
      <point x="1695" y="722"/>
      <point x="1695" y="460" type="curve" smooth="yes"/>
      <point x="1695" y="248"/>
      <point x="1605" y="-19"/>
      <point x="1360" y="-20" type="curve" smooth="yes"/>
      <point x="1328" y="-20"/>
      <point x="1291" y="-15"/>
      <point x="1260" y="-2" type="curve" smooth="yes"/>
      <point x="1250" y="2"/>
      <point x="1247" y="14"/>
      <point x="1252" y="23" type="curve" smooth="yes"/>
      <point x="1298" y="102" type="line" smooth="yes"/>
      <point x="1302" y="110"/>
      <point x="1314" y="110"/>
      <point x="1325" y="108" type="curve" smooth="yes"/>
      <point x="1334" y="106"/>
      <point x="1349" y="105"/>
      <point x="1360" y="105" type="curve" smooth="yes"/>
      <point x="1520" y="105"/>
      <point x="1570" y="316"/>
      <point x="1570" y="460" type="curve" smooth="yes"/>
      <point x="1570" y="660"/>
      <point x="1426" y="805"/>
      <point x="1260" y="805" type="curve" smooth="yes"/>
      <point x="1093" y="805"/>
      <point x="945" y="701"/>
    </contour>
    <contour>
      <point x="860" y="530" type="curve" smooth="yes"/>
      <point x="860" y="701"/>
      <point x="712" y="805"/>
      <point x="545" y="805" type="curve" smooth="yes"/>
      <point x="379" y="805"/>
      <point x="235" y="660"/>
      <point x="235" y="460" type="curve" smooth="yes"/>
      <point x="235" y="320"/>
      <point x="285" y="105"/>
      <point x="445" y="105" type="curve" smooth="yes"/>
      <point x="456" y="105"/>
      <point x="471" y="106"/>
      <point x="480" y="108" type="curve" smooth="yes"/>
      <point x="491" y="110"/>
      <point x="503" y="110"/>
      <point x="507" y="102" type="curve" smooth="yes"/>
      <point x="553" y="23" type="line" smooth="yes"/>
      <point x="558" y="14"/>
      <point x="555" y="2"/>
      <point x="545" y="-2" type="curve" smooth="yes"/>
      <point x="514" y="-15"/>
      <point x="477" y="-20"/>
      <point x="445" y="-20" type="curve" smooth="yes"/>
      <point x="200" y="-19"/>
      <point x="110" y="248"/>
      <point x="110" y="460" type="curve" smooth="yes"/>
      <point x="110" y="722"/>
      <point x="278" y="930"/>
      <point x="545" y="930" type="curve" smooth="yes"/>
      <point x="722" y="930"/>
      <point x="883" y="826"/>
      <point x="924" y="672" type="curve" smooth="yes"/>
      <point x="934" y="635"/>
      <point x="945" y="579"/>
      <point x="945" y="530" type="curve" smooth="yes"/>
      <point x="945" y="520"/>
      <point x="938" y="510"/>
      <point x="927" y="510" type="curve" smooth="yes"/>
      <point x="877" y="510" type="line" smooth="yes"/>
      <point x="868" y="510"/>
      <point x="860" y="520"/>
    </contour>
  </outline>
</glyph>
<glyph name="uni1983" format="1">
  <advance width="1185"/>
  <unicode hex="1983"/>
  <outline>
    <contour>
      <point x="120" y="-413" type="curve" smooth="yes"/>
      <point x="116" y="-404"/>
      <point x="123" y="-393"/>
      <point x="133" y="-389" type="curve" smooth="yes"/>
      <point x="163" y="-379" type="line" smooth="yes"/>
      <point x="170" y="-376"/>
      <point x="182" y="-384"/>
      <point x="186" y="-393" type="curve" smooth="yes"/>
      <point x="252" y="-517"/>
      <point x="358" y="-594"/>
      <point x="536" y="-594" type="curve" smooth="yes"/>
      <point x="767" y="-594"/>
      <point x="907" y="-402"/>
      <point x="907" y="-159" type="curve" smooth="yes"/>
      <point x="907" y="141"/>
      <point x="749" y="327"/>
      <point x="471" y="327" type="curve" smooth="yes"/>
      <point x="343" y="327"/>
      <point x="219" y="283"/>
      <point x="219" y="201" type="curve" smooth="yes"/>
      <point x="219" y="128"/>
      <point x="343" y="84"/>
      <point x="467" y="84" type="curve" smooth="yes"/>
      <point x="707" y="84"/>
      <point x="888" y="213"/>
      <point x="888" y="439" type="curve" smooth="yes"/>
      <point x="888" y="644"/>
      <point x="754" y="753"/>
      <point x="537" y="753" type="curve" smooth="yes"/>
      <point x="386" y="753"/>
      <point x="271" y="684"/>
      <point x="214" y="584" type="curve" smooth="yes"/>
      <point x="209" y="574"/>
      <point x="195" y="571"/>
      <point x="186" y="579" type="curve" smooth="yes"/>
      <point x="122" y="629" type="line" smooth="yes"/>
      <point x="112" y="637"/>
      <point x="109" y="649"/>
      <point x="116" y="659" type="curve" smooth="yes"/>
      <point x="197" y="797"/>
      <point x="343" y="870"/>
      <point x="537" y="870" type="curve" smooth="yes"/>
      <point x="850" y="870"/>
      <point x="1005" y="681"/>
      <point x="1005" y="439" type="curve" smooth="yes"/>
      <point x="1005" y="155"/>
      <point x="790" y="-19"/>
      <point x="467" y="-19" type="curve" smooth="yes"/>
      <point x="285" y="-19"/>
      <point x="116" y="67"/>
      <point x="116" y="201" type="curve" smooth="yes"/>
      <point x="116" y="354"/>
      <point x="285" y="430"/>
      <point x="471" y="430" type="curve" smooth="yes"/>
      <point x="814" y="430"/>
      <point x="1024" y="218"/>
      <point x="1024" y="-159" type="curve" smooth="yes"/>
      <point x="1024" y="-470"/>
      <point x="842" y="-692"/>
      <point x="536" y="-692" type="curve" smooth="yes"/>
      <point x="328" y="-692"/>
      <point x="187" y="-567"/>
    </contour>
  </outline>
</glyph>
<glyph name="uni1984" format="1">
  <advance width="1735"/>
  <unicode hex="1984"/>
  <outline>
    <contour>
      <point x="982" y="-739" type="curve" smooth="yes"/>
      <point x="967.677" y="-733.629"/>
      <point x="956" y="-724"/>
      <point x="944" y="-718" type="curve" smooth="yes"/>
      <point x="935.562" y="-713.781"/>
      <point x="939.945" y="-696.294"/>
      <point x="941" y="-694" type="curve" smooth="yes"/>
      <point x="973.621" y="-623.048"/>
      <point x="980" y="-577"/>
      <point x="980" y="-539" type="curve" smooth="yes"/>
      <point x="980" y="-453"/>
      <point x="923" y="-410"/>
      <point x="868" y="-410" type="curve" smooth="yes"/>
      <point x="712" y="-410"/>
      <point x="788" y="-740"/>
      <point x="525" y="-740" type="curve" smooth="yes"/>
      <point x="401" y="-740"/>
      <point x="295" y="-645"/>
      <point x="295" y="-485" type="curve" smooth="yes"/>
      <point x="295" y="-263"/>
      <point x="447" y="-115"/>
      <point x="868" y="-115" type="curve" smooth="yes"/>
      <point x="1296.21" y="-115"/>
      <point x="1440.21" y="-307"/>
      <point x="1440.21" y="-475" type="curve" smooth="yes"/>
      <point x="1440.21" y="-563"/>
      <point x="1412.07" y="-638.949"/>
      <point x="1365" y="-713" type="curve" smooth="yes"/>
      <point x="1355.34" y="-728.19"/>
      <point x="1343.8" y="-743.585"/>
      <point x="1332" y="-740" type="curve" smooth="yes"/>
      <point x="1319.42" y="-736.178"/>
      <point x="1294" y="-720"/>
      <point x="1285" y="-715" type="curve" smooth="yes"/>
      <point x="1276.26" y="-710.144"/>
      <point x="1279.15" y="-704.812"/>
      <point x="1288" y="-688" type="curve" smooth="yes"/>
      <point x="1308" y="-650"/>
      <point x="1330.11" y="-587"/>
      <point x="1330.11" y="-505" type="curve" smooth="yes"/>
      <point x="1330.11" y="-340"/>
      <point x="1186.62" y="-220"/>
      <point x="868" y="-220" type="curve" smooth="yes"/>
      <point x="526" y="-220"/>
      <point x="405" y="-337"/>
      <point x="405" y="-485" type="curve" smooth="yes"/>
      <point x="405" y="-584"/>
      <point x="457" y="-635"/>
      <point x="525" y="-635" type="curve" smooth="yes"/>
      <point x="700" y="-635"/>
      <point x="629" y="-310"/>
      <point x="868" y="-310" type="curve" smooth="yes"/>
      <point x="989.549" y="-310"/>
      <point x="1070" y="-406"/>
      <point x="1070" y="-508" type="curve" smooth="yes"/>
      <point x="1070" y="-568"/>
      <point x="1047" y="-637"/>
      <point x="1015" y="-708" type="curve" smooth="yes"/>
      <point x="1004.37" y="-731.588"/>
      <point x="990" y="-742"/>
    </contour>
    <component base="uni19A0"/>
    <component base="uni19A0"/>
  </outline>
</glyph>
<glyph name="uni1985" format="1">
  <advance width="1250"/>
  <unicode hex="1985"/>
  <outline>
    <contour>
      <point x="103" y="393" type="curve" smooth="yes"/>
      <point x="103" y="678"/>
      <point x="315" y="870"/>
      <point x="584" y="870" type="curve" smooth="yes"/>
      <point x="878" y="870"/>
      <point x="1066" y="688"/>
      <point x="1066" y="402" type="curve" smooth="yes"/>
      <point x="1066" y="195"/>
      <point x="990" y="69"/>
      <point x="823" y="-16" type="curve" smooth="yes"/>
      <point x="819" y="-18"/>
      <point x="815" y="-19"/>
      <point x="812" y="-19" type="curve" smooth="yes"/>
      <point x="806" y="-19"/>
      <point x="801" y="-15"/>
      <point x="798" y="-10" type="curve" smooth="yes"/>
      <point x="754" y="63" type="line" smooth="yes"/>
      <point x="749" y="70"/>
      <point x="753" y="83"/>
      <point x="762" y="87" type="curve" smooth="yes"/>
      <point x="888" y="141"/>
      <point x="949" y="231"/>
      <point x="949" y="402" type="curve" smooth="yes"/>
      <point x="949" y="586"/>
      <point x="820" y="753"/>
      <point x="584" y="753" type="curve" smooth="yes"/>
      <point x="352" y="753"/>
      <point x="220" y="582"/>
      <point x="220" y="393" type="curve" smooth="yes"/>
      <point x="220" y="252"/>
      <point x="288" y="160"/>
      <point x="388" y="84" type="curve" smooth="yes"/>
      <point x="397" y="78"/>
      <point x="400" y="66"/>
      <point x="394" y="56" type="curve"/>
      <point x="343" y="-8" type="line"/>
      <point x="337" y="-15"/>
      <point x="332" y="-19"/>
      <point x="325" y="-19" type="curve" smooth="yes"/>
      <point x="322" y="-19"/>
      <point x="317" y="-17"/>
      <point x="313" y="-14" type="curve" smooth="yes"/>
      <point x="176" y="86"/>
      <point x="103" y="209"/>
    </contour>
  </outline>
</glyph>
<glyph name="uni1986" format="1">
  <advance width="1169"/>
  <unicode hex="1986"/>
  <outline>
    <contour>
      <point x="103" y="393" type="curve" smooth="yes"/>
      <point x="103" y="678"/>
      <point x="315" y="870"/>
      <point x="584" y="870" type="curve" smooth="yes"/>
      <point x="878" y="870"/>
      <point x="1066" y="688"/>
      <point x="1066" y="402" type="curve" smooth="yes"/>
      <point x="1066" y="195"/>
      <point x="990" y="69"/>
      <point x="823" y="-16" type="curve" smooth="yes"/>
      <point x="819" y="-18"/>
      <point x="815" y="-19"/>
      <point x="812" y="-19" type="curve" smooth="yes"/>
      <point x="806" y="-19"/>
      <point x="801" y="-15"/>
      <point x="798" y="-10" type="curve" smooth="yes"/>
      <point x="754" y="63" type="line" smooth="yes"/>
      <point x="749" y="70"/>
      <point x="753" y="83"/>
      <point x="762" y="87" type="curve" smooth="yes"/>
      <point x="888" y="141"/>
      <point x="949" y="231"/>
      <point x="949" y="402" type="curve" smooth="yes"/>
      <point x="949" y="586"/>
      <point x="820" y="753"/>
      <point x="584" y="753" type="curve" smooth="yes"/>
      <point x="352" y="753"/>
      <point x="220" y="582"/>
      <point x="220" y="393" type="curve" smooth="yes"/>
      <point x="220" y="252"/>
      <point x="288" y="160"/>
      <point x="388" y="84" type="curve" smooth="yes"/>
      <point x="397" y="78"/>
      <point x="400" y="66"/>
      <point x="394" y="56" type="curve"/>
      <point x="343" y="-8" type="line"/>
      <point x="337" y="-15"/>
      <point x="332" y="-19"/>
      <point x="325" y="-19" type="curve" smooth="yes"/>
      <point x="322" y="-19"/>
      <point x="317" y="-17"/>
      <point x="313" y="-14" type="curve" smooth="yes"/>
      <point x="176" y="86"/>
      <point x="103" y="209"/>
    </contour>
    <contour>
      <point x="612" y="1451" type="curve" smooth="yes"/>
      <point x="335" y="1451"/>
      <point x="243" y="1223"/>
      <point x="243" y="982" type="curve" smooth="yes"/>
      <point x="243" y="848"/>
      <point x="252" y="744"/>
      <point x="265" y="670" type="curve"/>
      <point x="156" y="565" type="line"/>
      <point x="142" y="659"/>
      <point x="126" y="804"/>
      <point x="126" y="982" type="curve" smooth="yes"/>
      <point x="126" y="1274"/>
      <point x="251" y="1540"/>
      <point x="612" y="1540" type="curve" smooth="yes"/>
      <point x="825" y="1540"/>
      <point x="973" y="1403"/>
      <point x="1011" y="1289" type="curve" smooth="yes"/>
      <point x="1014" y="1280"/>
      <point x="1007" y="1269"/>
      <point x="998" y="1265" type="curve" smooth="yes"/>
      <point x="968" y="1255" type="line" smooth="yes"/>
      <point x="960" y="1252"/>
      <point x="948" y="1259"/>
      <point x="944" y="1269" type="curve" smooth="yes"/>
      <point x="902" y="1362"/>
      <point x="796" y="1451"/>
    </contour>
    <contour>
      <point x="584" y="-100" type="move" name="bottom"/>
    </contour>
  </outline>
</glyph>
<glyph name="uni1987" format="1">
  <advance width="1225"/>
  <unicode hex="1987"/>
  <outline>
    <contour>
      <point x="552" y="-594" type="curve" smooth="yes"/>
      <point x="800" y="-594"/>
      <point x="926" y="-298"/>
      <point x="926" y="136" type="curve" smooth="yes"/>
      <point x="926" y="535"/>
      <point x="785" y="753"/>
      <point x="556" y="753" type="curve" smooth="yes"/>
      <point x="332" y="753"/>
      <point x="220" y="559"/>
      <point x="220" y="369" type="curve" smooth="yes"/>
      <point x="220" y="202"/>
      <point x="231" y="98"/>
      <point x="313" y="98" type="curve" smooth="yes"/>
      <point x="351" y="98"/>
      <point x="394" y="137"/>
      <point x="433" y="188" type="curve" smooth="yes"/>
      <point x="476" y="245"/>
      <point x="533" y="299"/>
      <point x="594" y="299" type="curve" smooth="yes"/>
      <point x="699" y="299"/>
      <point x="771" y="226"/>
      <point x="771" y="122" type="curve" smooth="yes"/>
      <point x="771" y="39"/>
      <point x="703" y="-20"/>
      <point x="665" y="-41" type="curve" smooth="yes"/>
      <point x="656" y="-46"/>
      <point x="648" y="-42"/>
      <point x="642" y="-34" type="curve" smooth="yes"/>
      <point x="598" y="39" type="line" smooth="yes"/>
      <point x="593" y="48"/>
      <point x="599" y="56"/>
      <point x="607" y="61" type="curve" smooth="yes"/>
      <point x="623" y="70"/>
      <point x="655" y="84"/>
      <point x="655" y="122" type="curve" smooth="yes"/>
      <point x="655" y="161"/>
      <point x="625" y="182"/>
      <point x="594" y="182" type="curve" smooth="yes"/>
      <point x="568" y="182"/>
      <point x="532" y="137"/>
      <point x="495" y="86" type="curve" smooth="yes"/>
      <point x="452" y="28"/>
      <point x="388" y="-19"/>
      <point x="313" y="-19" type="curve" smooth="yes"/>
      <point x="152" y="-19"/>
      <point x="103" y="127"/>
      <point x="103" y="369" type="curve" smooth="yes"/>
      <point x="103" y="618"/>
      <point x="262" y="870"/>
      <point x="556" y="870" type="curve" smooth="yes"/>
      <point x="846" y="870"/>
      <point x="1043" y="627"/>
      <point x="1043" y="136" type="curve" smooth="yes"/>
      <point x="1043" y="-393"/>
      <point x="863" y="-692"/>
      <point x="552" y="-692" type="curve" smooth="yes"/>
      <point x="330" y="-692"/>
      <point x="181" y="-546"/>
      <point x="144" y="-385" type="curve" smooth="yes"/>
      <point x="142" y="-376"/>
      <point x="148" y="-365"/>
      <point x="157" y="-361" type="curve" smooth="yes"/>
      <point x="187" y="-351" type="line" smooth="yes"/>
      <point x="194" y="-348"/>
      <point x="208" y="-354"/>
      <point x="210" y="-365" type="curve" smooth="yes"/>
      <point x="252" y="-505"/>
      <point x="359" y="-594"/>
    </contour>
  </outline>
</glyph>
<glyph name="uni1989" format="1">
  <advance width="1786"/>
  <unicode hex="1989"/>
  <outline>
    <contour>
      <point x="1551" y="450" type="curve" smooth="yes"/>
      <point x="1551" y="640"/>
      <point x="1441" y="805"/>
      <point x="1231" y="805" type="curve" smooth="yes"/>
      <point x="1191" y="805"/>
      <point x="1142" y="795"/>
      <point x="1116" y="780" type="curve" smooth="yes"/>
      <point x="1107" y="775"/>
      <point x="1093" y="778"/>
      <point x="1089" y="786" type="curve" smooth="yes"/>
      <point x="1043" y="865" type="line" smooth="yes"/>
      <point x="1038" y="874"/>
      <point x="1042" y="885"/>
      <point x="1051" y="890" type="curve" smooth="yes"/>
      <point x="1102" y="919"/>
      <point x="1174" y="930"/>
      <point x="1231" y="930" type="curve" smooth="yes"/>
      <point x="1526" y="929"/>
      <point x="1676" y="712"/>
      <point x="1676" y="450" type="curve" smooth="yes"/>
      <point x="1676" y="188"/>
      <point x="1528" y="-20"/>
      <point x="1251" y="-20" type="curve" smooth="yes"/>
      <point x="1024" y="-20"/>
      <point x="892" y="124"/>
      <point x="821" y="288" type="curve"/>
      <point x="930" y="450" type="line"/>
      <point x="915" y="243"/>
      <point x="1084" y="105"/>
      <point x="1251" y="105" type="curve" smooth="yes"/>
      <point x="1447" y="105"/>
      <point x="1551" y="250"/>
    </contour>
    <contour>
      <point x="500" y="-20" type="curve" smooth="yes"/>
      <point x="353" y="-20"/>
      <point x="227" y="38"/>
      <point x="120" y="175" type="curve" smooth="yes"/>
      <point x="112" y="185"/>
      <point x="116" y="199"/>
      <point x="126" y="207" type="curve" smooth="yes"/>
      <point x="195" y="261" type="line" smooth="yes"/>
      <point x="205" y="269"/>
      <point x="218" y="265"/>
      <point x="225" y="255" type="curve" smooth="yes"/>
      <point x="306" y="148"/>
      <point x="389" y="105"/>
      <point x="500" y="105" type="curve" smooth="yes"/>
      <point x="657" y="105"/>
      <point x="805" y="198"/>
      <point x="805" y="450" type="curve" smooth="yes"/>
      <point x="805" y="699"/>
      <point x="662" y="805"/>
      <point x="490" y="805" type="curve" smooth="yes"/>
      <point x="379" y="805"/>
      <point x="296" y="762"/>
      <point x="215" y="655" type="curve" smooth="yes"/>
      <point x="208" y="645"/>
      <point x="196" y="642"/>
      <point x="185" y="649" type="curve"/>
      <point x="116" y="703" type="line"/>
      <point x="105" y="710"/>
      <point x="102" y="725"/>
      <point x="110" y="735" type="curve" smooth="yes"/>
      <point x="217" y="872"/>
      <point x="343" y="930"/>
      <point x="490" y="930" type="curve" smooth="yes"/>
      <point x="755" y="930"/>
      <point x="930" y="738"/>
      <point x="930" y="450" type="curve" smooth="yes"/>
      <point x="930" y="146"/>
      <point x="756" y="-20"/>
    </contour>
  </outline>
</glyph>
<glyph name="uni198A" format="1">
  <advance width="1434"/>
  <unicode hex="198A"/>
  <outline>
    <contour>
      <point x="520" y="-19" type="curve" smooth="yes"/>
      <point x="272" y="-19"/>
      <point x="112" y="63"/>
      <point x="112" y="248" type="curve" smooth="yes"/>
      <point x="112" y="376"/>
      <point x="243" y="473"/>
      <point x="361" y="473" type="curve" smooth="yes"/>
      <point x="379" y="473"/>
      <point x="410" y="473"/>
      <point x="421" y="473" type="curve" smooth="yes"/>
      <point x="442" y="473"/>
      <point x="464" y="462"/>
      <point x="464" y="441" type="curve" smooth="yes"/>
      <point x="464" y="421"/>
      <point x="441" y="404"/>
      <point x="421" y="404" type="curve" smooth="yes"/>
      <point x="295" y="405"/>
      <point x="230" y="345"/>
      <point x="230" y="257" type="curve" smooth="yes"/>
      <point x="230" y="134"/>
      <point x="338" y="98"/>
      <point x="520" y="98" type="curve" smooth="yes"/>
      <point x="844" y="98"/>
      <point x="855" y="437"/>
      <point x="820" y="720" type="curve" smooth="yes"/>
      <point x="756" y="1237"/>
      <point x="789" y="1543"/>
      <point x="1048" y="1543" type="curve" smooth="yes"/>
      <point x="1260" y="1543"/>
      <point x="1309" y="1384"/>
      <point x="1262" y="1150" type="curve" smooth="yes"/>
      <point x="1260" y="1141"/>
      <point x="1256" y="1131"/>
      <point x="1247" y="1131" type="curve" smooth="yes"/>
      <point x="1210" y="1132" type="line" smooth="yes"/>
      <point x="1200" y="1132"/>
      <point x="1193" y="1141"/>
      <point x="1193" y="1150" type="curve" smooth="yes"/>
      <point x="1193" y="1327"/>
      <point x="1178" y="1454"/>
      <point x="1048" y="1454" type="curve" smooth="yes"/>
      <point x="905" y="1454"/>
      <point x="877" y="1191"/>
      <point x="938" y="720" type="curve" smooth="yes"/>
      <point x="985" y="354"/>
      <point x="913" y="-19"/>
    </contour>
    <contour>
      <point x="466" y="402" type="curve" smooth="yes"/>
      <point x="268" y="402"/>
      <point x="112" y="467"/>
      <point x="112" y="636" type="curve" smooth="yes"/>
      <point x="112" y="762"/>
      <point x="209" y="870"/>
      <point x="393" y="870" type="curve" smooth="yes"/>
      <point x="478" y="870"/>
      <point x="532" y="845"/>
      <point x="561" y="824" type="curve" smooth="yes"/>
      <point x="568" y="818"/>
      <point x="573" y="810"/>
      <point x="568" y="801" type="curve" smooth="yes"/>
      <point x="525" y="732" type="line" smooth="yes"/>
      <point x="521" y="725"/>
      <point x="509" y="721"/>
      <point x="499" y="726" type="curve" smooth="yes"/>
      <point x="483" y="734"/>
      <point x="458" y="753"/>
      <point x="393" y="753" type="curve" smooth="yes"/>
      <point x="281" y="753"/>
      <point x="230" y="696"/>
      <point x="230" y="636" type="curve" smooth="yes"/>
      <point x="230" y="554"/>
      <point x="264" y="482"/>
      <point x="466" y="482" type="curve" smooth="yes"/>
      <point x="475" y="482"/>
      <point x="484" y="475"/>
      <point x="484" y="465" type="curve" smooth="yes"/>
      <point x="484" y="418" type="line" smooth="yes"/>
      <point x="484" y="410"/>
      <point x="475" y="402"/>
    </contour>
  </outline>
</glyph>
<glyph name="uni198B" format="1">
  <advance width="1260"/>
  <unicode hex="198B"/>
  <outline>
    <contour>
      <point x="1066" y="449" type="curve" smooth="yes"/>
      <point x="1066" y="269"/>
      <point x="942" y="48"/>
      <point x="694" y="47" type="curve" smooth="yes"/>
      <point x="684" y="47"/>
      <point x="675" y="54"/>
      <point x="675" y="63" type="curve" smooth="yes"/>
      <point x="675" y="109" type="line" smooth="yes"/>
      <point x="675" y="120"/>
      <point x="684" y="126"/>
      <point x="694" y="126" type="curve" smooth="yes"/>
      <point x="834" y="126"/>
      <point x="949" y="252"/>
      <point x="949" y="449" type="curve" smooth="yes"/>
      <point x="949" y="633"/>
      <point x="829" y="753"/>
      <point x="594" y="753" type="curve" smooth="yes"/>
      <point x="361" y="753"/>
      <point x="220" y="582"/>
      <point x="220" y="393" type="curve" smooth="yes"/>
      <point x="220" y="252"/>
      <point x="288" y="155"/>
      <point x="388" y="79" type="curve" smooth="yes"/>
      <point x="397" y="73"/>
      <point x="400" y="62"/>
      <point x="394" y="51" type="curve"/>
      <point x="343" y="-13" type="line"/>
      <point x="337" y="-23"/>
      <point x="323" y="-26"/>
      <point x="313" y="-19" type="curve" smooth="yes"/>
      <point x="176" y="81"/>
      <point x="103" y="209"/>
      <point x="103" y="393" type="curve" smooth="yes"/>
      <point x="103" y="678"/>
      <point x="324" y="870"/>
      <point x="594" y="870" type="curve" smooth="yes"/>
      <point x="887" y="870"/>
      <point x="1066" y="716"/>
    </contour>
    <contour>
      <point x="1085" y="-266" type="curve" smooth="yes"/>
      <point x="1085" y="-559"/>
      <point x="837" y="-692"/>
      <point x="597" y="-692" type="curve" smooth="yes"/>
      <point x="383" y="-692"/>
      <point x="217" y="-537"/>
      <point x="170" y="-413" type="curve" smooth="yes"/>
      <point x="166" y="-404"/>
      <point x="174" y="-393"/>
      <point x="183" y="-389" type="curve" smooth="yes"/>
      <point x="213" y="-379" type="line" smooth="yes"/>
      <point x="221" y="-376"/>
      <point x="232" y="-383"/>
      <point x="237" y="-393" type="curve" smooth="yes"/>
      <point x="288" y="-496"/>
      <point x="413" y="-594"/>
      <point x="597" y="-594" type="curve" smooth="yes"/>
      <point x="762" y="-594"/>
      <point x="968" y="-510"/>
      <point x="968" y="-266" type="curve" smooth="yes"/>
      <point x="968" y="-7"/>
      <point x="755" y="47"/>
      <point x="696" y="47" type="curve"/>
      <point x="696" y="126" type="line"/>
      <point x="873" y="126"/>
      <point x="1085" y="26"/>
    </contour>
  </outline>
</glyph>
<glyph name="uni198C" format="1">
  <advance width="1260"/>
  <unicode hex="198C"/>
  <outline>
    <contour>
      <point x="612" y="1454" type="curve" smooth="yes"/>
      <point x="335" y="1454"/>
      <point x="243" y="1223"/>
      <point x="243" y="982" type="curve" smooth="yes"/>
      <point x="243" y="848"/>
      <point x="252" y="744"/>
      <point x="265" y="670" type="curve"/>
      <point x="156" y="565" type="line"/>
      <point x="142" y="659"/>
      <point x="126" y="804"/>
      <point x="126" y="982" type="curve" smooth="yes"/>
      <point x="126" y="1274"/>
      <point x="251" y="1543"/>
      <point x="612" y="1543" type="curve" smooth="yes"/>
      <point x="825" y="1543"/>
      <point x="973" y="1406"/>
      <point x="1011" y="1292" type="curve" smooth="yes"/>
      <point x="1014" y="1283"/>
      <point x="1007" y="1272"/>
      <point x="998" y="1268" type="curve" smooth="yes"/>
      <point x="968" y="1258" type="line" smooth="yes"/>
      <point x="960" y="1255"/>
      <point x="948" y="1262"/>
      <point x="944" y="1272" type="curve" smooth="yes"/>
      <point x="902" y="1365"/>
      <point x="796" y="1454"/>
    </contour>
    <contour>
      <point x="1066" y="449" type="curve" smooth="yes"/>
      <point x="1066" y="269"/>
      <point x="942" y="48"/>
      <point x="694" y="47" type="curve" smooth="yes"/>
      <point x="684" y="47"/>
      <point x="675" y="54"/>
      <point x="675" y="63" type="curve" smooth="yes"/>
      <point x="675" y="109" type="line" smooth="yes"/>
      <point x="675" y="120"/>
      <point x="684" y="126"/>
      <point x="694" y="126" type="curve" smooth="yes"/>
      <point x="834" y="126"/>
      <point x="949" y="252"/>
      <point x="949" y="449" type="curve" smooth="yes"/>
      <point x="949" y="633"/>
      <point x="829" y="753"/>
      <point x="594" y="753" type="curve" smooth="yes"/>
      <point x="361" y="753"/>
      <point x="220" y="582"/>
      <point x="220" y="393" type="curve" smooth="yes"/>
      <point x="220" y="252"/>
      <point x="288" y="155"/>
      <point x="388" y="79" type="curve" smooth="yes"/>
      <point x="397" y="73"/>
      <point x="400" y="62"/>
      <point x="394" y="51" type="curve"/>
      <point x="343" y="-13" type="line"/>
      <point x="337" y="-23"/>
      <point x="323" y="-26"/>
      <point x="313" y="-19" type="curve" smooth="yes"/>
      <point x="176" y="81"/>
      <point x="103" y="209"/>
      <point x="103" y="393" type="curve" smooth="yes"/>
      <point x="103" y="678"/>
      <point x="324" y="870"/>
      <point x="594" y="870" type="curve" smooth="yes"/>
      <point x="887" y="870"/>
      <point x="1066" y="716"/>
    </contour>
    <contour>
      <point x="1085" y="-266" type="curve" smooth="yes"/>
      <point x="1085" y="-559"/>
      <point x="837" y="-692"/>
      <point x="597" y="-692" type="curve" smooth="yes"/>
      <point x="383" y="-692"/>
      <point x="217" y="-537"/>
      <point x="170" y="-413" type="curve" smooth="yes"/>
      <point x="166" y="-404"/>
      <point x="174" y="-393"/>
      <point x="183" y="-389" type="curve" smooth="yes"/>
      <point x="213" y="-379" type="line" smooth="yes"/>
      <point x="221" y="-376"/>
      <point x="232" y="-383"/>
      <point x="237" y="-393" type="curve" smooth="yes"/>
      <point x="288" y="-496"/>
      <point x="413" y="-594"/>
      <point x="597" y="-594" type="curve" smooth="yes"/>
      <point x="762" y="-594"/>
      <point x="968" y="-510"/>
      <point x="968" y="-266" type="curve" smooth="yes"/>
      <point x="968" y="-7"/>
      <point x="755" y="47"/>
      <point x="696" y="47" type="curve"/>
      <point x="696" y="126" type="line"/>
      <point x="873" y="126"/>
      <point x="1085" y="26"/>
    </contour>
  </outline>
</glyph>
<glyph name="uni198E" format="1">
  <advance width="1851"/>
  <unicode hex="198E"/>
  <outline>
    <contour>
      <point x="519" y="870" type="curve" smooth="yes"/>
      <point x="778" y="870"/>
      <point x="930" y="685"/>
      <point x="930" y="421" type="curve" smooth="yes"/>
      <point x="930" y="175"/>
      <point x="787" y="-19"/>
      <point x="519" y="-19" type="curve" smooth="yes"/>
      <point x="241" y="-19"/>
      <point x="103" y="176"/>
      <point x="103" y="421" type="curve" smooth="yes"/>
      <point x="103" y="675"/>
      <point x="251" y="870"/>
    </contour>
    <contour>
      <point x="519" y="753" type="curve" smooth="yes"/>
      <point x="326" y="753"/>
      <point x="220" y="609"/>
      <point x="220" y="421" type="curve" smooth="yes"/>
      <point x="220" y="234"/>
      <point x="336" y="98"/>
      <point x="519" y="98" type="curve" smooth="yes"/>
      <point x="703" y="98"/>
      <point x="813" y="243"/>
      <point x="813" y="421" type="curve" smooth="yes"/>
      <point x="813" y="609"/>
      <point x="694" y="753"/>
    </contour>
    <contour>
      <point x="1212" y="753" type="curve" smooth="yes"/>
      <point x="1035" y="753"/>
      <point x="917" y="655"/>
      <point x="861" y="567" type="curve"/>
      <point x="796" y="669" type="line"/>
      <point x="872" y="770"/>
      <point x="1028" y="870"/>
      <point x="1212" y="870" type="curve" smooth="yes"/>
      <point x="1471" y="870"/>
      <point x="1628" y="694"/>
      <point x="1628" y="421" type="curve" smooth="yes"/>
      <point x="1628" y="194"/>
      <point x="1506" y="-18"/>
      <point x="1230" y="-19" type="curve" smooth="yes"/>
      <point x="1177" y="-19"/>
      <point x="1110" y="-8"/>
      <point x="1062" y="19" type="curve" smooth="yes"/>
      <point x="1054" y="23"/>
      <point x="1050" y="34"/>
      <point x="1055" y="42" type="curve" smooth="yes"/>
      <point x="1098" y="116" type="line" smooth="yes"/>
      <point x="1101" y="123"/>
      <point x="1115" y="126"/>
      <point x="1123" y="122" type="curve" smooth="yes"/>
      <point x="1147" y="108"/>
      <point x="1193" y="98"/>
      <point x="1230" y="98" type="curve" smooth="yes"/>
      <point x="1427" y="98"/>
      <point x="1511" y="252"/>
      <point x="1511" y="421" type="curve" smooth="yes"/>
      <point x="1511" y="626"/>
      <point x="1376" y="753"/>
    </contour>
  </outline>
</glyph>
<glyph name="uni198F" format="1">
  <advance width="1175"/>
  <unicode hex="198F"/>
  <outline>
    <contour>
      <point x="455" y="449" type="curve" smooth="yes"/>
      <point x="465" y="449"/>
      <point x="474" y="441"/>
      <point x="474" y="433" type="curve" smooth="yes"/>
      <point x="474" y="386" type="line" smooth="yes"/>
      <point x="474" y="376"/>
      <point x="465" y="369"/>
      <point x="455" y="369" type="curve" smooth="yes"/>
      <point x="309" y="369"/>
      <point x="229" y="296"/>
      <point x="229" y="215" type="curve" smooth="yes"/>
      <point x="229" y="137"/>
      <point x="291" y="98"/>
      <point x="383" y="98" type="curve" smooth="yes"/>
      <point x="449" y="98"/>
      <point x="494" y="113"/>
      <point x="510" y="122" type="curve" smooth="yes"/>
      <point x="519" y="126"/>
      <point x="530" y="122"/>
      <point x="535" y="115" type="curve" smooth="yes"/>
      <point x="578" y="46" type="line" smooth="yes"/>
      <point x="583" y="37"/>
      <point x="578" y="29"/>
      <point x="570" y="23" type="curve" smooth="yes"/>
      <point x="541" y="2"/>
      <point x="468" y="-19"/>
      <point x="383" y="-19" type="curve" smooth="yes"/>
      <point x="227" y="-19"/>
      <point x="112" y="79"/>
      <point x="112" y="215" type="curve" smooth="yes"/>
      <point x="112" y="384"/>
      <point x="305" y="449"/>
    </contour>
    <contour>
      <point x="510" y="-692" type="curve" smooth="yes"/>
      <point x="307" y="-692"/>
      <point x="181" y="-583"/>
      <point x="135" y="-488" type="curve" smooth="yes"/>
      <point x="130" y="-480"/>
      <point x="138" y="-468"/>
      <point x="148" y="-464" type="curve" smooth="yes"/>
      <point x="178" y="-453" type="line" smooth="yes"/>
      <point x="185" y="-451"/>
      <point x="195" y="-459"/>
      <point x="201" y="-468" type="curve" smooth="yes"/>
      <point x="243" y="-533"/>
      <point x="345" y="-594"/>
      <point x="510" y="-594" type="curve" smooth="yes"/>
      <point x="768" y="-594"/>
      <point x="879" y="-312"/>
      <point x="879" y="112" type="curve" smooth="yes"/>
      <point x="879" y="558"/>
      <point x="767" y="753"/>
      <point x="510" y="753" type="curve" smooth="yes"/>
      <point x="365" y="753"/>
      <point x="229" y="703"/>
      <point x="229" y="589" type="curve" smooth="yes"/>
      <point x="229" y="520"/>
      <point x="319" y="449"/>
      <point x="455" y="449" type="curve" smooth="yes"/>
      <point x="465" y="449"/>
      <point x="474" y="441"/>
      <point x="474" y="433" type="curve" smooth="yes"/>
      <point x="474" y="386" type="line" smooth="yes"/>
      <point x="474" y="376"/>
      <point x="465" y="369"/>
      <point x="455" y="369" type="curve" smooth="yes"/>
      <point x="321" y="369"/>
      <point x="112" y="424"/>
      <point x="112" y="589" type="curve" smooth="yes"/>
      <point x="112" y="774"/>
      <point x="299" y="870"/>
      <point x="510" y="870" type="curve" smooth="yes"/>
      <point x="846" y="870"/>
      <point x="996" y="679"/>
      <point x="996" y="112" type="curve" smooth="yes"/>
      <point x="996" y="-407"/>
      <point x="830" y="-692"/>
    </contour>
  </outline>
</glyph>
<glyph name="uni1990" format="1">
  <advance width="1735"/>
  <unicode hex="1990"/>
  <outline>
    <contour>
      <point x="110" y="450" type="curve" smooth="yes"/>
      <point x="110" y="722"/>
      <point x="220" y="929"/>
      <point x="465" y="930" type="curve" smooth="yes"/>
      <point x="497" y="930"/>
      <point x="534" y="925"/>
      <point x="565" y="912" type="curve" smooth="yes"/>
      <point x="575" y="908"/>
      <point x="578" y="896"/>
      <point x="573" y="887" type="curve" smooth="yes"/>
      <point x="527" y="808" type="line" smooth="yes"/>
      <point x="523" y="800"/>
      <point x="511" y="800"/>
      <point x="500" y="802" type="curve" smooth="yes"/>
      <point x="491" y="804"/>
      <point x="476" y="805"/>
      <point x="465" y="805" type="curve" smooth="yes"/>
      <point x="305" y="805"/>
      <point x="235" y="640"/>
      <point x="235" y="450" type="curve" smooth="yes"/>
      <point x="235" y="220"/>
      <point x="362" y="105"/>
      <point x="508" y="105" type="curve" smooth="yes"/>
      <point x="694" y="105"/>
      <point x="770" y="238"/>
      <point x="803" y="455" type="curve" smooth="yes"/>
      <point x="839" y="689"/>
      <point x="912" y="930"/>
      <point x="1213" y="930" type="curve" smooth="yes"/>
      <point x="1510" y="930"/>
      <point x="1625" y="672"/>
      <point x="1625" y="420" type="curve" smooth="yes"/>
      <point x="1625" y="158"/>
      <point x="1495" y="-19"/>
      <point x="1250" y="-20" type="curve" smooth="yes"/>
      <point x="1218" y="-20"/>
      <point x="1181" y="-15"/>
      <point x="1150" y="-2" type="curve" smooth="yes"/>
      <point x="1140" y="2"/>
      <point x="1137" y="14"/>
      <point x="1142" y="23" type="curve" smooth="yes"/>
      <point x="1188" y="102" type="line" smooth="yes"/>
      <point x="1192" y="110"/>
      <point x="1204" y="110"/>
      <point x="1215" y="108" type="curve" smooth="yes"/>
      <point x="1224" y="106"/>
      <point x="1239" y="105"/>
      <point x="1250" y="105" type="curve" smooth="yes"/>
      <point x="1410" y="105"/>
      <point x="1500" y="230"/>
      <point x="1500" y="420" type="curve" smooth="yes"/>
      <point x="1500" y="610"/>
      <point x="1419" y="805"/>
      <point x="1213" y="805" type="curve" smooth="yes"/>
      <point x="1024" y="805"/>
      <point x="961" y="639"/>
      <point x="933" y="455" type="curve" smooth="yes"/>
      <point x="891" y="178"/>
      <point x="796" y="-20"/>
      <point x="508" y="-20" type="curve" smooth="yes"/>
      <point x="261" y="-20"/>
      <point x="110" y="158"/>
    </contour>
    <contour>
      <point x="279.165" y="-447.999" type="curve" smooth="yes"/>
      <point x="264.616" y="-419.653"/>
      <point x="273.499" y="-411.922"/>
      <point x="285.167" y="-407.668" type="curve" smooth="yes"/>
      <point x="318.167" y="-395" type="line" smooth="yes"/>
      <point x="329.601" y="-390.611"/>
      <point x="335.931" y="-398.085"/>
      <point x="348.167" y="-419.001" type="curve" smooth="yes"/>
      <point x="426.167" y="-552.333"/>
      <point x="622" y="-630"/>
      <point x="935" y="-630" type="curve" smooth="yes"/>
      <point x="1323" y="-630"/>
      <point x="1480" y="-511"/>
      <point x="1480" y="-385" type="curve" smooth="yes"/>
      <point x="1480" y="-281"/>
      <point x="1408" y="-211"/>
      <point x="1234" y="-215" type="curve" smooth="yes"/>
      <point x="1224" y="-215.23"/>
      <point x="1215" y="-208"/>
      <point x="1215" y="-197" type="curve" smooth="yes"/>
      <point x="1215" y="50" type="line"/>
      <point x="1325" y="50" type="line"/>
      <point x="1325" y="-104" type="line" smooth="yes"/>
      <point x="1325" y="-113"/>
      <point x="1334.82" y="-120.437"/>
      <point x="1345" y="-121" type="curve" smooth="yes"/>
      <point x="1526" y="-131"/>
      <point x="1605" y="-232"/>
      <point x="1605" y="-385" type="curve" smooth="yes"/>
      <point x="1605" y="-547"/>
      <point x="1440" y="-740"/>
      <point x="935" y="-740" type="curve" smooth="yes"/>
      <point x="484" y="-740"/>
      <point x="350.167" y="-586.333"/>
    </contour>
  </outline>
</glyph>
